<svg width="122" height="122" viewBox="0 0 122 122" fill="none" xmlns="http://www.w3.org/2000/svg">
<g clip-path="url(#clip0_4612_10029)">
<path d="M31.3622 69.6408C22.4712 72.0167 16.2834 80.067 16.2744 89.2702V89.5833C15.053 89.8482 14.0154 90.6485 13.4487 91.7625L10.4198 97.7676L3.62997 98.7312C2.03335 98.9479 0.704039 100.064 0.21485 101.6C-0.27974 103.114 0.145824 104.778 1.30647 105.869L6.19135 110.524L5.03871 117.1C4.7594 118.657 5.39525 120.237 6.67514 121.166C7.97464 122.131 9.71151 122.269 11.1475 121.522L17.2318 118.393L23.3161 121.522C24.7491 122.266 26.4816 122.128 27.7783 121.166C29.0586 120.237 29.695 118.658 29.4167 117.1L28.8475 113.847H40.1054L39.9021 114.943C39.5058 117.17 40.4149 119.428 42.244 120.759C43.3105 121.552 44.6045 121.98 45.9337 121.979C46.9198 121.978 47.8916 121.743 48.7696 121.294L61.0277 115.077L73.2248 121.294C75.3246 122.375 77.857 122.165 79.7503 120.753C81.5764 119.423 82.4845 117.168 82.0902 114.943L81.8869 113.847H93.149L92.5798 117.1C92.3015 118.657 92.938 120.237 94.2183 121.166C95.5176 122.132 97.2548 122.27 98.6906 121.522L104.775 118.393L110.859 121.522C112.295 122.27 114.032 122.132 115.332 121.166C116.608 120.234 117.239 118.655 116.958 117.1L115.805 110.532L120.694 105.869C121.855 104.778 122.28 103.114 121.786 101.6C121.296 100.063 119.965 98.9463 118.367 98.7312L111.577 97.7676L108.548 91.7625C107.981 90.6481 106.942 89.848 105.72 89.5833V89.2702C105.711 80.067 99.5233 72.0169 90.6323 69.6408L74.5503 65.3494C73.1541 62.3378 72.5063 59.0335 72.6618 55.7177C74.219 54.4065 75.6115 53.1563 76.6969 52.1459C78.3499 50.6057 79.2899 48.4489 79.2929 46.1896V44.4739C82.5109 43.6532 84.9023 40.9516 85.3258 37.6575C85.7494 34.3634 84.1198 31.1446 81.2141 29.5364C82.6776 27.4382 83.4293 24.9258 83.3587 22.3686C83.3161 15.192 78.6595 8.85821 71.8222 6.67697C72.1364 6.37305 72.4833 6.10495 72.857 5.87806C73.5489 5.51812 73.9741 4.79424 73.951 4.01474C73.928 3.23524 73.4613 2.53757 72.7492 2.21905C69.0292 0.669855 65.026 -0.0834355 60.9973 0.00739952C54.6378 -0.0814347 48.6973 3.16962 45.3442 8.5739C40.9553 10.7984 38.3159 15.4259 38.6358 20.336C38.6653 23.5006 39.5808 26.5936 41.2785 29.2643C38.1745 30.7148 36.3164 33.9589 36.6355 37.3702C36.9546 40.7815 39.3823 43.6246 42.7014 44.4741V46.1898C42.7044 48.4491 43.6444 50.6059 45.2974 52.1461C46.383 53.1625 47.7754 54.4065 49.3326 55.7179C49.486 59.0333 48.839 62.337 47.446 65.3496L31.3622 69.6408ZM25.0706 107.952C24.3231 108.663 23.9814 109.701 24.1599 110.717L25.402 117.803L27.4063 117.454L25.1703 117.899L18.6652 114.553C17.7628 114.087 16.691 114.087 15.7887 114.553L9.28354 117.899L10.2125 119.706L9.04565 117.803L10.2897 110.709C10.466 109.688 10.1177 108.647 9.36277 107.938L4.20339 102.758L11.477 101.723C12.4916 101.583 13.3727 100.954 13.8351 100.04L17.2238 93.5186C17.3294 93.5186 17.3519 93.5674 17.3641 93.5918L20.6167 100.038C21.0785 100.95 21.9568 101.578 22.9688 101.721L30.3339 102.917L25.0706 107.952ZM77.3314 117.506C76.6769 118 75.7962 118.071 75.0709 117.689L62.8738 111.475C61.6947 110.878 60.3022 110.878 59.1231 111.475L46.926 117.689C46.2012 118.073 45.3192 118.002 44.6656 117.506C44.0798 117.095 43.7848 116.382 43.9093 115.677L46.237 102.516C46.4727 101.194 46.0237 99.8424 45.0437 98.9243L35.1803 89.5773C34.6419 89.0981 34.4398 88.3446 34.6659 87.6604C34.9068 86.9177 35.5609 86.3855 36.337 86.3004L49.9754 84.3793C51.2923 84.1986 52.438 83.3857 53.043 82.202L59.1416 70.2264C59.5147 69.5468 60.2284 69.1246 61.0037 69.1246C61.779 69.1246 62.4926 69.547 62.8658 70.2264L68.9643 82.202C69.572 83.3843 70.7172 84.1966 72.0339 84.3793L85.6724 86.3004C86.4485 86.3855 87.1025 86.9179 87.3434 87.6604C87.5697 88.3448 87.3674 89.0981 86.829 89.5773L76.9616 98.8999C75.982 99.8174 75.5329 101.168 75.7684 102.49L78.0961 115.653C78.2205 116.36 77.9222 117.076 77.3318 117.486V117.506H77.3314ZM55.5188 68.3743C54.0558 67.961 52.6625 67.3327 51.384 66.5102C52.439 64.0815 53.0828 61.4943 53.2887 58.8545C53.5368 59.0395 53.7745 59.2306 54.0226 59.4115C55.4217 60.4361 57.1102 60.9899 58.8444 60.9931H63.1501C64.8838 60.9903 66.5716 60.4365 67.97 59.4115C68.22 59.2306 68.4577 59.0373 68.7058 58.8545C68.9109 61.4945 69.5546 64.0819 70.6106 66.5102C69.3321 67.3327 67.9385 67.961 66.4758 68.3743C65.4086 66.3359 63.298 65.0586 60.9973 65.0586C58.6966 65.0586 56.586 66.3359 55.5188 68.3743ZM104.907 93.594L108.16 100.04C108.622 100.952 109.5 101.58 110.512 101.724L117.879 102.919L112.632 107.936C111.881 108.648 111.537 109.688 111.713 110.707L112.957 117.793L114.959 117.444L112.723 117.889L106.218 114.543C105.316 114.077 104.244 114.077 103.342 114.543L96.8367 117.889L97.7656 119.696L96.6008 117.793L97.8409 110.711C98.0211 109.692 97.6792 108.651 96.9301 107.938L91.7585 102.758L99.0321 101.723C100.043 101.581 100.921 100.953 101.382 100.042L104.771 93.5186C104.879 93.5188 104.907 93.5696 104.907 93.594ZM73.6743 69.3277L89.5855 73.5743C96.6968 75.4723 101.647 81.9097 101.655 89.27V90.815C101.394 91.0989 101.174 91.4168 101 91.7603L97.9709 97.7674L91.1791 98.731C89.5819 98.9469 88.2512 100.062 87.7598 101.597C87.2674 103.112 87.6926 104.774 88.8514 105.866L92.9638 109.782H81.1732L79.7503 101.853L89.6177 92.5308C91.2831 90.977 91.9044 88.6027 91.2135 86.4323C90.5006 84.2 88.5609 82.5812 86.237 82.2791L72.5843 80.3579L68.3479 72.0375C70.2578 71.4269 72.0563 70.5117 73.6743 69.3277ZM47.4096 12.1009C47.9174 11.9266 48.338 11.5623 48.5827 11.0845C51.1361 6.66156 55.8913 3.97593 60.9973 4.07317C63.3462 4.05176 65.6889 4.32006 67.9719 4.87207C67.4546 5.52332 67.0152 6.2328 66.6628 6.98629C66.3961 7.55671 66.4089 8.21856 66.6973 8.77838C66.9858 9.33819 67.5172 9.73255 68.1366 9.84659C68.59 9.93202 79.2929 12.0542 79.2929 22.369C79.3091 23.5539 79.0844 24.7295 78.6323 25.8249C77.5785 23.7105 75.4206 22.3728 73.0581 22.369H67.0958C63.7929 22.5519 60.5061 21.7918 57.6186 20.1776C55.567 18.9525 53.2225 18.3048 50.833 18.3032C47.2692 18.3223 44.1866 20.7902 43.3887 24.2635C42.9431 23.0017 42.711 21.6743 42.7016 20.336C42.7016 13.8571 47.235 12.1619 47.4096 12.1009ZM48.0663 49.1699C47.239 48.3996 46.7684 47.3202 46.7674 46.1898V42.6972C46.7674 41.5746 45.8572 40.6645 44.7346 40.6645C42.8973 40.6691 41.2865 39.4372 40.8097 37.6627C40.3329 35.8882 41.1094 34.0151 42.7016 33.0981V34.5659C42.7016 35.6885 43.6118 36.5987 44.7344 36.5987C45.857 36.5987 46.7672 35.6885 46.7672 34.5659V28.4674C46.7672 28.2173 46.8506 22.3688 50.833 22.3688C52.5732 22.3762 54.2771 22.869 55.7524 23.7918C59.2164 25.7047 63.1431 26.6196 67.0958 26.4344H73.0581C73.9408 26.4258 74.7394 26.9568 75.0727 27.7741C75.1645 27.9944 75.2167 28.2289 75.2271 28.4674V34.5659C75.2271 35.6885 76.1373 36.5987 77.2599 36.5987C78.3826 36.5987 79.2927 35.6885 79.2927 34.5659V33.0981C80.8849 34.0151 81.6614 35.8882 81.1846 37.6627C80.7079 39.4372 79.0972 40.6691 77.2597 40.6645C76.1371 40.6645 75.2269 41.5746 75.2269 42.6972V46.1898C75.2257 47.3202 74.7554 48.3996 73.928 49.1699C71.288 51.6471 68.5052 53.9672 65.5932 56.1182C64.8868 56.6408 64.0326 56.9255 63.1539 56.9313H58.8442C57.9655 56.9249 57.1116 56.6402 56.4049 56.1182C53.4924 53.967 50.7079 51.6469 48.0663 49.1699ZM53.6486 72.0375L49.4102 80.3519L35.7717 82.2731C33.4479 82.5752 31.5083 84.1938 30.7952 86.4263C30.1044 88.5967 30.7256 90.971 32.391 92.5248L42.2422 101.772L40.8173 109.782H29.0268L33.1473 105.861C34.3064 104.769 34.7313 103.106 34.239 101.592C33.7476 100.057 32.4171 98.9411 30.8196 98.7252L24.0298 97.7616L20.9989 91.7545C20.823 91.413 20.6013 91.0971 20.3402 90.8154V89.2704C20.3464 81.9081 25.2977 75.4683 32.4113 73.5705L48.3204 69.3279C49.9392 70.5117 51.7383 71.4269 53.6486 72.0375Z" fill="#A9D944"/>
</g>
<defs>
<clipPath id="clip0_4612_10029">
<rect width="122" height="122" fill="white"/>
</clipPath>
</defs>
</svg>
