<svg width="122" height="122" viewBox="0 0 122 122" fill="none" xmlns="http://www.w3.org/2000/svg">
<g clip-path="url(#clip0_4612_10041)">
<path d="M34.6982 39.4689V49.3337L38.9516 55.2765V63.4043" stroke="#A9D944" stroke-width="7" stroke-miterlimit="10"/>
<path d="M17.1514 68.5559C17.9282 66.7473 20.1537 61.2383 20.1537 57.5759C17.8114 57.5759 15.9052 55.6935 15.8742 53.3536V53.294C15.8432 50.9088 17.7685 48.9597 20.1513 48.9597C20.1537 48.9597 20.1537 46.6174 20.1537 46.6174C20.1537 42.669 23.3538 39.4689 27.3021 39.4689H34.6627C37.0312 39.4689 38.9517 37.5484 38.9517 35.1799V29.6589C38.9517 29.6589 34.6984 31.8034 30.3641 31.8034H14.3921C9.42867 31.8034 8.83773 36.7406 8.83773 36.7406C5.00617 36.7406 1.90137 40.7985 1.90137 44.6301C1.90137 58.4861 13.3198 66.8403 16.2245 68.7394L17.1514 68.5559Z" stroke="#A9D944" stroke-width="7" stroke-miterlimit="10"/>
<path d="M99.466 46.0998C99.4653 46.0998 99.4653 43.7575 99.4653 43.7575C99.4653 39.8094 96.265 36.609 92.3169 36.609H84.9199C84.9199 30.4778 94.4204 27.9904 98.654 27.9904C106.55 27.9904 120.099 31.8637 120.099 44.6701C120.099 59.5753 107.3 61.5273 107.3 68.919C102.865 68.919 99.4651 63.4386 99.4651 54.7163C101.806 54.7163 103.713 52.8348 103.743 50.4937L103.744 50.4341C103.776 48.0496 101.851 46.0998 99.466 46.0998Z" stroke="#A9D944" stroke-width="7" stroke-miterlimit="10"/>
<path d="M32.8819 66.4178C32.8819 66.4178 32.792 76.3096 43.3834 79.7558" stroke="#A9D944" stroke-width="7" stroke-miterlimit="10"/>
<path d="M89.0689 66.4178C89.0689 66.4178 89.1587 76.3096 78.5674 79.7558" stroke="#A9D944" stroke-width="7" stroke-miterlimit="10"/>
<path d="M60.9424 0V13.7646" stroke="#A9D944" stroke-width="7" stroke-miterlimit="10"/>
<path d="M75.4775 4.76562L68.3291 13.7646" stroke="#A9D944" stroke-width="7" stroke-miterlimit="10"/>
<path d="M46.6455 4.76562L53.7939 13.7646" stroke="#A9D944" stroke-width="7" stroke-miterlimit="10"/>
<path d="M37.1819 82.7789C29.3832 85.3097 25.733 87.2693 23.543 91.7597" stroke="#A9D944" stroke-width="7" stroke-miterlimit="10"/>
<path d="M80.665 61.5323V55.2765L84.9184 49.3337V36.6095" stroke="#A9D944" stroke-width="7" stroke-miterlimit="10"/>
<path d="M1.90137 96.2609C1.90137 96.2609 1.90137 90.5755 1.90137 86.3126C1.90137 78.9521 7.3175 68.2032 21.3689 68.2032C46.3289 68.2032 51.1875 47.5705 52.1811 37.5126C52.4789 34.4817 54.5639 25.57 54.5639 25.57C54.5639 25.57 56.1056 21.5311 60.9689 21.5311C65.8322 21.5311 67.3739 25.57 67.3739 25.57C67.3739 25.57 68.5177 30.4619 69.2325 34.2291" stroke="#A9D944" stroke-width="7" stroke-miterlimit="10"/>
<path d="M1.90137 99.8351V122" stroke="#A9D944" stroke-width="7" stroke-miterlimit="10"/>
<path d="M120.036 114.332V122" stroke="#A9D944" stroke-width="7" stroke-miterlimit="10"/>
<path d="M69.7881 37.8033C70.8484 47.9612 75.8476 68.2032 100.569 68.2032C114.623 68.2032 120.037 78.9521 120.037 86.3126C120.037 87.8519 120.037 108.747 120.037 110.758" stroke="#A9D944" stroke-width="7" stroke-miterlimit="10"/>
<path d="M46.7129 122C46.7129 93.5468 37.1816 82.7789 37.1816 82.7789C57.2902 75.7139 59.9256 51.8119 60.9859 37.5126" stroke="#A9D944" stroke-width="7" stroke-miterlimit="10"/>
<path d="M75.2252 122C75.2252 93.5468 84.7564 82.7789 84.7564 82.7789C64.6479 75.7139 62.0125 51.8119 60.9521 37.5126" stroke="#A9D944" stroke-width="7" stroke-miterlimit="10"/>
<path d="M84.7568 82.7789C92.5555 85.3097 96.2058 87.2693 98.3958 91.7597" stroke="#A9D944" stroke-width="7" stroke-miterlimit="10"/>
<path d="M60.9863 40.5936V21.5311" stroke="#A9D944" stroke-width="7" stroke-miterlimit="10"/>
<path d="M19.2227 111.685H22.7969" stroke="#A9D944" stroke-width="7" stroke-miterlimit="10"/>
<path d="M26.3711 111.685H29.9453" stroke="#A9D944" stroke-width="7" stroke-miterlimit="10"/>
</g>
<defs>
<clipPath id="clip0_4612_10041">
<rect width="122" height="122" fill="white"/>
</clipPath>
</defs>
</svg>
