<svg width="122" height="122" viewBox="0 0 122 122" fill="none" xmlns="http://www.w3.org/2000/svg">
<g clip-path="url(#clip0_4612_10015)">
<mask id="path-1-outside-1_4612_10015" maskUnits="userSpaceOnUse" x="-2.02148" y="42.7993" width="127" height="73" fill="black">
<rect fill="white" x="-2.02148" y="42.7993" width="127" height="73"/>
<path d="M120.09 96.4491H105.567V59.3173H120.09C120.342 59.3201 120.593 59.2728 120.827 59.178C121.061 59.0833 121.275 58.9431 121.454 58.7655C121.634 58.5878 121.776 58.3763 121.874 58.1432C121.971 57.9101 122.021 57.6599 122.021 57.4073C122.021 57.1547 121.971 56.9046 121.874 56.6714C121.776 56.4383 121.634 56.2268 121.454 56.0492C121.275 55.8715 121.061 55.7313 120.827 55.6366C120.593 55.5419 120.342 55.4945 120.09 55.4974H105.086C104.201 55.4983 103.352 55.8503 102.726 56.4761C102.1 57.1019 101.748 57.9504 101.747 58.8355V60.4129H92.9424C92.5479 60.4131 92.1608 60.306 91.8225 60.1031L68.465 46.0888C67.0594 45.2451 65.4509 44.7994 63.8116 44.7993H48.4524C47.0755 44.8028 45.718 45.1248 44.4862 45.7401C43.2543 46.3554 42.1815 47.2473 41.3517 48.3461L32.3956 60.1234H20.2523V58.8355C20.2513 57.9504 19.8993 57.1019 19.2734 56.4761C18.6476 55.8503 17.7991 55.4983 16.914 55.4974H1.90991C1.6573 55.4945 1.40664 55.5419 1.17244 55.6366C0.938237 55.7313 0.725154 55.8715 0.545524 56.0492C0.365894 56.2268 0.223286 56.4383 0.125958 56.6714C0.0286304 56.9046 -0.0214844 57.1547 -0.0214844 57.4073C-0.0214844 57.6599 0.0286304 57.9101 0.125958 58.1432C0.223286 58.3763 0.365894 58.5878 0.545524 58.7655C0.725154 58.9431 0.938237 59.0833 1.17244 59.178C1.40664 59.2728 1.6573 59.3201 1.90991 59.3173H16.4324V96.4491H1.90991C1.6573 96.4463 1.40664 96.4936 1.17244 96.5883C0.938237 96.683 0.725154 96.8233 0.545524 97.0009C0.365894 97.1785 0.223286 97.39 0.125958 97.6232C0.0286304 97.8563 -0.0214844 98.1064 -0.0214844 98.359C-0.0214844 98.6117 0.0286304 98.8618 0.125958 99.0949C0.223286 99.328 0.365894 99.5396 0.545524 99.7172C0.725154 99.8948 0.938237 100.035 1.17244 100.13C1.40664 100.224 1.6573 100.272 1.90991 100.269H16.914C17.7991 100.268 18.6476 99.9159 19.2734 99.2901C19.8993 98.6643 20.2513 97.8157 20.2523 96.9307V91.9899H23.1956C23.0091 93.2085 23.176 94.4549 23.6763 95.5815C24.1767 96.7081 24.9896 97.6676 26.0187 98.3463C26.4417 98.625 26.9581 98.7242 27.4543 98.6221C27.9504 98.52 28.3857 98.2251 28.6644 97.8021C28.943 97.3791 29.0422 96.8627 28.9402 96.3665C28.8381 95.8704 28.5431 95.4351 28.1201 95.1564C27.5404 94.7745 27.1361 94.1779 26.9962 93.4978C26.8563 92.8178 26.9922 92.1101 27.3741 91.5303L29.0949 88.918C29.4784 88.3419 30.0745 87.9411 30.7526 87.8033C31.4308 87.6655 32.136 87.8018 32.714 88.1825C33.2919 88.5632 33.6956 89.1572 33.8367 89.8347C33.9779 90.5122 33.845 91.2181 33.4672 91.7979L31.7461 94.4104C30.8087 95.8367 30.4755 97.5766 30.8195 99.2484C31.1635 100.92 32.1565 102.387 33.5808 103.328C34.0038 103.606 34.5202 103.705 35.0164 103.603C35.5125 103.501 35.9478 103.206 36.2265 102.783C36.5051 102.36 36.6043 101.844 36.5023 101.348C36.4002 100.852 36.1052 100.416 35.6822 100.138C35.1032 99.7552 34.6995 99.1587 34.5596 98.479C34.4198 97.7992 34.5552 97.0918 34.9362 96.5118L36.657 93.8995C37.041 93.3248 37.6367 92.9252 38.3141 92.788C38.9916 92.6508 39.6958 92.7871 40.2731 93.1672C40.8504 93.5472 41.254 94.1402 41.3958 94.8167C41.5376 95.4932 41.4061 96.1983 41.03 96.7782L39.3091 99.3907C38.3718 100.817 38.0386 102.557 38.3826 104.229C38.7266 105.901 39.7196 107.368 41.1439 108.308C41.3533 108.448 41.5884 108.545 41.8355 108.594C42.0827 108.643 42.337 108.642 42.584 108.592C42.8309 108.542 43.0655 108.444 43.2743 108.303C43.483 108.162 43.6619 107.981 43.8004 107.771C43.939 107.561 44.0346 107.325 44.0817 107.077C44.1288 106.83 44.1265 106.575 44.0749 106.329C44.0233 106.082 43.9234 105.848 43.7811 105.641C43.6387 105.433 43.4566 105.255 43.2453 105.118C42.6663 104.735 42.2626 104.139 42.1228 103.459C41.983 102.78 42.1185 102.072 42.4995 101.492L44.2203 98.8796C44.6021 98.2997 45.1986 97.8952 45.8786 97.7551C46.5586 97.615 47.2664 97.7508 47.8462 98.1326C48.4261 98.5143 48.8306 99.1108 48.9707 99.7908C49.1108 100.471 48.975 101.179 48.5933 101.758L46.8698 104.373C45.9325 105.8 45.5993 107.54 45.9433 109.211C46.2872 110.883 47.2803 112.35 48.7045 113.291C49.1276 113.565 49.6421 113.662 50.1357 113.558C50.6294 113.455 51.0621 113.161 51.3396 112.739C51.617 112.318 51.7166 111.804 51.6166 111.31C51.5167 110.816 51.2252 110.381 50.8059 110.101C50.227 109.718 49.8233 109.122 49.6835 108.442C49.5437 107.762 49.6791 107.055 50.0601 106.475L51.781 103.862C52.1629 103.283 52.7596 102.878 53.4396 102.738C54.1196 102.598 54.8274 102.734 55.4072 103.116C55.9869 103.498 56.3912 104.095 56.5311 104.775C56.6709 105.455 56.5349 106.163 56.153 106.743C55.991 106.989 55.8886 107.269 55.8539 107.561C55.847 107.575 55.8389 107.588 55.8325 107.601C55.6169 108.06 55.5923 108.585 55.7639 109.062C55.9356 109.538 56.2896 109.927 56.748 110.143C57.6222 110.554 58.5153 110.964 59.4043 111.361C60.4035 111.955 61.5373 112.285 62.6991 112.32C63.8608 112.354 65.0123 112.093 66.0452 111.56C67.078 111.027 67.9583 110.24 68.6031 109.273C69.248 108.306 69.6362 107.191 69.7312 106.033C70.5346 106.357 71.3926 106.524 72.2589 106.525C72.7935 106.525 73.3263 106.463 73.8465 106.339C75.3182 105.994 76.6343 105.171 77.5901 104C78.5459 102.829 79.0878 101.375 79.1316 99.8637C79.8004 100.08 80.4986 100.19 81.2013 100.191C81.7359 100.191 82.2685 100.128 82.7888 100.005C84.2761 99.6559 85.604 98.8197 86.562 97.6295C87.52 96.4394 88.0532 94.9634 88.077 93.4358C88.5472 93.5378 89.0271 93.5894 89.5083 93.5897C90.0428 93.5894 90.5755 93.5271 91.0957 93.4041C92.4171 93.0928 93.6166 92.3967 94.5425 91.4038C95.4684 90.4109 96.0792 89.1659 96.2976 87.826C96.5161 86.4861 96.3325 85.1115 95.7699 83.8759C95.2074 82.6404 94.2912 81.5993 93.1371 80.8843L57.4804 58.7075H57.4788L57.4721 58.7034C57.4611 58.6965 57.4497 58.6913 57.4385 58.6849C56.2662 57.9593 54.8666 57.6938 53.51 57.9396C52.1534 58.1854 50.936 58.9251 50.0928 60.0159L42.9129 69.2207C42.5094 69.7403 42.007 70.1748 41.4348 70.4994C40.8626 70.8239 40.2318 71.032 39.5788 71.1117C38.9258 71.1913 38.2635 71.141 37.6301 70.9635C36.9966 70.786 36.4045 70.485 35.888 70.0776C35.3714 69.6703 34.9405 69.1648 34.6202 68.5902C34.2999 68.0156 34.0965 67.3833 34.0217 66.7297C33.9468 66.0761 34.0021 65.4142 34.1842 64.7821C34.3664 64.15 34.6718 63.5601 35.083 63.0466L44.405 50.6402C44.878 50.0139 45.4895 49.5055 46.1916 49.1549C46.8938 48.8042 47.6676 48.6208 48.4524 48.6189H63.8116C64.7581 48.6189 65.6868 48.8761 66.4984 49.3631L89.8562 63.3776C90.7883 63.9367 91.8548 64.2321 92.9417 64.2323H101.747V96.9307C101.748 97.8157 102.1 98.6643 102.726 99.2901C103.351 99.9159 104.2 100.268 105.085 100.269H120.089C120.342 100.272 120.592 100.224 120.827 100.13C121.061 100.035 121.274 99.8948 121.453 99.7172C121.633 99.5396 121.776 99.328 121.873 99.0949C121.97 98.8618 122.02 98.6117 122.02 98.359C122.02 98.1064 121.97 97.8563 121.873 97.6232C121.776 97.39 121.633 97.1785 121.453 97.0009C121.274 96.8233 121.061 96.683 120.827 96.5883C120.592 96.4936 120.342 96.4463 120.089 96.4491H120.09ZM38.9846 74.9709C40.3243 74.9711 41.6463 74.6648 42.8493 74.0753C44.0524 73.4859 45.1046 72.6289 45.9255 71.5702L53.1042 62.3627C53.3717 62.0135 53.7599 61.7767 54.1928 61.6985C54.6257 61.6203 55.0722 61.7065 55.445 61.94L55.4503 61.9429L55.4534 61.945L91.1241 84.129C91.4643 84.3394 91.7597 84.6148 91.9935 84.9394C92.2273 85.2641 92.3949 85.6315 92.4866 86.0209C92.5784 86.4103 92.5926 86.8139 92.5284 87.2088C92.4642 87.6036 92.3228 87.9819 92.1124 88.3222C91.9019 88.6624 91.6265 88.9578 91.3019 89.1916C90.9773 89.4254 90.6098 89.593 90.2205 89.6847C89.8311 89.7765 89.4275 89.7907 89.0326 89.7265C88.6378 89.6622 88.2594 89.5209 87.9192 89.3104L84.8244 87.4802L76.4769 82.1167C76.0593 81.8473 75.553 81.7513 75.0657 81.8494C74.5785 81.9474 74.1487 82.2316 73.8677 82.6416C73.5868 83.0516 73.4768 83.5551 73.5613 84.0449C73.6458 84.5347 73.918 84.9722 74.32 85.2644C74.3477 85.2861 74.3774 85.3083 74.4122 85.3304L82.7895 90.7132L82.8171 90.7308C83.5022 91.1567 83.9903 91.837 84.1744 92.6224C84.3585 93.4077 84.2236 94.234 83.7992 94.92C83.3749 95.606 82.6957 96.0957 81.9108 96.2816C81.1258 96.4674 80.2992 96.3344 79.6122 95.9115L75.8712 93.807L69.9478 89.9443C69.7377 89.8072 69.5026 89.7128 69.2561 89.6666C69.0095 89.6203 68.7562 89.6231 68.5107 89.6747C68.0149 89.779 67.5808 90.076 67.3039 90.5003C67.0271 90.9246 66.9301 91.4416 67.0344 91.9374C67.1387 92.4332 67.4356 92.8673 67.86 93.1441L73.8361 97.0412L73.8744 97.0651C74.2146 97.2755 74.5101 97.5509 74.7439 97.8755C74.9776 98.2002 75.1452 98.5677 75.237 98.957C75.3287 99.3464 75.3429 99.7501 75.2786 100.145C75.2144 100.54 75.073 100.918 74.8626 101.258C74.6521 101.599 74.3767 101.894 74.0521 102.128C73.7275 102.362 73.36 102.529 72.9706 102.621C72.1842 102.806 71.3564 102.672 70.6693 102.246L66.5232 99.6823L63.5978 97.6748C63.1933 97.3978 62.6977 97.2869 62.2137 97.3652C61.7297 97.4435 61.2944 97.7049 60.9978 98.0954C60.7013 98.4858 60.5662 98.9754 60.6207 99.4626C60.6751 99.9499 60.9149 100.398 61.2903 100.713C61.327 100.744 61.3699 100.777 61.4161 100.808C61.423 100.813 61.4292 100.819 61.4364 100.824L64.3992 102.857L64.4421 102.883L64.5169 102.932C65.1912 103.351 65.6721 104.019 65.854 104.792C66.036 105.564 65.9043 106.377 65.4876 107.052C65.0622 107.739 64.3815 108.229 63.5952 108.414C62.8089 108.599 61.9812 108.465 61.2939 108.04L61.1848 107.973L61.0678 107.92C60.7227 107.767 60.3767 107.609 60.0322 107.452C60.4126 106.379 60.5018 105.225 60.2905 104.106C60.0792 102.988 59.5751 101.945 58.8296 101.085C58.084 100.225 57.1237 99.5777 56.0465 99.2097C54.9694 98.8417 53.8139 98.7659 52.6979 98.9901C52.3493 97.3302 51.359 95.8753 49.9426 94.9423C48.5262 94.0092 46.7985 93.6737 45.1358 94.0086C44.7872 92.3493 43.7974 90.8949 42.3817 89.9618C40.966 89.0288 39.2391 88.6927 37.5768 89.0266C37.3145 87.7837 36.6902 86.6461 35.7826 85.7573C34.875 84.8684 33.7248 84.2679 32.4766 84.0315C31.2285 83.7951 29.9383 83.9333 28.7685 84.4287C27.5987 84.924 26.6017 85.7545 25.9029 86.8154L25.0113 88.1688H20.2523V63.9435H30.4522C30.1169 65.2463 30.0838 66.6084 30.3554 67.9259C30.6271 69.2434 31.1962 70.4814 32.0194 71.5454C32.8426 72.6093 33.898 73.471 35.1052 74.0647C36.3123 74.6584 37.6391 74.9684 38.9843 74.9709H38.9846Z"/>
</mask>
<path d="M120.09 96.4491H105.567V59.3173H120.09C120.342 59.3201 120.593 59.2728 120.827 59.178C121.061 59.0833 121.275 58.9431 121.454 58.7655C121.634 58.5878 121.776 58.3763 121.874 58.1432C121.971 57.9101 122.021 57.6599 122.021 57.4073C122.021 57.1547 121.971 56.9046 121.874 56.6714C121.776 56.4383 121.634 56.2268 121.454 56.0492C121.275 55.8715 121.061 55.7313 120.827 55.6366C120.593 55.5419 120.342 55.4945 120.09 55.4974H105.086C104.201 55.4983 103.352 55.8503 102.726 56.4761C102.1 57.1019 101.748 57.9504 101.747 58.8355V60.4129H92.9424C92.5479 60.4131 92.1608 60.306 91.8225 60.1031L68.465 46.0888C67.0594 45.2451 65.4509 44.7994 63.8116 44.7993H48.4524C47.0755 44.8028 45.718 45.1248 44.4862 45.7401C43.2543 46.3554 42.1815 47.2473 41.3517 48.3461L32.3956 60.1234H20.2523V58.8355C20.2513 57.9504 19.8993 57.1019 19.2734 56.4761C18.6476 55.8503 17.7991 55.4983 16.914 55.4974H1.90991C1.6573 55.4945 1.40664 55.5419 1.17244 55.6366C0.938237 55.7313 0.725154 55.8715 0.545524 56.0492C0.365894 56.2268 0.223286 56.4383 0.125958 56.6714C0.0286304 56.9046 -0.0214844 57.1547 -0.0214844 57.4073C-0.0214844 57.6599 0.0286304 57.9101 0.125958 58.1432C0.223286 58.3763 0.365894 58.5878 0.545524 58.7655C0.725154 58.9431 0.938237 59.0833 1.17244 59.178C1.40664 59.2728 1.6573 59.3201 1.90991 59.3173H16.4324V96.4491H1.90991C1.6573 96.4463 1.40664 96.4936 1.17244 96.5883C0.938237 96.683 0.725154 96.8233 0.545524 97.0009C0.365894 97.1785 0.223286 97.39 0.125958 97.6232C0.0286304 97.8563 -0.0214844 98.1064 -0.0214844 98.359C-0.0214844 98.6117 0.0286304 98.8618 0.125958 99.0949C0.223286 99.328 0.365894 99.5396 0.545524 99.7172C0.725154 99.8948 0.938237 100.035 1.17244 100.13C1.40664 100.224 1.6573 100.272 1.90991 100.269H16.914C17.7991 100.268 18.6476 99.9159 19.2734 99.2901C19.8993 98.6643 20.2513 97.8157 20.2523 96.9307V91.9899H23.1956C23.0091 93.2085 23.176 94.4549 23.6763 95.5815C24.1767 96.7081 24.9896 97.6676 26.0187 98.3463C26.4417 98.625 26.9581 98.7242 27.4543 98.6221C27.9504 98.52 28.3857 98.2251 28.6644 97.8021C28.943 97.3791 29.0422 96.8627 28.9402 96.3665C28.8381 95.8704 28.5431 95.4351 28.1201 95.1564C27.5404 94.7745 27.1361 94.1779 26.9962 93.4978C26.8563 92.8178 26.9922 92.1101 27.3741 91.5303L29.0949 88.918C29.4784 88.3419 30.0745 87.9411 30.7526 87.8033C31.4308 87.6655 32.136 87.8018 32.714 88.1825C33.2919 88.5632 33.6956 89.1572 33.8367 89.8347C33.9779 90.5122 33.845 91.2181 33.4672 91.7979L31.7461 94.4104C30.8087 95.8367 30.4755 97.5766 30.8195 99.2484C31.1635 100.92 32.1565 102.387 33.5808 103.328C34.0038 103.606 34.5202 103.705 35.0164 103.603C35.5125 103.501 35.9478 103.206 36.2265 102.783C36.5051 102.36 36.6043 101.844 36.5023 101.348C36.4002 100.852 36.1052 100.416 35.6822 100.138C35.1032 99.7552 34.6995 99.1587 34.5596 98.479C34.4198 97.7992 34.5552 97.0918 34.9362 96.5118L36.657 93.8995C37.041 93.3248 37.6367 92.9252 38.3141 92.788C38.9916 92.6508 39.6958 92.7871 40.2731 93.1672C40.8504 93.5472 41.254 94.1402 41.3958 94.8167C41.5376 95.4932 41.4061 96.1983 41.03 96.7782L39.3091 99.3907C38.3718 100.817 38.0386 102.557 38.3826 104.229C38.7266 105.901 39.7196 107.368 41.1439 108.308C41.3533 108.448 41.5884 108.545 41.8355 108.594C42.0827 108.643 42.337 108.642 42.584 108.592C42.8309 108.542 43.0655 108.444 43.2743 108.303C43.483 108.162 43.6619 107.981 43.8004 107.771C43.939 107.561 44.0346 107.325 44.0817 107.077C44.1288 106.83 44.1265 106.575 44.0749 106.329C44.0233 106.082 43.9234 105.848 43.7811 105.641C43.6387 105.433 43.4566 105.255 43.2453 105.118C42.6663 104.735 42.2626 104.139 42.1228 103.459C41.983 102.78 42.1185 102.072 42.4995 101.492L44.2203 98.8796C44.6021 98.2997 45.1986 97.8952 45.8786 97.7551C46.5586 97.615 47.2664 97.7508 47.8462 98.1326C48.4261 98.5143 48.8306 99.1108 48.9707 99.7908C49.1108 100.471 48.975 101.179 48.5933 101.758L46.8698 104.373C45.9325 105.8 45.5993 107.54 45.9433 109.211C46.2872 110.883 47.2803 112.35 48.7045 113.291C49.1276 113.565 49.6421 113.662 50.1357 113.558C50.6294 113.455 51.0621 113.161 51.3396 112.739C51.617 112.318 51.7166 111.804 51.6166 111.31C51.5167 110.816 51.2252 110.381 50.8059 110.101C50.227 109.718 49.8233 109.122 49.6835 108.442C49.5437 107.762 49.6791 107.055 50.0601 106.475L51.781 103.862C52.1629 103.283 52.7596 102.878 53.4396 102.738C54.1196 102.598 54.8274 102.734 55.4072 103.116C55.9869 103.498 56.3912 104.095 56.5311 104.775C56.6709 105.455 56.5349 106.163 56.153 106.743C55.991 106.989 55.8886 107.269 55.8539 107.561C55.847 107.575 55.8389 107.588 55.8325 107.601C55.6169 108.06 55.5923 108.585 55.7639 109.062C55.9356 109.538 56.2896 109.927 56.748 110.143C57.6222 110.554 58.5153 110.964 59.4043 111.361C60.4035 111.955 61.5373 112.285 62.6991 112.32C63.8608 112.354 65.0123 112.093 66.0452 111.56C67.078 111.027 67.9583 110.24 68.6031 109.273C69.248 108.306 69.6362 107.191 69.7312 106.033C70.5346 106.357 71.3926 106.524 72.2589 106.525C72.7935 106.525 73.3263 106.463 73.8465 106.339C75.3182 105.994 76.6343 105.171 77.5901 104C78.5459 102.829 79.0878 101.375 79.1316 99.8637C79.8004 100.08 80.4986 100.19 81.2013 100.191C81.7359 100.191 82.2685 100.128 82.7888 100.005C84.2761 99.6559 85.604 98.8197 86.562 97.6295C87.52 96.4394 88.0532 94.9634 88.077 93.4358C88.5472 93.5378 89.0271 93.5894 89.5083 93.5897C90.0428 93.5894 90.5755 93.5271 91.0957 93.4041C92.4171 93.0928 93.6166 92.3967 94.5425 91.4038C95.4684 90.4109 96.0792 89.1659 96.2976 87.826C96.5161 86.4861 96.3325 85.1115 95.7699 83.8759C95.2074 82.6404 94.2912 81.5993 93.1371 80.8843L57.4804 58.7075H57.4788L57.4721 58.7034C57.4611 58.6965 57.4497 58.6913 57.4385 58.6849C56.2662 57.9593 54.8666 57.6938 53.51 57.9396C52.1534 58.1854 50.936 58.9251 50.0928 60.0159L42.9129 69.2207C42.5094 69.7403 42.007 70.1748 41.4348 70.4994C40.8626 70.8239 40.2318 71.032 39.5788 71.1117C38.9258 71.1913 38.2635 71.141 37.6301 70.9635C36.9966 70.786 36.4045 70.485 35.888 70.0776C35.3714 69.6703 34.9405 69.1648 34.6202 68.5902C34.2999 68.0156 34.0965 67.3833 34.0217 66.7297C33.9468 66.0761 34.0021 65.4142 34.1842 64.7821C34.3664 64.15 34.6718 63.5601 35.083 63.0466L44.405 50.6402C44.878 50.0139 45.4895 49.5055 46.1916 49.1549C46.8938 48.8042 47.6676 48.6208 48.4524 48.6189H63.8116C64.7581 48.6189 65.6868 48.8761 66.4984 49.3631L89.8562 63.3776C90.7883 63.9367 91.8548 64.2321 92.9417 64.2323H101.747V96.9307C101.748 97.8157 102.1 98.6643 102.726 99.2901C103.351 99.9159 104.2 100.268 105.085 100.269H120.089C120.342 100.272 120.592 100.224 120.827 100.13C121.061 100.035 121.274 99.8948 121.453 99.7172C121.633 99.5396 121.776 99.328 121.873 99.0949C121.97 98.8618 122.02 98.6117 122.02 98.359C122.02 98.1064 121.97 97.8563 121.873 97.6232C121.776 97.39 121.633 97.1785 121.453 97.0009C121.274 96.8233 121.061 96.683 120.827 96.5883C120.592 96.4936 120.342 96.4463 120.089 96.4491H120.09ZM38.9846 74.9709C40.3243 74.9711 41.6463 74.6648 42.8493 74.0753C44.0524 73.4859 45.1046 72.6289 45.9255 71.5702L53.1042 62.3627C53.3717 62.0135 53.7599 61.7767 54.1928 61.6985C54.6257 61.6203 55.0722 61.7065 55.445 61.94L55.4503 61.9429L55.4534 61.945L91.1241 84.129C91.4643 84.3394 91.7597 84.6148 91.9935 84.9394C92.2273 85.2641 92.3949 85.6315 92.4866 86.0209C92.5784 86.4103 92.5926 86.8139 92.5284 87.2088C92.4642 87.6036 92.3228 87.9819 92.1124 88.3222C91.9019 88.6624 91.6265 88.9578 91.3019 89.1916C90.9773 89.4254 90.6098 89.593 90.2205 89.6847C89.8311 89.7765 89.4275 89.7907 89.0326 89.7265C88.6378 89.6622 88.2594 89.5209 87.9192 89.3104L84.8244 87.4802L76.4769 82.1167C76.0593 81.8473 75.553 81.7513 75.0657 81.8494C74.5785 81.9474 74.1487 82.2316 73.8677 82.6416C73.5868 83.0516 73.4768 83.5551 73.5613 84.0449C73.6458 84.5347 73.918 84.9722 74.32 85.2644C74.3477 85.2861 74.3774 85.3083 74.4122 85.3304L82.7895 90.7132L82.8171 90.7308C83.5022 91.1567 83.9903 91.837 84.1744 92.6224C84.3585 93.4077 84.2236 94.234 83.7992 94.92C83.3749 95.606 82.6957 96.0957 81.9108 96.2816C81.1258 96.4674 80.2992 96.3344 79.6122 95.9115L75.8712 93.807L69.9478 89.9443C69.7377 89.8072 69.5026 89.7128 69.2561 89.6666C69.0095 89.6203 68.7562 89.6231 68.5107 89.6747C68.0149 89.779 67.5808 90.076 67.3039 90.5003C67.0271 90.9246 66.9301 91.4416 67.0344 91.9374C67.1387 92.4332 67.4356 92.8673 67.86 93.1441L73.8361 97.0412L73.8744 97.0651C74.2146 97.2755 74.5101 97.5509 74.7439 97.8755C74.9776 98.2002 75.1452 98.5677 75.237 98.957C75.3287 99.3464 75.3429 99.7501 75.2786 100.145C75.2144 100.54 75.073 100.918 74.8626 101.258C74.6521 101.599 74.3767 101.894 74.0521 102.128C73.7275 102.362 73.36 102.529 72.9706 102.621C72.1842 102.806 71.3564 102.672 70.6693 102.246L66.5232 99.6823L63.5978 97.6748C63.1933 97.3978 62.6977 97.2869 62.2137 97.3652C61.7297 97.4435 61.2944 97.7049 60.9978 98.0954C60.7013 98.4858 60.5662 98.9754 60.6207 99.4626C60.6751 99.9499 60.9149 100.398 61.2903 100.713C61.327 100.744 61.3699 100.777 61.4161 100.808C61.423 100.813 61.4292 100.819 61.4364 100.824L64.3992 102.857L64.4421 102.883L64.5169 102.932C65.1912 103.351 65.6721 104.019 65.854 104.792C66.036 105.564 65.9043 106.377 65.4876 107.052C65.0622 107.739 64.3815 108.229 63.5952 108.414C62.8089 108.599 61.9812 108.465 61.2939 108.04L61.1848 107.973L61.0678 107.92C60.7227 107.767 60.3767 107.609 60.0322 107.452C60.4126 106.379 60.5018 105.225 60.2905 104.106C60.0792 102.988 59.5751 101.945 58.8296 101.085C58.084 100.225 57.1237 99.5777 56.0465 99.2097C54.9694 98.8417 53.8139 98.7659 52.6979 98.9901C52.3493 97.3302 51.359 95.8753 49.9426 94.9423C48.5262 94.0092 46.7985 93.6737 45.1358 94.0086C44.7872 92.3493 43.7974 90.8949 42.3817 89.9618C40.966 89.0288 39.2391 88.6927 37.5768 89.0266C37.3145 87.7837 36.6902 86.6461 35.7826 85.7573C34.875 84.8684 33.7248 84.2679 32.4766 84.0315C31.2285 83.7951 29.9383 83.9333 28.7685 84.4287C27.5987 84.924 26.6017 85.7545 25.9029 86.8154L25.0113 88.1688H20.2523V63.9435H30.4522C30.1169 65.2463 30.0838 66.6084 30.3554 67.9259C30.6271 69.2434 31.1962 70.4814 32.0194 71.5454C32.8426 72.6093 33.898 73.471 35.1052 74.0647C36.3123 74.6584 37.6391 74.9684 38.9843 74.9709H38.9846Z" fill="#A9D944"/>
<path d="M120.09 96.4491H105.567V59.3173H120.09C120.342 59.3201 120.593 59.2728 120.827 59.178C121.061 59.0833 121.275 58.9431 121.454 58.7655C121.634 58.5878 121.776 58.3763 121.874 58.1432C121.971 57.9101 122.021 57.6599 122.021 57.4073C122.021 57.1547 121.971 56.9046 121.874 56.6714C121.776 56.4383 121.634 56.2268 121.454 56.0492C121.275 55.8715 121.061 55.7313 120.827 55.6366C120.593 55.5419 120.342 55.4945 120.09 55.4974H105.086C104.201 55.4983 103.352 55.8503 102.726 56.4761C102.1 57.1019 101.748 57.9504 101.747 58.8355V60.4129H92.9424C92.5479 60.4131 92.1608 60.306 91.8225 60.1031L68.465 46.0888C67.0594 45.2451 65.4509 44.7994 63.8116 44.7993H48.4524C47.0755 44.8028 45.718 45.1248 44.4862 45.7401C43.2543 46.3554 42.1815 47.2473 41.3517 48.3461L32.3956 60.1234H20.2523V58.8355C20.2513 57.9504 19.8993 57.1019 19.2734 56.4761C18.6476 55.8503 17.7991 55.4983 16.914 55.4974H1.90991C1.6573 55.4945 1.40664 55.5419 1.17244 55.6366C0.938237 55.7313 0.725154 55.8715 0.545524 56.0492C0.365894 56.2268 0.223286 56.4383 0.125958 56.6714C0.0286304 56.9046 -0.0214844 57.1547 -0.0214844 57.4073C-0.0214844 57.6599 0.0286304 57.9101 0.125958 58.1432C0.223286 58.3763 0.365894 58.5878 0.545524 58.7655C0.725154 58.9431 0.938237 59.0833 1.17244 59.178C1.40664 59.2728 1.6573 59.3201 1.90991 59.3173H16.4324V96.4491H1.90991C1.6573 96.4463 1.40664 96.4936 1.17244 96.5883C0.938237 96.683 0.725154 96.8233 0.545524 97.0009C0.365894 97.1785 0.223286 97.39 0.125958 97.6232C0.0286304 97.8563 -0.0214844 98.1064 -0.0214844 98.359C-0.0214844 98.6117 0.0286304 98.8618 0.125958 99.0949C0.223286 99.328 0.365894 99.5396 0.545524 99.7172C0.725154 99.8948 0.938237 100.035 1.17244 100.13C1.40664 100.224 1.6573 100.272 1.90991 100.269H16.914C17.7991 100.268 18.6476 99.9159 19.2734 99.2901C19.8993 98.6643 20.2513 97.8157 20.2523 96.9307V91.9899H23.1956C23.0091 93.2085 23.176 94.4549 23.6763 95.5815C24.1767 96.7081 24.9896 97.6676 26.0187 98.3463C26.4417 98.625 26.9581 98.7242 27.4543 98.6221C27.9504 98.52 28.3857 98.2251 28.6644 97.8021C28.943 97.3791 29.0422 96.8627 28.9402 96.3665C28.8381 95.8704 28.5431 95.4351 28.1201 95.1564C27.5404 94.7745 27.1361 94.1779 26.9962 93.4978C26.8563 92.8178 26.9922 92.1101 27.3741 91.5303L29.0949 88.918C29.4784 88.3419 30.0745 87.9411 30.7526 87.8033C31.4308 87.6655 32.136 87.8018 32.714 88.1825C33.2919 88.5632 33.6956 89.1572 33.8367 89.8347C33.9779 90.5122 33.845 91.2181 33.4672 91.7979L31.7461 94.4104C30.8087 95.8367 30.4755 97.5766 30.8195 99.2484C31.1635 100.92 32.1565 102.387 33.5808 103.328C34.0038 103.606 34.5202 103.705 35.0164 103.603C35.5125 103.501 35.9478 103.206 36.2265 102.783C36.5051 102.36 36.6043 101.844 36.5023 101.348C36.4002 100.852 36.1052 100.416 35.6822 100.138C35.1032 99.7552 34.6995 99.1587 34.5596 98.479C34.4198 97.7992 34.5552 97.0918 34.9362 96.5118L36.657 93.8995C37.041 93.3248 37.6367 92.9252 38.3141 92.788C38.9916 92.6508 39.6958 92.7871 40.2731 93.1672C40.8504 93.5472 41.254 94.1402 41.3958 94.8167C41.5376 95.4932 41.4061 96.1983 41.03 96.7782L39.3091 99.3907C38.3718 100.817 38.0386 102.557 38.3826 104.229C38.7266 105.901 39.7196 107.368 41.1439 108.308C41.3533 108.448 41.5884 108.545 41.8355 108.594C42.0827 108.643 42.337 108.642 42.584 108.592C42.8309 108.542 43.0655 108.444 43.2743 108.303C43.483 108.162 43.6619 107.981 43.8004 107.771C43.939 107.561 44.0346 107.325 44.0817 107.077C44.1288 106.83 44.1265 106.575 44.0749 106.329C44.0233 106.082 43.9234 105.848 43.7811 105.641C43.6387 105.433 43.4566 105.255 43.2453 105.118C42.6663 104.735 42.2626 104.139 42.1228 103.459C41.983 102.78 42.1185 102.072 42.4995 101.492L44.2203 98.8796C44.6021 98.2997 45.1986 97.8952 45.8786 97.7551C46.5586 97.615 47.2664 97.7508 47.8462 98.1326C48.4261 98.5143 48.8306 99.1108 48.9707 99.7908C49.1108 100.471 48.975 101.179 48.5933 101.758L46.8698 104.373C45.9325 105.8 45.5993 107.54 45.9433 109.211C46.2872 110.883 47.2803 112.35 48.7045 113.291C49.1276 113.565 49.6421 113.662 50.1357 113.558C50.6294 113.455 51.0621 113.161 51.3396 112.739C51.617 112.318 51.7166 111.804 51.6166 111.31C51.5167 110.816 51.2252 110.381 50.8059 110.101C50.227 109.718 49.8233 109.122 49.6835 108.442C49.5437 107.762 49.6791 107.055 50.0601 106.475L51.781 103.862C52.1629 103.283 52.7596 102.878 53.4396 102.738C54.1196 102.598 54.8274 102.734 55.4072 103.116C55.9869 103.498 56.3912 104.095 56.5311 104.775C56.6709 105.455 56.5349 106.163 56.153 106.743C55.991 106.989 55.8886 107.269 55.8539 107.561C55.847 107.575 55.8389 107.588 55.8325 107.601C55.6169 108.06 55.5923 108.585 55.7639 109.062C55.9356 109.538 56.2896 109.927 56.748 110.143C57.6222 110.554 58.5153 110.964 59.4043 111.361C60.4035 111.955 61.5373 112.285 62.6991 112.32C63.8608 112.354 65.0123 112.093 66.0452 111.56C67.078 111.027 67.9583 110.24 68.6031 109.273C69.248 108.306 69.6362 107.191 69.7312 106.033C70.5346 106.357 71.3926 106.524 72.2589 106.525C72.7935 106.525 73.3263 106.463 73.8465 106.339C75.3182 105.994 76.6343 105.171 77.5901 104C78.5459 102.829 79.0878 101.375 79.1316 99.8637C79.8004 100.08 80.4986 100.19 81.2013 100.191C81.7359 100.191 82.2685 100.128 82.7888 100.005C84.2761 99.6559 85.604 98.8197 86.562 97.6295C87.52 96.4394 88.0532 94.9634 88.077 93.4358C88.5472 93.5378 89.0271 93.5894 89.5083 93.5897C90.0428 93.5894 90.5755 93.5271 91.0957 93.4041C92.4171 93.0928 93.6166 92.3967 94.5425 91.4038C95.4684 90.4109 96.0792 89.1659 96.2976 87.826C96.5161 86.4861 96.3325 85.1115 95.7699 83.8759C95.2074 82.6404 94.2912 81.5993 93.1371 80.8843L57.4804 58.7075H57.4788L57.4721 58.7034C57.4611 58.6965 57.4497 58.6913 57.4385 58.6849C56.2662 57.9593 54.8666 57.6938 53.51 57.9396C52.1534 58.1854 50.936 58.9251 50.0928 60.0159L42.9129 69.2207C42.5094 69.7403 42.007 70.1748 41.4348 70.4994C40.8626 70.8239 40.2318 71.032 39.5788 71.1117C38.9258 71.1913 38.2635 71.141 37.6301 70.9635C36.9966 70.786 36.4045 70.485 35.888 70.0776C35.3714 69.6703 34.9405 69.1648 34.6202 68.5902C34.2999 68.0156 34.0965 67.3833 34.0217 66.7297C33.9468 66.0761 34.0021 65.4142 34.1842 64.7821C34.3664 64.15 34.6718 63.5601 35.083 63.0466L44.405 50.6402C44.878 50.0139 45.4895 49.5055 46.1916 49.1549C46.8938 48.8042 47.6676 48.6208 48.4524 48.6189H63.8116C64.7581 48.6189 65.6868 48.8761 66.4984 49.3631L89.8562 63.3776C90.7883 63.9367 91.8548 64.2321 92.9417 64.2323H101.747V96.9307C101.748 97.8157 102.1 98.6643 102.726 99.2901C103.351 99.9159 104.2 100.268 105.085 100.269H120.089C120.342 100.272 120.592 100.224 120.827 100.13C121.061 100.035 121.274 99.8948 121.453 99.7172C121.633 99.5396 121.776 99.328 121.873 99.0949C121.97 98.8618 122.02 98.6117 122.02 98.359C122.02 98.1064 121.97 97.8563 121.873 97.6232C121.776 97.39 121.633 97.1785 121.453 97.0009C121.274 96.8233 121.061 96.683 120.827 96.5883C120.592 96.4936 120.342 96.4463 120.089 96.4491H120.09ZM38.9846 74.9709C40.3243 74.9711 41.6463 74.6648 42.8493 74.0753C44.0524 73.4859 45.1046 72.6289 45.9255 71.5702L53.1042 62.3627C53.3717 62.0135 53.7599 61.7767 54.1928 61.6985C54.6257 61.6203 55.0722 61.7065 55.445 61.94L55.4503 61.9429L55.4534 61.945L91.1241 84.129C91.4643 84.3394 91.7597 84.6148 91.9935 84.9394C92.2273 85.2641 92.3949 85.6315 92.4866 86.0209C92.5784 86.4103 92.5926 86.8139 92.5284 87.2088C92.4642 87.6036 92.3228 87.9819 92.1124 88.3222C91.9019 88.6624 91.6265 88.9578 91.3019 89.1916C90.9773 89.4254 90.6098 89.593 90.2205 89.6847C89.8311 89.7765 89.4275 89.7907 89.0326 89.7265C88.6378 89.6622 88.2594 89.5209 87.9192 89.3104L84.8244 87.4802L76.4769 82.1167C76.0593 81.8473 75.553 81.7513 75.0657 81.8494C74.5785 81.9474 74.1487 82.2316 73.8677 82.6416C73.5868 83.0516 73.4768 83.5551 73.5613 84.0449C73.6458 84.5347 73.918 84.9722 74.32 85.2644C74.3477 85.2861 74.3774 85.3083 74.4122 85.3304L82.7895 90.7132L82.8171 90.7308C83.5022 91.1567 83.9903 91.837 84.1744 92.6224C84.3585 93.4077 84.2236 94.234 83.7992 94.92C83.3749 95.606 82.6957 96.0957 81.9108 96.2816C81.1258 96.4674 80.2992 96.3344 79.6122 95.9115L75.8712 93.807L69.9478 89.9443C69.7377 89.8072 69.5026 89.7128 69.2561 89.6666C69.0095 89.6203 68.7562 89.6231 68.5107 89.6747C68.0149 89.779 67.5808 90.076 67.3039 90.5003C67.0271 90.9246 66.9301 91.4416 67.0344 91.9374C67.1387 92.4332 67.4356 92.8673 67.86 93.1441L73.8361 97.0412L73.8744 97.0651C74.2146 97.2755 74.5101 97.5509 74.7439 97.8755C74.9776 98.2002 75.1452 98.5677 75.237 98.957C75.3287 99.3464 75.3429 99.7501 75.2786 100.145C75.2144 100.54 75.073 100.918 74.8626 101.258C74.6521 101.599 74.3767 101.894 74.0521 102.128C73.7275 102.362 73.36 102.529 72.9706 102.621C72.1842 102.806 71.3564 102.672 70.6693 102.246L66.5232 99.6823L63.5978 97.6748C63.1933 97.3978 62.6977 97.2869 62.2137 97.3652C61.7297 97.4435 61.2944 97.7049 60.9978 98.0954C60.7013 98.4858 60.5662 98.9754 60.6207 99.4626C60.6751 99.9499 60.9149 100.398 61.2903 100.713C61.327 100.744 61.3699 100.777 61.4161 100.808C61.423 100.813 61.4292 100.819 61.4364 100.824L64.3992 102.857L64.4421 102.883L64.5169 102.932C65.1912 103.351 65.6721 104.019 65.854 104.792C66.036 105.564 65.9043 106.377 65.4876 107.052C65.0622 107.739 64.3815 108.229 63.5952 108.414C62.8089 108.599 61.9812 108.465 61.2939 108.04L61.1848 107.973L61.0678 107.92C60.7227 107.767 60.3767 107.609 60.0322 107.452C60.4126 106.379 60.5018 105.225 60.2905 104.106C60.0792 102.988 59.5751 101.945 58.8296 101.085C58.084 100.225 57.1237 99.5777 56.0465 99.2097C54.9694 98.8417 53.8139 98.7659 52.6979 98.9901C52.3493 97.3302 51.359 95.8753 49.9426 94.9423C48.5262 94.0092 46.7985 93.6737 45.1358 94.0086C44.7872 92.3493 43.7974 90.8949 42.3817 89.9618C40.966 89.0288 39.2391 88.6927 37.5768 89.0266C37.3145 87.7837 36.6902 86.6461 35.7826 85.7573C34.875 84.8684 33.7248 84.2679 32.4766 84.0315C31.2285 83.7951 29.9383 83.9333 28.7685 84.4287C27.5987 84.924 26.6017 85.7545 25.9029 86.8154L25.0113 88.1688H20.2523V63.9435H30.4522C30.1169 65.2463 30.0838 66.6084 30.3554 67.9259C30.6271 69.2434 31.1962 70.4814 32.0194 71.5454C32.8426 72.6093 33.898 73.471 35.1052 74.0647C36.3123 74.6584 37.6391 74.9684 38.9843 74.9709H38.9846Z" stroke="#A9D944" stroke-width="4" mask="url(#path-1-outside-1_4612_10015)"/>
<path d="M61.0918 7.3726C61.4767 7.37262 61.8577 7.44894 62.2129 7.59721C62.5681 7.7455 62.8905 7.9632 63.1611 8.23686C63.4316 8.51046 63.6448 8.83526 63.7891 9.19194C63.932 9.54534 64.0048 9.92314 64.002 10.3042V18.9869C64.002 19.369 63.9265 19.748 63.7803 20.1011C63.6341 20.454 63.4195 20.7744 63.1494 21.0445C62.8792 21.3147 62.5581 21.5291 62.2051 21.6753C61.8521 21.8215 61.4739 21.897 61.0918 21.897C60.7097 21.897 60.3315 21.8215 59.9785 21.6753C59.6254 21.5291 59.3044 21.3147 59.0342 21.0445C58.764 20.7742 58.5495 20.4532 58.4033 20.1001C58.2572 19.7471 58.1816 19.3689 58.1816 18.9869V10.3042C58.1788 9.92323 58.2507 9.54526 58.3936 9.19194C58.5378 8.83523 58.7519 8.51049 59.0225 8.23686C59.2931 7.96319 59.6155 7.7455 59.9707 7.59721C60.3258 7.44896 60.707 7.3726 61.0918 7.3726Z" fill="#A9D944" stroke="#A9D944" stroke-width="2"/>
<path d="M80.9072 15.8623C81.679 15.8623 82.4191 16.1691 82.9648 16.7148C83.5105 17.2606 83.8174 18.0007 83.8174 18.7725C83.8173 19.5442 83.5106 20.2844 82.9648 20.8301L76.8252 26.9688C76.555 27.2395 76.2343 27.4552 75.8809 27.6016C75.5279 27.7477 75.1495 27.8216 74.7676 27.8213V27.8223C74.192 27.8222 73.6289 27.6518 73.1504 27.332C72.6719 27.0123 72.2993 26.5571 72.0791 26.0254C71.859 25.4938 71.8009 24.909 71.9131 24.3447C72.0254 23.7803 72.303 23.2615 72.71 22.8545L78.8496 16.7148C79.3954 16.1691 80.1355 15.8623 80.9072 15.8623Z" fill="#A9D944" stroke="#A9D944" stroke-width="2"/>
<path d="M40.8535 15.8519C41.2375 15.8534 41.6177 15.9305 41.9717 16.0795C42.3231 16.2274 42.6409 16.4443 42.9092 16.7152L42.9102 16.7142L49.0508 22.8539C49.321 23.1241 49.5354 23.4452 49.6816 23.7982C49.8279 24.1513 49.9033 24.5303 49.9033 24.9125C49.9033 25.2945 49.8278 25.6728 49.6816 26.0258C49.5354 26.3788 49.321 26.6999 49.0508 26.9701C48.7806 27.2403 48.4594 27.4547 48.1064 27.601C47.7535 27.7471 47.3752 27.8226 46.9932 27.8226C46.6112 27.8226 46.2328 27.7471 45.8799 27.601C45.5269 27.4547 45.2058 27.2402 44.9355 26.9701L38.7959 20.8304L38.7969 20.8295C38.5257 20.5611 38.3092 20.2427 38.1611 19.891C38.0122 19.5372 37.9342 19.1577 37.9326 18.7738C37.9311 18.3898 38.0061 18.0088 38.1523 17.6537C38.2986 17.2987 38.5137 16.976 38.7852 16.7045C39.0567 16.433 39.3794 16.2179 39.7344 16.0717C40.0894 15.9254 40.4696 15.8505 40.8535 15.8519Z" fill="#A9D944" stroke="#A9D944" stroke-width="2"/>
<path d="M41.6455 32.7248V32.7258C42.0265 32.7229 42.4045 32.7938 42.7578 32.9367C43.1146 33.081 43.4393 33.295 43.7129 33.5656C43.9866 33.8362 44.2043 34.1587 44.3525 34.5138C44.5008 34.869 44.5771 35.2501 44.5771 35.6349C44.5771 36.0198 44.5008 36.4009 44.3525 36.756C44.2043 37.1112 43.9866 37.4336 43.7129 37.7043C43.4393 37.9748 43.1145 38.1879 42.7578 38.3322C42.4044 38.4751 42.0266 38.5469 41.6455 38.5441L32.9629 38.5451V38.5441C32.5818 38.5469 32.204 38.4751 31.8506 38.3322C31.4939 38.1879 31.1691 37.9748 30.8955 37.7043C30.6218 37.4336 30.4041 37.1112 30.2559 36.756C30.1076 36.4009 30.0313 36.0198 30.0312 35.6349C30.0312 35.2501 30.1076 34.869 30.2559 34.5138C30.4041 34.1587 30.6218 33.8362 30.8955 33.5656C31.1691 33.2951 31.4939 33.081 31.8506 32.9367C32.2039 32.7939 32.5819 32.7229 32.9629 32.7258V32.7248H41.6455Z" fill="#A9D944" stroke="#A9D944" stroke-width="2"/>
<path d="M89.6426 32.7248V32.7258C90.0236 32.7229 90.4016 32.7939 90.7549 32.9367C91.1116 33.081 91.4363 33.2951 91.71 33.5656C91.9836 33.8362 92.2013 34.1587 92.3496 34.5138C92.4979 34.869 92.5742 35.2501 92.5742 35.6349C92.5742 36.0198 92.4979 36.4009 92.3496 36.756C92.2013 37.1112 91.9836 37.4336 91.71 37.7043C91.4364 37.9748 91.1116 38.188 90.7549 38.3322C90.4015 38.4751 90.0237 38.5469 89.6426 38.5441L80.96 38.5451C80.1883 38.545 79.448 38.2382 78.9023 37.6926C78.3567 37.1469 78.0499 36.4066 78.0498 35.6349C78.05 34.8633 78.3567 34.1229 78.9023 33.5773C79.448 33.0317 80.1883 32.7249 80.96 32.7248H89.6426Z" fill="#A9D944" stroke="#A9D944" stroke-width="2"/>
</g>
<defs>
<clipPath id="clip0_4612_10015">
<rect width="122" height="122" fill="white"/>
</clipPath>
</defs>
</svg>
