<svg width="40" height="53" viewBox="0 0 40 53" fill="none" xmlns="http://www.w3.org/2000/svg">
<path d="M32.286 26.0702C31.2859 27.2081 29.9236 27.8161 28.5613 28.4241C26.7012 29.2543 27.9881 32.1376 29.8482 31.3074C31.7606 30.4539 33.4719 29.5015 34.8528 27.8793C36.164 26.3825 33.6234 24.5617 32.286 26.0702Z" fill="#D3D5CF"/>
<path d="M0.567141 38.8802C-2.82232 27.7677 9.8005 13.0706 16.6963 17.9697C22.1896 21.9128 15.7613 27.7677 17.7482 34.3396C19.7351 40.9115 25.4621 46.0495 19.0339 48.0808C12.6056 50.2316 3.72285 49.1562 0.567141 38.8802Z" fill="#A9D944"/>
<path d="M33.5 13.9999C29.9059 13.9999 27 10.8613 27 6.97926C27 3.13855 29.9059 -9.15527e-05 33.5 -9.15527e-05C37.0941 -9.15527e-05 40 3.13855 40 7.02056C39.9618 10.8613 37.0559 13.9999 33.5 13.9999ZM33.5 0.908463C30.3647 0.908463 27.8412 3.63413 27.8412 7.02056C27.8412 10.3657 30.3647 13.1327 33.5 13.1327C36.6353 13.1327 39.1206 10.3657 39.1206 7.02056C39.1206 3.63413 36.5971 0.908463 33.5 0.908463Z" fill="#A9D944"/>
<path d="M36 50.9993C36 52.0934 35.1028 52.9988 34.0187 52.9988C32.8972 53.0365 32 52.1311 32 50.9993C32 49.9053 32.8972 48.9999 33.9813 48.9999C35.1028 48.9999 36 49.9053 36 50.9993Z" fill="#A9D944"/>
</svg>
