<svg width="667" height="925" viewBox="0 0 667 925" fill="none" xmlns="http://www.w3.org/2000/svg">
<g opacity="0.2" clip-path="url(#clip0_6029_1128)">
<path d="M335.675 567.939C338.855 571.164 342.945 571.04 347.149 570.615C349.82 570.376 349.171 566.228 346.516 566.501C344.014 566.747 340.805 567.267 338.841 565.281C337.043 563.388 333.811 565.992 335.675 567.939Z" fill="#333333"/>
<path d="M377.318 541.804C374.441 545.203 370.584 548.169 366.122 549.04C363.49 549.551 364.124 553.665 366.756 553.154C372.362 552.062 377.076 548.506 380.67 544.206C382.42 542.181 379.017 539.76 377.318 541.804Z" fill="#333333"/>
<path d="M388.953 500.072C388.711 504.825 388.066 509.509 387.825 514.262C387.691 516.935 391.839 517.406 391.973 514.733C392.214 509.98 392.859 505.296 393.101 500.543C393.234 497.87 389.086 497.399 388.953 500.072Z" fill="#333333"/>
<path d="M398.05 462.873C394.898 466.768 393.294 470.885 394.141 475.94C394.584 478.604 398.696 477.972 398.253 475.308C397.581 471.294 398.944 468.405 401.453 465.294C403.121 463.181 399.719 460.759 398.05 462.873Z" fill="#333333"/>
<path d="M414.789 416.789C411.789 422.234 408.939 427.736 405.939 433.181C404.652 435.498 408.035 437.969 409.341 435.603C412.341 430.158 415.192 424.655 418.192 419.21C419.479 416.894 416.111 414.457 414.789 416.789Z" fill="#333333"/>
<path d="M429.681 382.354C429.209 385.012 433.342 385.448 433.829 382.825C434.438 379.36 435.8 375.724 439.176 374.093C441.599 372.929 439.901 369.124 437.478 370.289C432.7 372.587 430.594 377.343 429.681 382.354Z" fill="#333333"/>
<path d="M462.614 334.475C460.002 337.632 457.193 340.254 453.441 341.971C451.002 343.101 452.7 346.905 455.139 345.775C459.567 343.716 462.906 340.608 466.001 336.862C467.716 334.853 464.348 332.416 462.614 334.475Z" fill="#333333"/>
<path d="M97.6284 323.806C99.6916 325.457 101.957 326.353 104.629 326.488C107.3 326.623 107.77 322.473 105.098 322.339C102.968 322.211 101.734 321.767 100.098 320.423C97.9347 318.734 95.5498 322.121 97.6284 323.806Z" fill="#333333"/>
<path d="M67.0089 297.74C68.5909 301.098 71.0856 303.344 74.5167 304.716C77.0323 305.709 78.4899 301.823 76.0089 300.815C73.5933 299.861 71.911 298.414 70.8113 296.043C69.6807 293.602 65.8784 295.3 67.0089 297.74Z" fill="#333333"/>
<path d="M53.4039 255.369C53.3666 258.165 54.5897 260.813 54.5715 263.558C54.557 266.219 58.6707 266.705 58.7198 264.029C58.7571 261.234 57.534 258.586 57.5522 255.841C57.5667 253.18 53.4184 252.709 53.4039 255.369Z" fill="#333333"/>
<path d="M59.356 219.574C56.9108 223.569 55.2119 227.936 54.3821 232.578C53.9102 235.236 58.0431 235.672 58.5304 233.049C59.2423 229.164 60.6617 225.379 62.7391 222.046C64.1457 219.718 60.7626 217.246 59.356 219.574Z" fill="#333333"/>
<path d="M68.9256 199.128C67.2419 201.207 70.644 203.628 72.3278 201.55C74.138 199.29 75.7248 196.716 78.3901 195.443C80.7981 194.244 79.1001 190.44 76.6921 191.639C73.2818 193.285 71.2037 196.245 68.9256 199.128Z" fill="#333333"/>
<path d="M105.225 178.945C103.183 180.686 105.822 183.904 107.864 182.164C110.573 179.876 114.29 179.379 117.695 179.02C120.385 178.732 119.716 174.634 117.061 174.907C112.906 175.351 108.499 176.157 105.225 178.945Z" fill="#333333"/>
<path d="M136.724 184.877C138.509 185.532 140.476 185.483 142.261 186.139C144.78 187.046 146.273 183.145 143.753 182.238C141.969 181.582 140.001 181.631 138.216 180.976C135.662 180.084 134.17 183.985 136.724 184.877Z" fill="#333333"/>
<path d="M154.651 195.788C157.921 199.306 161.877 202.227 166.359 204.001C168.874 204.993 170.332 201.108 167.851 200.1C164.02 198.575 160.652 196.138 157.852 193.115C156.073 191.172 152.807 193.791 154.651 195.788Z" fill="#333333"/>
<path d="M175.869 215.558C177.645 219.535 179.412 223.682 182.301 226.996C184.077 229.024 187.293 226.385 185.517 224.358C182.837 221.324 181.308 217.527 179.687 213.895C178.576 211.405 174.773 213.102 175.869 215.558Z" fill="#333333"/>
<path d="M194.484 243.333C195.665 246.165 195.97 249.264 197.152 252.096C198.178 254.583 201.981 252.885 200.954 250.399C199.773 247.567 199.467 244.468 198.286 241.636C197.225 239.165 193.423 240.862 194.484 243.333Z" fill="#333333"/>
<path d="M214.471 282.356C214.935 286.089 217.209 289.139 221.145 289.415C223.832 289.584 224.267 285.45 221.614 285.265C219.519 285.122 218.836 283.685 218.583 281.724C218.259 279.048 214.113 279.696 214.471 282.356Z" fill="#333333"/>
<path d="M238.166 307.118C243.264 309.902 248.514 311.914 254.167 313.248C256.801 313.856 257.186 309.702 254.636 309.098C249.737 307.967 245.037 306.166 240.635 303.734C238.285 302.461 235.815 305.844 238.166 307.118Z" fill="#333333"/>
<path d="M278.853 318.405C282.625 318.961 285.729 318.115 289.167 316.622C291.621 315.527 289.923 311.722 287.469 312.818C284.703 314.052 282.402 314.747 279.338 314.29C276.627 313.882 276.192 318.017 278.853 318.405Z" fill="#333333"/>
<path d="M311.96 303.421C310.143 306.223 307.922 308.583 304.861 309.991C302.422 311.121 304.12 314.925 306.559 313.795C310.261 312.06 313.112 309.253 315.347 305.808C316.815 303.618 313.432 301.147 311.96 303.421Z" fill="#333333"/>
<path d="M326.68 287.27C325.762 289.671 324.871 292.226 324.706 294.829C324.538 297.517 328.671 297.954 328.854 295.3C329.004 293.035 329.742 290.881 330.546 288.78C331.521 286.229 327.621 284.735 326.68 287.27Z" fill="#333333"/>
<path d="M365.119 751.304C363.8 752.806 362.002 753.608 360.205 754.41C357.751 755.506 359.449 759.31 361.903 758.215C364.426 757.088 366.684 755.832 368.506 753.691C370.236 751.716 366.884 749.314 365.119 751.304Z" fill="#333333"/>
<path d="M334.972 748.958C335.102 748.692 334.631 749.401 334.807 749.239C334.524 749.531 334.174 749.77 333.825 750.009C333.633 750.136 332.838 750.491 332.388 750.692C329.934 751.787 331.632 755.591 334.086 754.496C336.057 753.617 337.969 752.514 338.872 750.452C339.964 747.974 336.063 746.48 334.972 748.958Z" fill="#333333"/>
<path d="M295.806 745.536C298.134 747.316 301.002 747.612 303.843 747.755C306.515 747.889 306.984 743.74 304.312 743.605C302.198 743.512 299.996 743.5 298.275 742.152C296.093 740.513 293.673 743.916 295.806 745.536Z" fill="#333333"/>
<path d="M264.228 725.496C266.801 728.288 269.373 731.079 272.935 732.559C275.432 733.601 276.889 729.716 274.428 728.658C271.581 727.481 269.467 725.066 267.429 722.823C265.65 720.88 262.434 723.518 264.228 725.496Z" fill="#333333"/>
<path d="M243.099 697.101C243.081 700.22 244.228 703.067 245.459 705.919C246.555 708.374 250.357 706.677 249.261 704.222C248.335 702.147 247.197 699.876 247.213 697.588C247.246 694.877 243.098 694.406 243.099 697.101Z" fill="#333333"/>
<path d="M234.889 656.139C231.509 659.431 229.887 663.971 229.095 668.513C228.623 671.17 232.756 671.607 233.244 668.984C233.849 665.603 235.03 661.841 237.543 659.392C239.439 657.509 236.8 654.291 234.889 656.139Z" fill="#333333"/>
<path d="M241.756 626.944C238.487 630.021 236.337 633.842 235.484 638.246C234.962 640.885 239.13 641.306 239.632 638.717C240.268 635.406 241.974 632.447 244.395 630.163C246.321 628.349 243.717 625.115 241.756 626.944Z" fill="#333333"/>
</g>
<path d="M276.386 889.579C268.1 862.859 298.957 827.519 315.814 839.299C329.243 848.78 313.529 862.859 318.386 878.661C323.243 894.463 337.243 906.818 321.529 911.702C305.814 916.873 284.1 914.288 276.386 889.579Z" fill="#A9D944"/>
<path d="M355.958 828.9C346.558 828.9 338.958 821.3 338.958 811.9C338.958 802.6 346.558 795 355.958 795C365.358 795 372.958 802.6 372.958 812C372.858 821.3 365.258 828.9 355.958 828.9ZM355.958 797.2C347.758 797.2 341.158 803.8 341.158 812C341.158 820.1 347.758 826.8 355.958 826.8C364.158 826.8 370.658 820.1 370.658 812C370.658 803.8 364.058 797.2 355.958 797.2Z" fill="#A9D944"/>
<path d="M361.658 919.3C361.658 922.2 359.258 924.6 356.358 924.6C353.358 924.7 350.958 922.3 350.958 919.3C350.958 916.4 353.358 914 356.258 914C359.258 914 361.658 916.4 361.658 919.3Z" fill="#A9D944"/>
<defs>
<clipPath id="clip0_6029_1128">
<rect width="778" height="382.798" fill="white" transform="translate(317.092 866.598) rotate(-114.052)"/>
</clipPath>
</defs>
</svg>
