<svg width="35" height="35" viewBox="0 0 35 35" fill="none" xmlns="http://www.w3.org/2000/svg">
<path d="M14.7295 0.75C22.435 0.75 28.7089 7.01713 28.709 14.7295C28.709 18.2019 27.4341 21.3703 25.3389 23.8164L33.9336 32.4043L34.0078 32.4863C34.3539 32.9101 34.3291 33.5312 33.9336 33.9268C33.7229 34.1374 33.4491 34.2432 33.1689 34.2432C32.8887 34.2432 32.615 34.1374 32.4043 33.9268L23.8164 25.3389C21.37 27.4342 18.1952 28.709 14.7295 28.709C7.02404 28.7089 0.75 22.4419 0.75 14.7295C0.750128 7.01721 7.02412 0.750129 14.7295 0.75ZM14.7295 2.90527C8.21235 2.9054 2.9054 8.21235 2.90527 14.7295C2.90527 21.2467 8.21227 26.5536 14.7295 26.5537C21.2468 26.5537 26.5537 21.2468 26.5537 14.7295C26.5536 8.2056 21.2468 2.90527 14.7295 2.90527Z" fill="#200501" stroke="#200501" stroke-width="0.5"/>
</svg>
