<svg width="122" height="85" viewBox="0 0 122 85" fill="none" xmlns="http://www.w3.org/2000/svg">
<path d="M120.213 80.8091H114.36V38.5343C117.685 37.9528 120.09 35.7749 120.09 33.1008V29.2941C120.09 29.0733 120.048 28.8647 119.976 28.6699L119.976 28.668L114.36 13.7438V4.54901C114.36 2.51768 112.701 0.864796 110.663 0.864796H11.3379C9.29855 0.864796 7.64082 2.51768 7.64082 4.54901V13.7438L2.02353 28.668L2.02539 28.6699C1.95186 28.8647 1.90997 29.0743 1.90997 29.2941V33.1008C1.90997 35.7749 4.31606 37.9528 7.64082 38.5343V80.8091H1.78711C0.800476 80.8091 0 81.6068 0 82.59C0 83.5732 0.800476 84.3709 1.78711 84.3709H120.213C121.2 84.3709 122 83.5732 122 82.59C122 81.6068 121.2 80.8091 120.213 80.8091ZM22.6749 71.0467H42.0222V80.8091H22.6749V71.0467ZM39.8665 31.075H47.7521V33.1008C47.7521 33.9263 46.2163 35.1265 43.8093 35.1265C41.4023 35.1265 39.8665 33.9263 39.8665 33.1008V31.075ZM45.5964 38.5343C47.1694 38.2588 48.5358 37.6263 49.5392 36.7525C49.5811 36.7887 49.6221 36.8258 49.6649 36.8601C49.6649 36.8759 49.6621 36.8916 49.6621 36.9074V69.2658C49.6621 70.249 50.4626 71.0467 51.4492 71.0467H101.112C102.099 71.0467 102.899 70.249 102.899 69.2658V38.5343C104.471 38.2588 105.838 37.6263 106.842 36.7525C107.846 37.6263 109.212 38.2588 110.785 38.5343V80.8091H45.5964V38.5343ZM70.6737 33.1008C70.6737 33.9263 69.1369 35.1265 66.7309 35.1265C64.3238 35.1265 62.7871 33.9263 62.7871 33.1008V31.075H70.6737V33.1008ZM66.7299 38.6883C69.0504 38.6883 71.0916 37.9435 72.4608 36.7525C73.829 37.9435 75.8702 38.6883 78.1907 38.6883C80.5102 38.6883 82.5524 37.9435 83.9206 36.7525C85.2889 37.9435 87.331 38.6883 89.6505 38.6883C91.971 38.6883 94.0131 37.9435 95.3814 36.7525C96.3857 37.6263 97.7512 38.2588 99.3242 38.5343V59.8716H53.2363V38.4879C53.8813 38.6178 54.5618 38.6883 55.2691 38.6883C57.5896 38.6883 59.6317 37.9435 61 36.7525C62.3683 37.9435 64.4104 38.6883 66.7299 38.6883ZM82.1335 33.1008C82.1335 33.9263 80.5977 35.1265 78.1907 35.1265C75.7837 35.1265 74.2479 33.9263 74.2479 33.1008V31.075H82.1344V33.1008H82.1335ZM93.5943 33.1008C93.5943 33.9263 92.0585 35.1265 89.6515 35.1265C87.2444 35.1265 85.7086 33.9263 85.7086 33.1008V31.075H93.5943V33.1008ZM105.055 33.1008C105.055 33.9263 103.519 35.1265 101.112 35.1265C98.7052 35.1265 97.1685 33.9263 97.1685 33.1008V31.075H105.055V33.1008ZM53.2363 63.4334H99.3251V67.4849H53.2363V63.4334ZM59.2129 33.1008C59.2129 33.9263 57.6771 35.1265 55.2701 35.1265C52.8631 35.1265 51.3263 33.9263 51.3263 33.1008V31.075H59.2129V33.1008ZM116.516 33.1008C116.516 33.9263 114.979 35.1265 112.573 35.1265C110.166 35.1265 108.629 33.9263 108.629 33.1008V31.075H116.516V33.1008ZM11.3379 4.42658H110.663C110.73 4.42658 110.786 4.4813 110.786 4.54901V12.2848H108.752C107.765 12.2848 106.965 13.0824 106.965 14.0656C106.965 15.0498 107.765 15.8465 108.752 15.8465H111.334L115.724 27.5132H6.27629L10.6659 15.8465H101.111C102.099 15.8465 102.898 15.0498 102.898 14.0656C102.898 13.0824 102.099 12.2848 101.111 12.2848H11.2141V4.54901C11.2141 4.4813 11.27 4.42658 11.3379 4.42658ZM28.4057 31.075H36.2914V33.1008C36.2914 33.9263 34.7556 35.1265 32.3485 35.1265C29.9415 35.1265 28.4057 33.9263 28.4057 33.1008V31.075ZM20.8878 35.1265C18.4808 35.1265 16.945 33.9263 16.945 33.1008V31.075H24.8315V33.1008C24.8315 33.9263 23.2948 35.1265 20.8878 35.1265ZM5.48419 33.1008V31.075H13.3707V33.1008C13.3707 33.9263 11.834 35.1265 9.42793 35.1265C7.02092 35.1265 5.48419 33.9263 5.48419 33.1008ZM11.2141 38.5343C12.7871 38.2588 14.1535 37.6263 15.1579 36.7525C16.1612 37.6263 17.5276 38.2588 19.1007 38.5343V57.8459C19.1007 58.8291 19.9011 59.6267 20.8878 59.6267C21.8744 59.6267 22.6749 58.8291 22.6749 57.8459V38.5343C24.2479 38.2588 25.6143 37.6263 26.6177 36.7525C27.9859 37.9435 30.0281 38.6883 32.3485 38.6883C34.6681 38.6883 36.7102 37.9435 38.0785 36.7525C39.0828 37.6263 40.4492 38.2588 42.0213 38.5343V67.4849H22.6749V65.4592C22.6749 64.476 21.8753 63.6783 20.8878 63.6783C19.9011 63.6783 19.1007 64.476 19.1007 65.4592V80.8091H11.2141V38.5343Z" fill="#A9D944"/>
</svg>
