<svg width="122" height="122" viewBox="0 0 122 122" fill="none" xmlns="http://www.w3.org/2000/svg">
<g clip-path="url(#clip0_4612_9759)">
<path d="M112.961 80.6944H9.04004V119.617H112.961V80.6944Z" stroke="#A9D944" stroke-width="7" stroke-miterlimit="10" stroke-linecap="round" stroke-linejoin="round"/>
<path d="M89.7417 100.288C89.7417 107.73 86.9117 114.512 82.2709 119.617H39.7286C35.0881 114.512 32.2578 107.73 32.2578 100.288C32.2578 92.7143 35.188 85.8272 39.9762 80.6935H82.0231C86.8116 85.8272 89.7417 92.7143 89.7417 100.288Z" stroke="#A9D944" stroke-width="7" stroke-miterlimit="10" stroke-linecap="round" stroke-linejoin="round"/>
<path d="M14.1173 43.6996C7.64415 43.6996 2.39648 38.4522 2.39648 31.979V24.8356H25.8379V31.979C25.8379 38.4522 20.5904 43.6996 14.1173 43.6996Z" stroke="#A9D944" stroke-width="7" stroke-miterlimit="10" stroke-linecap="round" stroke-linejoin="round"/>
<path d="M37.5587 43.6996C31.0856 43.6996 25.8379 38.4522 25.8379 31.979V24.8356H49.2793V31.979C49.2795 38.4522 44.0319 43.6996 37.5587 43.6996Z" stroke="#A9D944" stroke-width="7" stroke-miterlimit="10" stroke-linecap="round" stroke-linejoin="round"/>
<path d="M61.0001 43.6996C54.527 43.6996 49.2793 38.4522 49.2793 31.979V24.8356H72.7207V31.979C72.7209 38.4522 67.4733 43.6996 61.0001 43.6996Z" stroke="#A9D944" stroke-width="7" stroke-miterlimit="10" stroke-linecap="round" stroke-linejoin="round"/>
<path d="M84.4415 43.6996C77.9684 43.6996 72.7207 38.4522 72.7207 31.979V24.8356H96.1621V31.979C96.1623 38.4522 90.9147 43.6996 84.4415 43.6996Z" stroke="#A9D944" stroke-width="7" stroke-miterlimit="10" stroke-linecap="round" stroke-linejoin="round"/>
<path d="M107.883 43.6996C101.41 43.6996 96.1621 38.4522 96.1621 31.979V24.8356H119.603V31.979C119.604 38.4522 114.356 43.6996 107.883 43.6996Z" stroke="#A9D944" stroke-width="7" stroke-miterlimit="10" stroke-linecap="round" stroke-linejoin="round"/>
<path d="M2.39648 24.8356L26.6566 4.26786C28.092 3.05071 29.913 2.38281 31.7949 2.38281H42.56L25.8379 24.8356H2.39648Z" stroke="#A9D944" stroke-width="7" stroke-miterlimit="10" stroke-linecap="round" stroke-linejoin="round"/>
<path d="M66.4277 2.38281H55.5721L49.2793 24.8356H72.7207L66.4277 2.38281Z" stroke="#A9D944" stroke-width="7" stroke-miterlimit="10" stroke-linecap="round" stroke-linejoin="round"/>
<path d="M42.56 2.38281H55.5723L49.2795 24.8356H25.8379L42.56 2.38281Z" stroke="#A9D944" stroke-width="7" stroke-miterlimit="10" stroke-linecap="round" stroke-linejoin="round"/>
<path d="M119.603 24.8356L95.3431 4.26786C93.9074 3.05071 92.0865 2.38281 90.2045 2.38281H79.4395L96.1616 24.8356H119.603Z" stroke="#A9D944" stroke-width="7" stroke-miterlimit="10" stroke-linecap="round" stroke-linejoin="round"/>
<path d="M79.44 2.38281H66.4277L72.7207 24.8356H96.1621L79.44 2.38281Z" stroke="#A9D944" stroke-width="7" stroke-miterlimit="10" stroke-linecap="round" stroke-linejoin="round"/>
<path d="M50.3403 70.4379H7.52477C4.69256 70.4379 2.39648 72.7339 2.39648 75.5661C2.39648 78.3984 4.69256 80.6944 7.52477 80.6944H114.475C117.307 80.6944 119.603 78.3984 119.603 75.5661C119.603 72.7339 117.307 70.4379 114.475 70.4379H71.7566" stroke="#A9D944" stroke-width="7" stroke-miterlimit="10" stroke-linecap="round" stroke-linejoin="round"/>
<path d="M14.1172 43.6996V70.4378" stroke="#A9D944" stroke-width="7" stroke-miterlimit="10" stroke-linecap="round" stroke-linejoin="round"/>
<path d="M107.883 43.6996V70.4378" stroke="#A9D944" stroke-width="7" stroke-miterlimit="10" stroke-linecap="round" stroke-linejoin="round"/>
<path d="M60.5264 111.214V100.765" stroke="#A9D944" stroke-width="7" stroke-miterlimit="10" stroke-linecap="round" stroke-linejoin="round"/>
<path d="M70.7213 103.73C74.9944 99.4569 73.9731 93.6419 73.9731 93.6419C73.9731 93.6419 68.1581 92.6206 63.885 96.8937C59.6119 101.167 60.6332 106.982 60.6332 106.982C60.6332 106.982 66.4482 108.003 70.7213 103.73Z" stroke="#A9D944" stroke-width="7" stroke-miterlimit="10" stroke-linecap="round" stroke-linejoin="round"/>
<path d="M51.0445 100.137C47.0705 96.1632 48.0202 90.7547 48.0202 90.7547C48.0202 90.7547 53.4285 89.8049 57.4028 93.7789C61.3769 97.7532 60.4271 103.161 60.4271 103.161C60.4271 103.161 55.0188 104.112 51.0445 100.137Z" stroke="#A9D944" stroke-width="7" stroke-miterlimit="10" stroke-linecap="round" stroke-linejoin="round"/>
<path d="M60.5264 100.466V99.2067C60.5264 95.5057 61.7904 91.9351 64.0794 89.0719" stroke="#A9D944" stroke-width="7" stroke-miterlimit="10" stroke-linecap="round" stroke-linejoin="round"/>
</g>
<defs>
<clipPath id="clip0_4612_9759">
<rect width="122" height="122" fill="white"/>
</clipPath>
</defs>
</svg>
