<svg width="122" height="122" viewBox="0 0 122 122" fill="none" xmlns="http://www.w3.org/2000/svg">
<path d="M114.852 47.6543H106.273V35.7402C106.273 31.7986 103.067 28.5918 99.125 28.5918H92.5539L108.945 12.2007C111.732 9.41373 111.732 4.879 108.945 2.09206C106.158 -0.69464 101.623 -0.694878 98.8364 2.09206L68.1484 32.7822V21.4434C68.1484 17.5017 64.9417 14.2949 61 14.2949H46.7031C42.7615 14.2949 39.5547 17.5017 39.5547 21.4434V29.0726C37.9963 28.7557 36.4032 28.5918 34.7891 28.5918C23.3454 28.5918 13.6604 36.6486 11.4389 47.6543H7.14844C3.20679 47.6543 0 50.8611 0 54.8027V60.998C0 64.2265 2.15192 66.9606 5.09636 67.8448L13.623 116.129C14.2418 119.53 17.1999 121.998 20.6568 121.998H101.344C104.8 121.998 107.759 119.53 108.38 116.117L116.904 67.8448C119.848 66.9606 122 64.2263 122 60.998V54.8027C122 50.8611 118.793 47.6543 114.852 47.6543ZM99.125 33.3574C100.439 33.3574 101.508 34.4263 101.508 35.7402V47.6543H73.4912L87.7881 33.3574H99.125ZM102.206 5.46207C103.135 4.53325 104.646 4.53301 105.575 5.46207C106.504 6.39065 106.504 7.90207 105.575 8.83089C105.575 8.83089 64.7701 49.6358 62.6844 51.7215C61.7525 52.6532 60.2477 52.6537 59.3156 51.7215C58.3841 50.7903 58.3834 49.2849 59.3153 48.3529L102.206 5.46207ZM44.3203 21.4434C44.3203 20.1292 45.3892 19.0605 46.7031 19.0605H61C62.3139 19.0605 63.3828 20.1295 63.3828 21.4434V37.5481L57.0336 43.8952C54.7616 38.0053 50.1894 33.143 44.3203 30.5772V21.4434ZM34.7891 33.3574C43.6517 33.3574 51.113 39.4188 53.2485 47.6543H16.3242C18.448 39.3414 25.9655 33.3574 34.7891 33.3574ZM117.234 60.998C117.234 62.3119 116.165 63.3809 114.852 63.3809H70.5312C69.2152 63.3809 68.1484 64.4476 68.1484 65.7637C68.1484 67.0797 69.2152 68.1465 70.5312 68.1465H112.011L103.688 115.276C103.482 116.41 102.496 117.232 101.343 117.232H20.6566C19.504 117.232 18.5178 116.41 18.3136 115.288L9.98899 68.1465H51.4688C52.7848 68.1465 53.8516 67.0797 53.8516 65.7637C53.8516 64.4476 52.7848 63.3809 51.4688 63.3809H7.14844C5.83455 63.3809 4.76562 62.3119 4.76562 60.998V54.8027C4.76562 53.4888 5.83455 52.4199 7.14844 52.4199C9.57605 52.4199 50.4351 52.4199 54.2574 52.4199C54.6079 53.4133 55.1786 54.3243 55.9458 55.0913C58.7401 57.8854 63.2591 57.8861 66.0542 55.0913L68.7256 52.4199H114.852C116.165 52.4199 117.234 53.4888 117.234 54.8027V60.998Z" fill="#A9D944"/>
</svg>
