<svg width="122" height="106" viewBox="0 0 122 106" fill="none" xmlns="http://www.w3.org/2000/svg">
<path d="M122 37.8356V29.3599C122 27.0702 120.137 25.2067 117.847 25.2067C116.38 25.2067 115.001 24.6362 113.965 23.6011C112.928 22.5624 112.356 21.1829 112.356 19.7169V4.79272C112.356 2.46855 110.466 0.578125 108.142 0.578125H103.059C100.734 0.578125 98.8439 2.46948 98.8439 4.79272V13.5282C98.8439 18.9472 94.5223 23.428 89.2112 23.5173C86.5706 23.5583 84.0612 22.5633 82.1735 20.7064C80.285 18.8485 79.2453 16.3671 79.2453 13.719V4.79272C79.2453 2.46855 77.3539 0.578125 75.0297 0.578125H69.9476C67.6235 0.578125 65.7321 2.46948 65.7321 4.79272V10.1783C65.7321 11.1658 66.5326 11.9654 67.5192 11.9654C68.5068 11.9654 69.3063 11.1658 69.3063 10.1783V4.79272C69.3063 4.43996 69.5939 4.15234 69.9476 4.15234H75.0297C75.3834 4.15234 75.6711 4.43996 75.6711 4.79272V13.719C75.6711 17.3332 77.0905 20.7194 79.6669 23.2539C82.2433 25.7885 85.6537 27.1437 89.2708 27.0916C96.5207 26.9687 102.418 20.8842 102.418 13.5282V4.79272C102.418 4.43996 102.706 4.15234 103.059 4.15234H108.142C108.494 4.15234 108.782 4.43996 108.782 4.79272V19.7169C108.782 22.1361 109.724 24.4128 111.437 26.1282C113.151 27.839 115.427 28.7809 117.847 28.7809C118.166 28.7809 118.426 29.0406 118.426 29.3599V36.7438L89.0437 50.8406L59.6634 36.7448V29.3599C59.6634 29.1626 59.7555 29.0285 59.8365 28.9476C59.8989 28.8852 60.0338 28.7809 60.2423 28.7809C65.2407 28.7809 69.3063 24.7153 69.3063 19.7169V17.3267C69.3063 16.3401 68.5068 15.5396 67.5192 15.5396C66.5326 15.5396 65.7321 16.3401 65.7321 17.3267V19.7169C65.7321 22.7439 63.2693 25.2067 60.2423 25.2067C59.1291 25.2067 58.0848 25.6395 57.3057 26.4233C56.5211 27.2079 56.0892 28.2513 56.0892 29.3599V37.8077C56.0882 37.8477 56.0882 37.8878 56.0892 37.9278V67.6227L46.8986 73.131C45.6039 72.3883 44.1221 71.988 42.6188 71.988H31.9557V41.1157H42.6188C47.3556 41.1157 51.2091 37.2623 51.2091 32.5255C51.2091 27.7887 47.3556 23.9353 42.6188 23.9353H40.747V21.9834C40.747 18.116 37.6 14.9699 33.7326 14.9699H31.9557V11.4674C31.9557 9.43083 30.299 7.77403 28.2624 7.77403H22.9467C20.9101 7.77403 19.2533 9.43083 19.2533 11.4674V14.9699H17.4764C13.609 14.9699 10.462 18.116 10.462 21.9834V23.9353H8.59023C7.80557 23.9353 7.02837 24.0414 6.27908 24.2499C5.32875 24.5152 4.77214 25.5009 5.03741 26.4521C5.30269 27.4025 6.28746 27.9572 7.23965 27.6929C7.67619 27.5709 8.13042 27.5095 8.59023 27.5095H42.6188C45.3851 27.5095 47.6348 29.7592 47.6348 32.5255C47.6348 35.2909 45.3851 37.5406 42.6188 37.5406H8.59023C5.82393 37.5406 3.57422 35.2909 3.57422 32.5255C3.57422 32.2416 3.59842 31.9559 3.64496 31.6785C3.80971 30.7049 3.15443 29.7825 2.18176 29.6177C1.20909 29.452 0.285751 30.1082 0.121002 31.0818C0.0409546 31.5565 0 32.0424 0 32.5255C0 37.2623 3.85345 41.1157 8.59023 41.1157H19.2533V71.988H8.59023C3.85345 71.988 0 75.8415 0 80.5783C0 82.8699 0.892624 85.0274 2.51685 86.6544C4.14107 88.2759 6.29863 89.1685 8.59023 89.1685H10.463V91.1194C10.463 94.9878 13.609 98.1348 17.4755 98.1348H19.2533V101.637C19.2533 103.674 20.9101 105.331 22.9467 105.331H28.2624C30.299 105.331 31.9557 103.674 31.9557 101.637V98.1348H32.0265C32.396 98.6197 32.8028 99.0804 33.2467 99.5132C35.6472 101.858 38.7607 103.051 41.9338 103.051H106.364C110.126 103.051 113.187 99.9898 113.187 96.2266V85.6417H114.141C118.475 85.6417 122 82.1159 122 77.7831V37.8971C122 37.8766 122 37.8561 122 37.8356ZM22.8275 11.4674C22.8275 11.4022 22.8806 11.3483 22.9467 11.3483H28.2624C28.3285 11.3483 28.3815 11.4022 28.3815 11.4674V14.9699H22.8275V11.4674ZM14.0363 23.9353V21.9834C14.0363 20.0865 15.5795 18.5442 17.4764 18.5442H21.0032H21.0404H21.0767H30.1314H30.1686H30.2059H33.7326C35.6296 18.5442 37.1728 20.0865 37.1728 21.9834V23.9353H14.0363ZM74.945 63.5868C75.7437 63.5868 76.4622 64.0912 76.7349 64.8415C78.8097 70.5658 84.2948 74.4118 90.3821 74.4118C96.5998 74.4118 102.123 70.4569 104.125 64.5706C104.325 63.9823 104.878 63.5868 105.5 63.5868H106.61C108.266 63.5868 109.613 64.9336 109.613 66.5895V89.1033H84.8709L79.0089 80.7039C78.4448 79.8951 77.3297 79.6968 76.5209 80.2618C75.712 80.8259 75.5137 81.94 76.0778 82.7498L80.5121 89.1033H76.2239L65.1848 73.2828L68.2089 71.4696L71.9889 76.8877C72.337 77.3857 72.8917 77.6528 73.4567 77.6528C73.8095 77.6528 74.166 77.5486 74.4769 77.3307C75.2866 76.7658 75.4849 75.6516 74.9208 74.8428L71.1167 69.3902C72.1275 68.2509 72.7149 66.7598 72.7149 65.2035V63.5868H74.945ZM67.7007 89.1033L59.1747 76.8849L62.1114 75.1248L71.8651 89.1033H67.7007ZM59.0528 89.1033L53.0771 80.5401L56.1013 78.7279L63.3419 89.1043H59.0528V89.1033ZM42.5016 79.9332C42.5928 80.0989 42.697 80.259 42.8134 80.4107C44.0038 81.9595 45.8077 82.7889 47.6441 82.7889C48.4269 82.7889 49.2162 82.6381 49.9665 82.3272L54.6949 89.1033H33.1983C33.6377 86.5911 35.1549 84.3368 37.3757 83.0067L42.5016 79.9332ZM69.1407 63.9684V65.2045C69.1407 66.1436 68.6455 67.0269 67.8469 67.5193C67.8152 67.5379 67.7836 67.5566 67.7529 67.577L61.753 71.1727C61.7223 71.1904 61.6916 71.209 61.6609 71.2285L55.7141 74.7925C55.7029 74.799 55.6908 74.8065 55.6796 74.8139L48.9333 78.8572C47.8378 79.5144 46.4258 79.2454 45.6467 78.2327C45.6374 78.2206 45.6085 78.1824 45.6206 78.1201C45.6309 78.0651 45.6634 78.04 45.6802 78.0288L47.727 76.8021C47.7503 76.789 47.7745 76.7741 47.7977 76.7592L69.0606 64.014C69.0876 63.9982 69.1137 63.9833 69.1407 63.9684ZM22.8275 41.1157H28.3815V71.988H22.8275V41.1157ZM14.0372 91.1203V89.1685H24.1334C25.1201 89.1685 25.9205 88.3689 25.9205 87.3814C25.9205 86.3947 25.1201 85.5943 24.1334 85.5943H8.59023C7.25175 85.5943 5.99147 85.073 5.04393 84.1273C4.09639 83.177 3.57422 81.9167 3.57422 80.5783C3.57422 77.8129 5.82393 75.5623 8.59023 75.5623H42.6188C42.6914 75.5623 42.7631 75.5641 42.8348 75.5669L35.5383 79.9407C31.8096 82.1755 29.4938 86.2635 29.4938 90.6112C29.4938 91.7989 29.6614 92.9484 29.9732 94.0365C29.9769 94.0505 29.9816 94.0644 29.9853 94.0784C29.9881 94.0877 29.9909 94.097 29.9937 94.1063C30.0374 94.259 30.0849 94.4097 30.1351 94.5605H17.4755C15.5795 94.5605 14.0372 93.0173 14.0372 91.1203ZM28.3815 101.637C28.3815 101.702 28.3275 101.756 28.2624 101.756H22.9467C22.8815 101.756 22.8275 101.702 22.8275 101.637V98.1348H28.3815V101.637ZM109.613 96.2266C109.613 98.0193 108.155 99.4769 106.363 99.4769C65.1401 99.4769 41.8872 99.4788 41.6974 99.4742C37.6242 99.3671 34.2269 96.4994 33.311 92.6776H58.0764C58.0922 92.6785 58.1071 92.6785 58.1229 92.6785C58.1388 92.6785 58.1546 92.6785 58.1704 92.6776H66.7234C66.7392 92.6785 66.7541 92.6785 66.7699 92.6785C66.7858 92.6785 66.8016 92.6785 66.8174 92.6776H75.2466C75.2624 92.6785 75.2783 92.6785 75.2932 92.6785C75.309 92.6785 75.3248 92.6785 75.3406 92.6776H83.8936C83.9094 92.6785 83.9243 92.6785 83.9402 92.6785C83.956 92.6785 83.9718 92.6785 83.9876 92.6776H109.613V96.2266ZM114.141 82.0675H113.187V66.5895C113.187 62.9631 110.237 60.0125 106.61 60.0125H105.5C103.347 60.0125 101.435 61.3817 100.741 63.4192C99.232 67.8563 95.0686 70.8367 90.3821 70.8367C85.7924 70.8367 81.6588 67.9382 80.0941 63.624C79.3114 61.4636 77.2422 60.0125 74.9441 60.0125C70.9603 60.1149 69.4422 59.6216 67.2232 60.9489L59.6625 65.48V40.709L88.2702 54.4343C88.515 54.5516 88.7793 54.6103 89.0437 54.6103C89.308 54.6103 89.5723 54.5516 89.8162 54.4343L118.425 40.708V77.7831C118.426 80.1454 116.504 82.0675 114.141 82.0675Z" fill="#A9D944"/>
</svg>
