<svg width="65" height="69" viewBox="0 0 65 69" fill="none" xmlns="http://www.w3.org/2000/svg">
<path d="M37.9276 55.2512H27.0723V67.6524H37.9276V55.2512Z" stroke="#A9D944" stroke-width="2.69531" stroke-miterlimit="10" stroke-linecap="round" stroke-linejoin="round"/>
<path d="M37.8994 11.5785H49.7551V67.6523H15.2451V11.5785H27.1639" stroke="#A9D944" stroke-width="2.69531" stroke-miterlimit="10" stroke-linecap="round" stroke-linejoin="round"/>
<path d="M62.8321 32.082H49.7549V67.6523H62.8321V32.082Z" stroke="#A9D944" stroke-width="2.69531" stroke-miterlimit="10" stroke-linecap="round" stroke-linejoin="round"/>
<path d="M15.2447 32.0819H2.16748V67.6522H15.2447V32.0819Z" stroke="#A9D944" stroke-width="2.69531" stroke-miterlimit="10" stroke-linecap="round" stroke-linejoin="round"/>
<path d="M25.1782 55.2512H39.8219" stroke="#A9D944" stroke-width="2.69531" stroke-miterlimit="10" stroke-linecap="round" stroke-linejoin="round"/>
<path d="M29.2336 38.5912H21.2876V48.8444H29.2336V38.5912Z" stroke="#A9D944" stroke-width="2.69531" stroke-miterlimit="10" stroke-linecap="round" stroke-linejoin="round"/>
<path d="M43.7127 38.5912H35.7666V48.8444H43.7127V38.5912Z" stroke="#A9D944" stroke-width="2.69531" stroke-miterlimit="10" stroke-linecap="round" stroke-linejoin="round"/>
<path d="M29.2336 21.9199H21.2876V32.1732H29.2336V21.9199Z" stroke="#A9D944" stroke-width="2.69531" stroke-miterlimit="10" stroke-linecap="round" stroke-linejoin="round"/>
<path d="M43.7127 21.9199H35.7666V32.1732H43.7127V21.9199Z" stroke="#A9D944" stroke-width="2.69531" stroke-miterlimit="10" stroke-linecap="round" stroke-linejoin="round"/>
<path d="M56.2934 48.8444H49.7549V67.6523H56.2934V48.8444Z" stroke="#A9D944" stroke-width="2.69531" stroke-miterlimit="10" stroke-linecap="round" stroke-linejoin="round"/>
<path d="M15.2446 48.8444H8.70605V67.6523H15.2446V48.8444Z" stroke="#A9D944" stroke-width="2.69531" stroke-miterlimit="10" stroke-linecap="round" stroke-linejoin="round"/>
<path d="M33.9047 2.13694L35.6071 4.93118L38.7897 5.68721C39.9885 5.97197 40.4604 7.42515 39.658 8.36029L37.5275 10.8433L37.7922 14.1049C37.8919 15.3333 36.6561 16.2314 35.5191 15.757L32.4998 14.4974L29.4808 15.757C28.3438 16.2314 27.108 15.3333 27.2077 14.1049L27.4724 10.8433L25.3419 8.36029C24.5395 7.42515 25.0114 5.97197 26.2102 5.68721L29.3928 4.93118L31.0951 2.13694C31.7361 1.08456 33.2635 1.08456 33.9047 2.13694Z" stroke="#A9D944" stroke-width="2.69531" stroke-miterlimit="10" stroke-linecap="round" stroke-linejoin="round"/>
</svg>
