<svg width="122" height="122" viewBox="0 0 122 122" fill="none" xmlns="http://www.w3.org/2000/svg">
<path d="M34.3125 11.4375H38.125V15.25H34.3125V11.4375Z" fill="#A9D944"/>
<path d="M41.9375 11.4375H57.1875V15.25H41.9375V11.4375Z" fill="#A9D944"/>
<path d="M78.1563 85.7812C78.1533 88.3082 77.1482 90.7307 75.3614 92.5175C73.5746 94.3043 71.152 95.3095 68.6251 95.3125H33.8017L40.3554 83.9627C40.1481 84.5469 40.0386 85.1614 40.0313 85.7812C40.0313 87.298 40.6339 88.7525 41.7063 89.825C42.7788 90.8975 44.2334 91.5 45.7501 91.5H53.3751C54.8918 91.5 56.3464 90.8975 57.4189 89.825C58.4913 88.7525 59.0938 87.298 59.0938 85.7812C59.0938 84.2645 58.4913 82.81 57.4189 81.7375C56.3464 80.665 54.8918 80.0625 53.3751 80.0625H45.7501C44.8424 80.0642 43.9483 80.2825 43.142 80.6992C42.3356 81.116 41.6404 81.7192 41.1141 82.4587C41.8711 80.6753 41.919 78.6702 41.2481 76.8527C40.5771 75.0351 39.2378 73.5422 37.5036 72.6784C35.7693 71.8147 33.7709 71.6454 31.916 72.2049C30.0612 72.7645 28.4898 74.0109 27.5225 75.6896L21.0413 86.9212C20.9942 86.543 20.9701 86.1623 20.9688 85.7812V17.1562C20.9719 14.6293 21.977 12.2068 23.7638 10.42C25.5506 8.63318 27.9732 7.62803 30.5001 7.625H68.6251C70.2974 7.62889 71.9394 8.07093 73.3876 8.90709C74.8359 9.74324 76.0397 10.9443 76.8792 12.3906L80.1789 10.4844C79.0038 8.45982 77.3187 6.7785 75.2916 5.6079C73.2644 4.43729 70.966 3.81827 68.6251 3.8125H30.5001C26.9623 3.81654 23.5707 5.22369 21.0691 7.72525C18.5675 10.2268 17.1604 13.6185 17.1563 17.1562V53.9469C15.9432 54.5114 14.9665 55.4834 14.3961 56.6938L5.74362 75.4646C4.46275 78.218 3.80348 81.2195 3.81259 84.2562V118.188H7.62509V84.2562C7.61659 81.7732 8.1555 79.3188 9.20347 77.0678L17.1563 59.8124V85.7812C17.155 88.058 17.7386 90.297 18.851 92.2835C18.9945 92.6049 19.2242 92.8802 19.5147 93.0791C19.8051 93.278 20.1449 93.3925 20.4965 93.4101C20.848 93.4277 21.1975 93.3475 21.5064 93.1786C21.8152 93.0097 22.0712 92.7586 22.246 92.4531L30.8242 77.5958C31.3333 76.7273 32.1653 76.0954 33.1387 75.8381C34.112 75.5808 35.1476 75.7189 36.0194 76.2223C36.8913 76.7257 37.5287 77.5535 37.7924 78.5251C38.0562 79.4966 37.925 80.5331 37.4274 81.4083L28.8493 96.2656C28.6788 96.5605 28.5905 96.8957 28.5936 97.2363C28.5966 97.577 28.6908 97.9105 28.8664 98.2024L32.9496 104.989C33.8403 106.473 34.3114 108.172 34.3126 109.903V118.168H38.1251V109.903C38.1248 107.48 37.4659 105.103 36.2188 103.025L33.8722 99.125H68.6251C72.1628 99.121 75.5545 97.7138 78.0561 95.2122C80.5577 92.7107 81.9648 89.319 81.9688 85.7812V76.25H78.1563V85.7812ZM45.7501 83.875H53.3751C53.8807 83.875 54.3655 84.0758 54.723 84.4333C55.0805 84.7908 55.2813 85.2757 55.2813 85.7812C55.2813 86.2868 55.0805 86.7717 54.723 87.1292C54.3655 87.4867 53.8807 87.6875 53.3751 87.6875H45.7501C45.2445 87.6875 44.7597 87.4867 44.4022 87.1292C44.0447 86.7717 43.8438 86.2868 43.8438 85.7812C43.8438 85.2757 44.0447 84.7908 44.4022 84.4333C44.7597 84.0758 45.2445 83.875 45.7501 83.875Z" fill="#A9D944"/>
<path d="M112.679 26.3444C108.391 20.2079 101.997 15.8624 94.7136 14.1351C87.4299 12.4078 79.7654 13.4195 73.1793 16.9774C66.5932 20.5354 61.5455 26.3911 58.9974 33.4298C56.4492 40.4684 56.5785 48.1984 59.3607 55.1478L52.9176 66.0706C52.7317 66.385 52.6401 66.7462 52.6537 67.1112C52.6672 67.4762 52.7852 67.8296 52.9938 68.1294C53.2078 68.4286 53.5024 68.6609 53.8432 68.7993C54.1841 68.9376 54.5572 68.9763 54.9192 68.911L67.367 66.5853C71.5937 70.3744 76.7974 72.9036 82.3882 73.8863C84.145 74.1883 85.9241 74.3413 87.7067 74.3438C93.2862 74.3422 98.7583 72.8102 103.528 69.9144C108.297 67.0187 112.18 62.8701 114.755 57.9204C117.331 52.9707 118.499 47.4095 118.132 41.842C117.766 36.2745 115.88 30.9142 112.679 26.3444ZM113.975 48.4759C113.136 53.2313 111.024 57.6701 107.861 61.3193C104.699 64.9685 100.606 67.6914 96.0184 69.1978C91.4307 70.7042 86.5202 70.9377 81.8103 69.8734C77.1003 68.809 72.7674 66.4868 69.2732 63.1541C68.9157 62.8222 68.4457 62.6383 67.9579 62.6394C67.8432 62.6362 67.7284 62.6426 67.6148 62.6584L58.3313 64.3931L63.1351 56.2725C63.2844 56.011 63.3723 55.7189 63.3921 55.4183C63.412 55.1178 63.3632 54.8167 63.2495 54.5378C61.1233 49.7265 60.4796 44.3905 61.4004 39.2116C62.6289 32.2398 66.5767 26.0416 72.3752 21.9805C75.2463 19.9696 78.4854 18.544 81.9075 17.7849C85.3296 17.0259 88.8677 16.9483 92.3198 17.5566C95.7719 18.1649 99.0703 19.4472 102.027 21.3302C104.983 23.2133 107.54 25.6602 109.551 28.5314C111.562 31.4025 112.987 34.6416 113.746 38.0637C114.506 41.4858 114.583 45.0239 113.975 48.4759Z" fill="#A9D944"/>
<path d="M101.031 32.4062H95.3125V30.5C95.3125 28.4777 94.5092 26.5383 93.0792 25.1083C91.6492 23.6783 89.7098 22.875 87.6875 22.875C85.6652 22.875 83.7258 23.6783 82.2958 25.1083C80.8658 26.5383 80.0625 28.4777 80.0625 30.5V32.4062H74.3438C73.8382 32.4062 73.3533 32.6071 72.9958 32.9646C72.6383 33.3221 72.4375 33.8069 72.4375 34.3125V57.1875C72.442 58.7028 73.046 60.1548 74.1175 61.2263C75.189 62.2978 76.6409 62.9017 78.1562 62.9062H97.2188C98.7341 62.9017 100.186 62.2978 101.258 61.2263C102.329 60.1548 102.933 58.7028 102.938 57.1875V34.3125C102.938 33.8069 102.737 33.3221 102.379 32.9646C102.022 32.6071 101.537 32.4062 101.031 32.4062ZM83.875 30.5C83.875 29.4889 84.2767 28.5191 84.9917 27.8042C85.7066 27.0892 86.6764 26.6875 87.6875 26.6875C88.6986 26.6875 89.6684 27.0892 90.3833 27.8042C91.0983 28.5191 91.5 29.4889 91.5 30.5V32.4062H83.875V30.5ZM99.125 57.1875C99.125 57.6931 98.9242 58.1779 98.5667 58.5354C98.2092 58.8929 97.7243 59.0938 97.2188 59.0938H78.1562C77.6507 59.0938 77.1658 58.8929 76.8083 58.5354C76.4508 58.1779 76.25 57.6931 76.25 57.1875V55.2812H99.125V57.1875ZM99.125 51.4688H76.25V36.2188H80.0625V40.0312H83.875V36.2188H91.5V40.0312H95.3125V36.2188H99.125V51.4688Z" fill="#A9D944"/>
<path d="M42.4965 29.1523L39.5609 32.0879C37.5849 30.78 35.1936 30.2527 32.8508 30.608C30.508 30.9634 28.3806 32.1762 26.8814 34.0112C25.3821 35.8462 24.6178 38.1726 24.7367 40.5392C24.8555 42.9059 25.8491 45.144 27.5246 46.8196C29.2002 48.4951 31.4383 49.4887 33.805 49.6076C36.1716 49.7264 38.498 48.9621 40.333 47.4628C42.168 45.9636 43.3808 43.8362 43.7362 41.4934C44.0916 39.1506 43.5642 36.7593 42.2563 34.7833L45.1919 31.8477L42.4965 29.1523ZM40.0317 40.0313C40.0317 41.1623 39.6963 42.268 39.0679 43.2084C38.4395 44.1489 37.5464 44.8818 36.5014 45.3147C35.4565 45.7475 34.3066 45.8608 33.1973 45.6401C32.088 45.4195 31.069 44.8748 30.2692 44.075C29.4694 43.2752 28.9247 42.2563 28.7041 41.1469C28.4834 40.0376 28.5967 38.8877 29.0295 37.8428C29.4624 36.7978 30.1953 35.9047 31.1358 35.2763C32.0762 34.6479 33.1819 34.3125 34.313 34.3125C35.1622 34.3158 35.9996 34.5113 36.7625 34.8844L31.059 40.5879L33.7544 43.2833L39.4598 37.5817C39.8329 38.3446 40.0284 39.182 40.0317 40.0313Z" fill="#A9D944"/>
<path d="M47.6562 34.3125H55.2812V38.125H47.6562V34.3125Z" fill="#A9D944"/>
<path d="M47.6562 41.9375H55.2812V45.75H47.6562V41.9375Z" fill="#A9D944"/>
</svg>
