<svg width="69" height="65" viewBox="0 0 69 65" fill="none" xmlns="http://www.w3.org/2000/svg">
<path d="M67.8491 52.6246H66.5715C69.7481 49.5333 69.8172 44.4521 66.7259 41.2755C66.2354 40.7715 65.6808 40.3343 65.0765 39.9748C67.5059 38.524 68.9951 35.9044 68.9991 33.0748C68.9934 28.6314 65.3926 25.0307 60.9492 25.0249H50.5994V16.975C50.5991 16.34 50.084 15.8252 49.4489 15.8255C49.3906 15.8255 49.3322 15.8299 49.2746 15.8389L35.6496 17.9341V16.86C38.3248 16.3099 40.246 13.9565 40.2495 11.2251C40.2495 6.20657 35.515 1.41343 35.3126 1.21218C34.8635 0.763257 34.1356 0.763257 33.6865 1.21218C33.4841 1.41343 28.7496 6.20657 28.7496 11.2251C28.7531 13.9565 30.6743 16.3099 33.3496 16.86V18.2895L19.375 20.4399C18.8145 20.5262 18.4005 21.0079 18.3998 21.575V34.387C17.5598 33.4811 16.5911 32.7037 15.5248 32.0801C15.169 31.8747 14.7306 31.8747 14.3748 32.0801C10.9789 34.0533 8.68642 37.4862 8.1649 41.3789C7.37011 41.2159 6.56124 41.1308 5.74993 41.1247C5.24235 41.127 4.7355 41.16 4.23195 41.2236C3.82399 41.2728 3.47339 41.5359 3.31196 41.9136C0.968575 47.4106 2.7949 53.7974 7.68995 57.2245H0V59.5245H2.73927L4.72069 63.4885C4.91547 63.8784 5.31408 64.1246 5.74993 64.1245H49.4494C50.0845 64.1245 50.5994 63.6095 50.5994 62.9745V59.5245H57.9386L59.92 63.4885C60.1148 63.8784 60.5134 64.1246 60.9492 64.1245H65.5492C66.1843 64.1245 66.6992 63.6095 66.6992 62.9745V59.5245H67.8491C68.4842 59.5245 68.9991 59.0096 68.9991 58.3745V53.7746C68.9991 53.1395 68.4842 52.6246 67.8491 52.6246ZM66.6992 46.8747C66.6954 50.0486 64.1232 52.6209 60.9492 52.6246H40.2495C37.074 52.6246 34.4996 50.0502 34.4996 46.8747C34.4996 43.6991 37.074 41.1247 40.2495 41.1247H55.1993C57.1047 41.1247 58.6493 42.6693 58.6493 44.5747C58.6493 46.4801 57.1047 48.0247 55.1993 48.0247H43.6995C43.0644 48.0247 42.5495 47.5097 42.5495 46.8747C42.5495 46.2396 43.0644 45.7247 43.6995 45.7247H51.7494V43.4247H43.6995C41.7941 43.4247 40.2495 44.9693 40.2495 46.8747C40.2495 48.78 41.7941 50.3246 43.6995 50.3246H55.1993C58.3733 50.3209 60.9455 47.7487 60.9492 44.5747C60.9451 43.3264 60.5303 42.1142 59.7693 41.1247H60.9492C64.1232 41.1285 66.6954 43.7007 66.6992 46.8747ZM57.4993 27.3249C59.4047 27.3249 60.9492 28.8695 60.9492 30.7749C60.9492 32.6802 59.4047 34.2248 57.4993 34.2248H45.9994C45.3643 34.2248 44.8494 33.7099 44.8494 33.0748C44.8494 32.4398 45.3643 31.9248 45.9994 31.9248H54.0493V29.6249H45.9994C44.094 29.6249 42.5495 31.1695 42.5495 33.0748C42.5495 34.9802 44.094 36.5248 45.9994 36.5248H57.4993C60.6732 36.5211 63.2455 33.9488 63.2492 30.7749C63.2481 29.5887 62.8766 28.4325 62.1866 27.4675C65.2835 28.1701 67.2246 31.2502 66.5219 34.3471C65.9307 36.9534 63.6217 38.8087 60.9492 38.8248H55.1993H44.8494C41.6739 38.8248 39.0995 36.2504 39.0995 33.0748C39.0995 29.8993 41.6739 27.3249 44.8494 27.3249H57.4993ZM31.0496 11.2251C31.0496 8.28459 33.2633 5.22678 34.4996 3.7502C35.7369 5.22563 37.9495 8.27769 37.9495 11.2251C37.9435 12.6819 37.0231 13.9779 35.6496 14.4635V12.3751H33.3496V14.4635C31.9761 13.9779 31.0556 12.6819 31.0496 11.2251ZM14.9498 34.4295C17.519 36.1587 19.1826 38.9444 19.4865 42.0263C17.7713 42.7113 16.2266 43.7628 14.9602 45.1071C13.6845 43.768 12.1325 42.7229 10.412 42.0447C10.7105 38.9557 12.3751 36.1623 14.9498 34.4295ZM20.7184 44.0098C21.821 43.6225 22.981 43.4247 24.1497 43.4247C24.3302 43.4247 24.5188 43.4316 24.7155 43.4443C26.6101 48.8373 23.7741 54.7449 18.3811 56.6395C17.2785 57.0267 16.1183 57.2245 14.9498 57.2245C14.7693 57.2245 14.5807 57.2176 14.384 57.205C12.4894 51.812 15.3254 45.9044 20.7184 44.0098ZM4.59994 46.8747C4.5985 45.7063 4.79601 44.5462 5.18413 43.4443C5.38078 43.4316 5.56938 43.4247 5.74993 43.4247C8.72782 43.4158 11.5621 44.7032 13.5146 46.9517C11.6288 49.8503 11.0331 53.4024 11.8702 56.7576C7.54491 55.4096 4.59908 51.4052 4.59994 46.8747ZM23.439 61.8245H6.46062L5.31063 59.5245H24.589L23.439 61.8245ZM34.4996 61.8245H26.0104L27.1604 59.5245H29.8996V57.2245H22.2005C27.101 53.8022 28.9319 47.4133 26.5877 41.9148C26.4262 41.537 26.0756 41.2739 25.6677 41.2248C24.3591 41.0566 23.0318 41.1032 21.7382 41.3628C21.5588 40.0837 21.1837 38.8399 20.6261 37.6748H20.6997V22.5617L48.2994 18.3159V25.0249H44.8494C40.4093 25.019 36.8051 28.6138 36.7993 33.0538C36.7964 35.2581 37.6985 37.3669 39.295 38.8869C34.8867 39.4069 31.7349 43.4023 32.2549 47.8106C32.4707 49.6397 33.3082 51.3392 34.6272 52.6246H33.3496C32.7145 52.6246 32.1996 53.1395 32.1996 53.7746V58.3745C32.1996 59.0096 32.7145 59.5245 33.3496 59.5245H34.4996V61.8245ZM39.5388 61.8245H36.7995V59.5245H40.6888L39.5388 61.8245ZM48.2994 61.8245H42.1102L43.2602 59.5245H48.2994V61.8245ZM64.3992 61.8245H61.6599L60.5099 59.5245H64.3992V61.8245ZM66.6992 57.2245H34.4996V54.9246H66.6992V57.2245Z" fill="#A9D944"/>
</svg>
