<svg width="151" height="163" viewBox="0 0 151 163" fill="none" xmlns="http://www.w3.org/2000/svg">
<path d="M49.1271 31.8711C28.5914 50.8685 37.6447 96.9021 58.1333 95.129C74.5035 93.6322 67.9337 73.5828 80.0412 62.3262C92.1487 51.0697 110.45 47.3704 99.2835 35.2833C88.2604 22.9474 68.1624 14.3296 49.1271 31.8711Z" fill="#A9D944"/>
<path d="M87.6988 124.206C79.5582 119.506 69.1764 122.288 64.4764 130.428C59.8264 138.482 62.6082 148.864 70.7488 153.564C78.8894 158.264 89.2712 155.482 93.9712 147.342C98.5346 139.238 95.7528 128.856 87.6988 124.206ZM71.8488 151.659C64.7474 147.559 62.3316 138.543 66.4316 131.442C70.4816 124.427 79.5474 121.925 86.6488 126.025C93.7502 130.125 96.0294 139.177 91.9794 146.192C87.8794 153.293 78.8636 155.709 71.8488 151.659Z" fill="#A9D944"/>
<path d="M137.835 48.7673C139.285 46.2558 138.406 42.9773 135.895 41.5273C133.347 39.9407 130.068 40.8192 128.568 43.4173C127.118 45.9287 127.997 49.2072 130.508 50.6572C133.106 52.1572 136.385 51.2787 137.835 48.7673Z" fill="#A9D944"/>
</svg>
