<svg width="102" height="72" viewBox="0 0 102 72" fill="none" xmlns="http://www.w3.org/2000/svg">
<path d="M99.8686 11.2897C98.6956 6.87263 95.2393 3.39407 90.8507 2.2133C82.8963 0.0681149 51 0.0681152 51 0.0681152C51 0.0681152 19.1037 0.0681149 11.1493 2.2133C6.76069 3.39387 3.30444 6.87263 2.13144 11.2897C0 19.2959 0 36 0 36C0 36 0 52.7041 2.13144 60.7103C3.30444 65.1274 6.76069 68.6059 11.1493 69.7867C19.1037 71.9319 51 71.9319 51 71.9319C51 71.9319 82.8963 71.9319 90.8507 69.7867C95.2393 68.6059 98.6956 65.1274 99.8686 60.7103C102 52.7041 102 36 102 36C102 36 102 19.2959 99.8686 11.2897Z" fill="#FF0000"/>
<path d="M40.5681 51.1661L67.2272 36.0004L40.5681 20.8339V51.1661Z" fill="white"/>
</svg>
