<svg width="80" height="63" viewBox="0 0 80 63" fill="none" xmlns="http://www.w3.org/2000/svg">
<g clip-path="url(#clip0_4612_9809)">
<path d="M74.6666 5.32713C66.3188 -3.24272 53.1014 0.926395 53.1014 0.926395C45.6811 3.01095 39.1883 10.6543 39.1883 10.6543C36.6376 7.64331 34.5506 5.79037 34.5506 5.79037C15.9999 -6.48537 5.56514 4.40066 5.56514 4.40066C-2.78269 11.8124 3.01441 21.3087 3.01441 21.3087C3.01441 21.3087 -3.01457 28.0257 2.31876 34.7426C2.31876 34.7426 6.0289 40.0698 15.768 38.4485C17.1593 38.2168 19.0144 37.0587 20.1738 36.3639C23.1883 34.511 25.2753 31.9632 27.1304 29.1837C27.5941 28.4889 27.1304 28.2573 26.4347 28.2573C25.9709 28.2573 25.739 28.4889 25.2753 28.9521C24.8115 29.647 24.3477 30.1102 23.884 30.8051C22.2608 32.658 20.4057 34.2793 18.0869 35.4374C12.9854 37.7536 7.88398 35.4374 4.17383 31.4999C4.17383 31.4999 2.08688 28.0257 5.10137 24.3198C5.10137 24.3198 10.2028 31.0367 22.2608 28.2573C24.5796 27.794 27.3622 25.0146 26.2028 22.4668C25.739 21.3087 24.8115 20.3823 23.884 19.6874C21.5651 18.0661 19.2463 18.0661 16.6956 17.6029C16.6956 17.6029 12.0579 16.6764 5.33325 19.2242C2.08687 6.71684 12.0579 3.93742 12.0579 3.93742C20.6376 1.15801 30.1448 6.71684 30.1448 6.71684C35.2463 9.49625 39.884 17.1396 41.5072 20.3823C41.5072 20.6139 45.6811 30.1102 41.2753 39.3749C41.0434 37.7536 39.4202 32.4264 34.3188 31.9632C37.3333 29.4154 39.884 28.2573 39.884 28.2573C41.5072 25.9411 38.4927 26.636 38.4927 26.636L34.0869 28.9521C27.1304 32.658 24.1159 40.533 24.1159 40.533C21.1014 48.6396 24.8115 55.8198 24.8115 55.8198C26.8985 56.9779 26.2028 53.7352 26.2028 53.7352L25.5072 50.4926C25.5072 50.261 25.5072 50.0293 25.5072 49.7977C27.1304 49.5661 29.913 50.7242 29.913 50.7242L27.826 51.419C27.826 51.419 25.5072 53.7352 28.5217 54.1985C28.5217 54.1985 35.7101 50.4926 38.2608 47.9448C38.2608 47.9448 44.7535 42.1543 46.3767 35.2058L46.8405 29.647C47.768 30.1102 48.9275 30.5735 50.0869 30.5735C53.5651 30.5735 56.5796 27.5624 56.5796 24.0882C56.5796 20.6139 53.3332 17.6029 49.855 17.6029C47.5361 17.6029 45.6811 18.761 44.5217 20.3823C43.3622 17.1396 41.739 14.3602 40.1159 12.044L40.5796 12.7389C41.2753 11.3492 49.855 5.32713 49.855 5.32713C59.826 -0.231693 68.6376 4.86389 68.6376 4.86389C71.1883 6.02198 72.8115 8.10654 73.9709 10.4227C75.3622 13.2021 76.0579 15.9815 76.2898 18.9926C76.7535 22.6985 75.826 26.4043 74.8985 29.8786C73.5072 34.2793 71.1883 38.4485 68.6376 42.1543C66.0869 45.8602 63.3043 49.1029 59.826 51.8823C58.8985 52.5771 57.739 53.5036 56.8115 54.1985C53.3332 56.5146 49.6231 58.136 45.6811 59.5257C44.7535 59.7573 43.826 60.2205 42.8985 60.4521C42.2028 60.6837 40.8115 60.6837 40.3477 61.6102C39.884 62.5367 40.5796 62.9999 41.5072 63.2315C46.1448 62.9999 50.7825 60.9154 54.7246 58.8308C58.2028 56.9779 61.913 54.8933 65.1593 52.3455C72.3477 46.5551 76.7535 38.6801 79.0724 29.8786C83.2463 12.044 74.6666 5.32713 74.6666 5.32713ZM24.1159 23.6249C24.1159 23.6249 15.9999 29.8786 7.65209 21.5404C7.65209 21.772 17.3912 17.8345 24.1159 23.6249ZM39.6521 41.9227C39.6521 41.9227 39.1883 42.386 38.4927 43.0808C37.1014 40.0698 34.3188 35.9007 30.3767 35.669C30.6086 35.2058 31.0724 34.9742 31.3043 34.7426C33.3912 35.4374 38.2608 37.522 39.6521 41.9227ZM35.9419 45.6286C35.4782 46.0918 35.0144 46.3235 34.7825 46.7867C33.3912 44.0073 31.0724 40.533 27.5941 39.6065C27.826 39.3749 28.0579 38.9117 28.0579 38.6801C30.6086 39.6065 34.5506 41.6911 35.9419 45.6286ZM25.5072 46.0918C25.739 45.1654 25.9709 44.0073 26.2028 43.0808C28.2898 44.2389 31.0724 46.0918 32.2318 49.1029C31.9999 49.3345 31.768 49.5661 31.5361 49.5661C29.4492 46.7867 26.4347 46.3235 25.5072 46.0918ZM49.855 19.919C52.1738 19.919 54.0289 21.772 54.0289 24.0882C54.0289 26.4043 52.1738 28.2573 49.855 28.2573C47.5361 28.2573 45.6811 26.4043 45.6811 24.0882C45.6811 21.772 47.5361 19.919 49.855 19.919Z" fill="#A9D944"/>
</g>
<defs>
<clipPath id="clip0_4612_9809">
<rect width="80" height="63" fill="white"/>
</clipPath>
</defs>
</svg>
