<svg width="173" height="137" viewBox="0 0 173 137" fill="none" xmlns="http://www.w3.org/2000/svg">
<g opacity="0.4" clip-path="url(#clip0_4612_9614)">
<path d="M161.466 11.5846C143.414 -7.05143 114.831 2.01475 114.831 2.01475C98.785 6.54784 84.7444 23.1692 84.7444 23.1692C79.2285 16.6214 74.7154 12.592 74.7154 12.592C34.5995 -14.1029 12.0343 9.5699 12.0343 9.5699C-6.0179 25.6875 6.51833 46.3383 6.51833 46.3383C6.51833 46.3383 -6.51935 60.9449 5.01399 75.5515C5.01399 75.5515 13.0372 87.1361 34.098 83.6103C37.1067 83.1067 41.1183 80.5883 43.6256 79.0773C50.1444 75.0478 54.6575 69.5074 58.6691 63.4633C59.672 61.9523 58.6691 61.4486 57.1647 61.4486C56.1618 61.4486 55.6604 61.9523 54.6575 62.9596C53.6546 64.4706 52.6517 65.478 51.6488 66.989C48.1386 71.0184 44.127 74.5442 39.1125 77.0626C28.0807 82.0993 17.0488 77.0626 9.02558 68.5001C9.02558 68.5001 4.51254 60.9449 11.0314 52.8861C11.0314 52.8861 22.0633 67.4927 48.1386 61.4486C53.1531 60.4412 59.1705 54.3971 56.6633 48.8567C55.6604 46.3383 53.6546 44.3236 51.6488 42.8125C46.6343 39.2868 41.6198 39.2868 36.1038 38.2795C36.1038 38.2795 26.0749 36.2648 11.5328 41.8052C4.51254 14.6067 26.0749 8.56254 26.0749 8.56254C44.6285 2.51842 65.1879 14.6067 65.1879 14.6067C76.2198 20.6508 86.2488 37.2721 89.7589 44.3236C89.7589 44.8273 98.785 65.478 89.2575 85.6251C88.756 82.0993 85.2459 70.5148 74.214 69.5074C80.7328 63.967 86.2488 61.4486 86.2488 61.4486C89.7589 56.4118 83.2401 57.9228 83.2401 57.9228L73.7125 62.9596C58.6691 71.0184 52.1502 88.1434 52.1502 88.1434C45.6314 105.772 53.6546 121.386 53.6546 121.386C58.1676 123.904 56.6633 116.853 56.6633 116.853L55.1589 109.802C55.1589 109.298 55.1589 108.794 55.1589 108.29C58.6691 107.787 64.6865 110.305 64.6865 110.305L60.1734 111.816C60.1734 111.816 55.1589 116.853 61.6778 117.86C61.6778 117.86 77.2227 109.802 82.7386 104.261C82.7386 104.261 96.7792 91.6692 100.289 76.5589L101.292 64.4706C103.298 65.478 105.805 66.4853 108.313 66.4853C115.834 66.4853 122.353 59.9375 122.353 52.3824C122.353 44.8273 115.333 38.2795 107.811 38.2795C102.797 38.2795 98.785 40.7978 96.2778 44.3236C93.7705 37.2721 90.2604 31.228 86.7502 26.1912L87.7531 27.7022C89.2575 24.6802 107.811 11.5846 107.811 11.5846C129.373 -0.503635 148.428 10.5772 148.428 10.5772C153.944 13.0956 157.455 17.6287 159.962 22.6655C162.971 28.7096 164.475 34.7537 164.976 41.3015C165.979 49.3603 163.973 57.4192 161.968 64.9743C158.959 74.5442 153.944 83.6104 148.428 91.6692C142.913 99.728 136.895 106.779 129.373 112.824C127.368 114.335 124.86 116.349 122.855 117.86C115.333 122.897 107.31 126.423 98.785 129.445C96.7792 129.949 94.7734 130.956 92.7676 131.46C91.2633 131.963 88.2546 131.963 87.2517 133.978C86.2488 135.993 87.7531 137 89.7589 137.504C99.7879 137 109.817 132.467 118.342 127.934C125.863 123.904 133.886 119.371 140.907 113.831C156.452 101.239 165.979 84.114 170.994 64.9743C180.02 26.1912 161.466 11.5846 161.466 11.5846ZM52.1502 51.375C52.1502 51.375 34.5995 64.9743 16.5473 46.842C16.5473 47.3456 37.6082 38.7831 52.1502 51.375ZM85.7473 91.1655C85.7473 91.1655 84.7444 92.1728 83.2401 93.6839C80.2314 87.1361 74.214 78.0699 65.6894 77.5662C66.1908 76.5589 67.1937 76.0552 67.6952 75.5515C72.2082 77.0625 82.7386 81.5956 85.7473 91.1655ZM77.7241 99.2243C76.7212 100.232 75.7183 100.735 75.2169 101.743C72.2082 95.6986 67.1937 88.1434 59.672 86.1287C60.1734 85.6251 60.6749 84.6177 60.6749 84.114C66.1908 86.1287 74.7154 90.6618 77.7241 99.2243ZM55.1589 100.232C55.6604 98.217 56.1618 95.6986 56.6633 93.6839C61.1763 96.2023 67.1937 100.232 69.7009 106.779C69.1995 107.283 68.6981 107.787 68.1966 107.787C63.6836 101.743 57.1647 100.735 55.1589 100.232ZM107.811 43.3162C112.826 43.3162 116.837 47.3456 116.837 52.3824C116.837 57.4192 112.826 61.4486 107.811 61.4486C102.797 61.4486 98.785 57.4192 98.785 52.3824C98.785 47.3456 102.797 43.3162 107.811 43.3162Z" fill="white"/>
</g>
<defs>
<clipPath id="clip0_4612_9614">
<rect width="173" height="137" fill="white"/>
</clipPath>
</defs>
</svg>
