<svg width="98" height="130" viewBox="0 0 98 130" fill="none" xmlns="http://www.w3.org/2000/svg">
<path d="M96.5706 64.5785C104.856 37.8583 73.9992 2.51877 57.1421 14.2986C43.7135 23.78 59.4278 37.8583 54.5706 53.6606C49.7135 69.4628 35.7135 81.8173 51.4278 86.7016C67.1421 91.8733 88.8563 89.2874 96.5706 64.5785Z" fill="#A9D944"/>
<path d="M17 33.9C26.4 33.9 34 26.3 34 16.9C34 7.6 26.4 0 17 0C7.6 0 0 7.6 0 17C0.0999985 26.3 7.7 33.9 17 33.9ZM17 2.2C25.2 2.2 31.8 8.8 31.8 17C31.8 25.1 25.2 31.8 17 31.8C8.8 31.8 2.3 25.1 2.3 17C2.3 8.8 8.9 2.2 17 2.2Z" fill="#A9D944"/>
<path d="M11.3 124.3C11.3 127.2 13.7 129.6 16.6 129.6C19.6 129.7 22 127.3 22 124.3C22 121.4 19.6 119 16.7 119C13.7 119 11.3 121.4 11.3 124.3Z" fill="#A9D944"/>
</svg>
