<svg width="125" height="125" viewBox="0 0 125 125" fill="none" xmlns="http://www.w3.org/2000/svg">
<g clip-path="url(#clip0_2993_879)">
<mask id="mask0_2993_879" style="mask-type:luminance" maskUnits="userSpaceOnUse" x="0" y="0" width="125" height="125">
<path d="M0 1.52588e-05H125V125H0V1.52588e-05Z" fill="white"/>
</mask>
<g mask="url(#mask0_2993_879)">
<path d="M57.0068 79.895H5.49316C3.479 79.895 1.83105 78.2471 1.83105 76.2329V48.7671C1.83105 46.7529 3.479 45.105 5.49316 45.105H119.507C121.521 45.105 123.169 46.7532 123.169 48.7671V76.2329C123.169 78.2471 121.521 79.895 119.507 79.895H67.9932M64.331 79.895H60.6689" stroke="#A9D944" stroke-width="4.12109" stroke-miterlimit="22.926"/>
<path d="M10.7938 45.105L10.4347 32.4402L24.7225 24.7227L32.4401 10.4348L48.6725 10.895L62.5001 2.38039L76.3275 10.895L92.5599 10.4348L100.277 24.7227L114.565 32.4402L114.206 45.105M114.206 79.895L114.565 92.5598L100.277 100.277L92.5599 114.565L76.3275 114.105L62.5001 122.62L48.6725 114.105L32.4401 114.565L24.7225 100.277L10.4347 92.5598L10.7938 79.895" stroke="#A9D944" stroke-width="4.12109" stroke-miterlimit="22.926"/>
<path d="M39.9066 24.8025C46.5084 20.8364 54.2374 18.5547 62.4999 18.5547C80.5907 18.5547 96.1258 29.4873 102.865 45.105M22.1349 45.105C25.3053 37.7573 30.4232 31.4475 36.8375 26.8245M102.865 79.895C96.1258 95.5129 80.5907 106.445 62.4999 106.445C44.4093 106.445 28.8741 95.5129 22.1349 79.895" stroke="#A9D944" stroke-width="4.12109" stroke-miterlimit="22.926"/>
<path d="M82.6414 35.0342V31.3721M75.3171 31.3718V27.7097" stroke="#A9D944" stroke-width="4.12109" stroke-miterlimit="2.613"/>
<path d="M54.8671 69.7198L60.4352 55.0997L61.0573 55.099L66.5748 69.7198" stroke="#A9D944" stroke-width="4.12109" stroke-miterlimit="10" stroke-linecap="square"/>
<path d="M56.6035 66.0787H64.866" stroke="#A9D944" stroke-width="4.12109" stroke-miterlimit="10" stroke-linecap="round" stroke-linejoin="bevel"/>
<path d="M78.0201 69.9003V55.099L78.6705 55.0992L87.8273 69.6718H88.4779V55.0714" stroke="#A9D944" stroke-width="4.12109" stroke-miterlimit="10" stroke-linecap="square"/>
<path d="M109.156 62.2664C109.156 66.2312 106.955 69.4004 103.464 69.4617H99.2694V55.0713H103.345C107.174 55.0713 109.156 58.3013 109.156 62.2664Z" stroke="#A9D944" stroke-width="4.12109" stroke-miterlimit="10" stroke-linecap="square"/>
<path d="M16.5762 61.9283H20.9036C23.1079 61.9283 24.895 63.7151 24.895 65.9197C24.895 68.1241 23.1079 69.929 20.9036 69.929H15.8438V55.0999H20.1511C22.0356 55.0999 23.5635 56.6275 23.5635 58.512C23.5635 60.3968 22.0359 61.9283 20.1514 61.9283" stroke="#A9D944" stroke-width="4.12109" stroke-miterlimit="10" stroke-linecap="square"/>
<path d="M38.3668 63.7863L43.2535 69.5629" stroke="#A9D944" stroke-width="4.12109" stroke-miterlimit="10" stroke-linecap="square" stroke-linejoin="round"/>
<path d="M36.4512 62.8248L39.6318 62.8077C41.8374 62.8077 43.7039 61.0821 43.7039 58.9539C43.7039 56.8255 41.8374 55.0999 39.6318 55.0999H35.689L35.6865 69.929" stroke="#A9D944" stroke-width="4.12109" stroke-miterlimit="10" stroke-linecap="square"/>
</g>
</g>
<defs>
<clipPath id="clip0_2993_879">
<rect width="125" height="125" fill="white"/>
</clipPath>
</defs>
</svg>
