<svg width="125" height="125" viewBox="0 0 125 125" fill="none" xmlns="http://www.w3.org/2000/svg">
<g clip-path="url(#clip0_2993_996)">
<mask id="path-1-outside-1_2993_996" maskUnits="userSpaceOnUse" x="-0.511108" y="17.0664" width="126" height="91" fill="black">
<rect fill="white" x="-0.511108" y="17.0664" width="126" height="91"/>
<path d="M124.082 61.4648L121.025 58.3984L124.266 53.5391C124.378 53.3681 124.453 53.1756 124.487 52.9738C124.521 52.772 124.512 52.5653 124.461 52.3672L122.508 44.5547C122.427 44.241 122.244 43.963 121.988 43.7643C121.732 43.5657 121.418 43.4576 121.094 43.457H111.674L104.172 39.7051C103.941 39.59 103.683 39.5379 103.425 39.5541C103.167 39.5702 102.918 39.6539 102.703 39.7969L97.2129 43.457H91.3086V37.1094C91.3088 36.917 91.2709 36.7265 91.1972 36.5489C91.1234 36.3712 91.0153 36.2099 90.8789 36.0742L86.9727 32.168C86.837 32.0316 86.6757 31.9235 86.498 31.8498C86.3204 31.776 86.1299 31.7381 85.9375 31.7383H81.3477L79.5743 19.3242C79.5248 18.9751 79.351 18.6556 79.0847 18.4245C78.8184 18.1934 78.4776 18.0662 78.125 18.0664H68.3594C68.1317 18.0664 67.9071 18.1192 67.7032 18.2207L55.9844 24.0801C55.6633 24.2399 55.4122 24.5125 55.2793 24.8457L51.836 33.4551L35.7832 29.8828L28.2227 24.2187C28.0052 24.0556 27.7466 23.9563 27.4758 23.9318C27.205 23.9073 26.9328 23.9586 26.6895 24.0801L19.1856 27.832H9.76567C9.37717 27.832 9.00458 27.9864 8.72987 28.2611C8.45516 28.5358 8.30083 28.9084 8.30083 29.2969V37.1094C8.30095 37.375 8.37318 37.6355 8.50981 37.8633L13.7832 46.6523L2.87114 57.5586C2.66633 57.7626 2.52694 58.0231 2.47075 58.3066L0.517624 68.0723C0.46312 68.3432 0.486477 68.624 0.58499 68.8822C0.683504 69.1404 0.853143 69.3655 1.07426 69.5312L16.6993 81.25C16.8966 81.3971 17.1278 81.4921 17.3715 81.5262C17.6153 81.5603 17.8637 81.5325 18.0938 81.4453L33.7188 75.5859C33.9407 75.5025 34.139 75.3665 34.2969 75.1896C34.4547 75.0127 34.5673 74.8002 34.625 74.5703L36.2989 67.8672H42.6231L49.6895 71.4004L53.084 78.1875L49.5899 86.9238L44.1094 90.5781C43.9086 90.7118 43.744 90.893 43.6302 91.1056C43.5164 91.3182 43.4569 91.5557 43.4571 91.7969V99.6094C43.4571 99.9979 43.6114 100.37 43.8861 100.645C44.1608 100.92 44.5334 101.074 44.9219 101.074H52.7344C53.0236 101.074 53.3063 100.988 53.5469 100.828L59.4063 96.9219C59.6071 96.7882 59.7717 96.607 59.8855 96.3944C59.9993 96.1818 60.0588 95.9443 60.0586 95.7031V92.2852L65.1036 85.5566L76.3848 87.168L74.7364 95.416C74.666 95.7664 74.7265 96.1305 74.9064 96.4393C75.0864 96.7482 75.3733 96.9803 75.7129 97.0918L80.5704 98.7129V105.469C80.5704 105.857 80.7247 106.23 80.9994 106.505C81.2741 106.779 81.6467 106.934 82.0352 106.934H89.8477C90.04 106.934 90.2305 106.896 90.4082 106.822C90.5858 106.748 90.7472 106.64 90.8829 106.504L96.3145 101.074H103.516C103.853 101.074 104.181 100.958 104.442 100.744C104.704 100.531 104.884 100.233 104.951 99.9023L106.904 90.1367C106.947 89.9238 106.943 89.7039 106.89 89.4929C106.838 89.282 106.74 89.0854 106.602 88.9171C106.465 88.7489 106.291 88.6134 106.095 88.5203C105.899 88.4272 105.684 88.3789 105.467 88.3789H96.3106L93.6817 85.7422L96.4844 81.543H109.375C109.602 81.543 109.827 81.49 110.03 81.3883C110.234 81.2866 110.41 81.139 110.547 80.957L116.094 73.5605L123.402 71.7324C123.719 71.6535 124.001 71.4709 124.202 71.2135C124.403 70.9562 124.512 70.639 124.512 70.3125V62.5C124.512 62.3077 124.474 62.1172 124.4 61.9395C124.327 61.7619 124.218 61.6005 124.082 61.4648ZM16.6602 47.9102C16.8915 47.6794 17.0389 47.3779 17.0789 47.0537C17.1189 46.7294 17.0492 46.4011 16.8809 46.1211L11.2305 36.7031V30.7617H19.5313C19.759 30.7617 19.9837 30.7089 20.1875 30.6074L27.1895 27.1055L34.2774 32.4219C34.4437 32.5469 34.6348 32.6348 34.8379 32.6797L52.4161 36.5859C52.7552 36.6618 53.1103 36.6144 53.4177 36.4523C53.7252 36.2902 53.9648 36.0239 54.0938 35.7012L57.793 26.4512L68.7051 20.9961H76.8555L78.629 33.4102C78.6784 33.7593 78.8522 34.0788 79.1185 34.3099C79.3848 34.541 79.7256 34.6682 80.0782 34.668H85.3301L88.379 37.7168V44.9219C88.379 45.3104 88.5333 45.683 88.808 45.9577C89.0827 46.2324 89.4553 46.3867 89.8438 46.3867H97.6563C97.9455 46.3866 98.2281 46.301 98.4688 46.1406L103.621 42.7051L110.672 46.2324C110.876 46.3339 111.1 46.3867 111.328 46.3867H119.951L121.469 52.4609L118.359 57.1289H7.44341L16.6602 47.9102ZM121.582 69.1699L114.879 70.8438C114.553 70.9256 114.264 71.1173 114.063 71.3867L108.643 78.6133H95.7032C95.462 78.6131 95.2245 78.6726 95.0119 78.7864C94.7992 78.9002 94.618 79.0648 94.4844 79.2656L90.5782 85.125C90.3899 85.4065 90.3052 85.7447 90.3387 86.0817C90.3722 86.4188 90.5217 86.7337 90.7618 86.9727L94.668 90.8789C94.8037 91.0152 94.965 91.1234 95.1427 91.1971C95.3203 91.2709 95.5108 91.3087 95.7032 91.3086H103.682L102.314 98.1445H95.7032C95.5108 98.1444 95.3203 98.1823 95.1427 98.256C94.965 98.3298 94.8037 98.4379 94.668 98.5742L89.2364 104.004H83.4961V97.6562C83.4959 97.3489 83.399 97.0495 83.2192 96.8003C83.0394 96.551 82.7858 96.3647 82.4942 96.2676L77.8614 94.7266L79.5625 86.2285C79.6014 86.0332 79.6001 85.8319 79.5586 85.6371C79.5171 85.4423 79.4362 85.258 79.3211 85.0955C79.2059 84.933 79.0588 84.7956 78.8887 84.6919C78.7187 84.5882 78.5293 84.5202 78.3321 84.4922L64.6602 82.5391C64.4003 82.5016 64.1352 82.5348 63.8926 82.6352C63.6499 82.7355 63.4388 82.8993 63.2813 83.1094L57.4219 90.9219C57.2321 91.1756 57.1294 91.4839 57.129 91.8008V94.9258L52.2911 98.1445H46.3868V92.5781L51.5938 89.1074C51.8404 88.9429 52.0312 88.7072 52.1407 88.4316L56.0469 78.666C56.1238 78.474 56.1592 78.2679 56.1508 78.0612C56.1424 77.8545 56.0903 77.6519 55.9981 77.4668L52.0918 69.6543C51.9502 69.37 51.7199 69.1397 51.4356 68.998L43.6231 65.0918C43.4195 64.992 43.1956 64.9405 42.9688 64.9414H35.1563C34.8298 64.9413 34.5126 65.0505 34.2553 65.2515C33.9979 65.4526 33.8153 65.7339 33.7364 66.0508L31.9688 73.1172L17.8145 78.4238L3.57036 67.7422L5.10747 60.0586H118.533L121.582 63.1074V69.1699Z"/>
</mask>
<path d="M124.082 61.4648L121.025 58.3984L124.266 53.5391C124.378 53.3681 124.453 53.1756 124.487 52.9738C124.521 52.772 124.512 52.5653 124.461 52.3672L122.508 44.5547C122.427 44.241 122.244 43.963 121.988 43.7643C121.732 43.5657 121.418 43.4576 121.094 43.457H111.674L104.172 39.7051C103.941 39.59 103.683 39.5379 103.425 39.5541C103.167 39.5702 102.918 39.6539 102.703 39.7969L97.2129 43.457H91.3086V37.1094C91.3088 36.917 91.2709 36.7265 91.1972 36.5489C91.1234 36.3712 91.0153 36.2099 90.8789 36.0742L86.9727 32.168C86.837 32.0316 86.6757 31.9235 86.498 31.8498C86.3204 31.776 86.1299 31.7381 85.9375 31.7383H81.3477L79.5743 19.3242C79.5248 18.9751 79.351 18.6556 79.0847 18.4245C78.8184 18.1934 78.4776 18.0662 78.125 18.0664H68.3594C68.1317 18.0664 67.9071 18.1192 67.7032 18.2207L55.9844 24.0801C55.6633 24.2399 55.4122 24.5125 55.2793 24.8457L51.836 33.4551L35.7832 29.8828L28.2227 24.2187C28.0052 24.0556 27.7466 23.9563 27.4758 23.9318C27.205 23.9073 26.9328 23.9586 26.6895 24.0801L19.1856 27.832H9.76567C9.37717 27.832 9.00458 27.9864 8.72987 28.2611C8.45516 28.5358 8.30083 28.9084 8.30083 29.2969V37.1094C8.30095 37.375 8.37318 37.6355 8.50981 37.8633L13.7832 46.6523L2.87114 57.5586C2.66633 57.7626 2.52694 58.0231 2.47075 58.3066L0.517624 68.0723C0.46312 68.3432 0.486477 68.624 0.58499 68.8822C0.683504 69.1404 0.853143 69.3655 1.07426 69.5312L16.6993 81.25C16.8966 81.3971 17.1278 81.4921 17.3715 81.5262C17.6153 81.5603 17.8637 81.5325 18.0938 81.4453L33.7188 75.5859C33.9407 75.5025 34.139 75.3665 34.2969 75.1896C34.4547 75.0127 34.5673 74.8002 34.625 74.5703L36.2989 67.8672H42.6231L49.6895 71.4004L53.084 78.1875L49.5899 86.9238L44.1094 90.5781C43.9086 90.7118 43.744 90.893 43.6302 91.1056C43.5164 91.3182 43.4569 91.5557 43.4571 91.7969V99.6094C43.4571 99.9979 43.6114 100.37 43.8861 100.645C44.1608 100.92 44.5334 101.074 44.9219 101.074H52.7344C53.0236 101.074 53.3063 100.988 53.5469 100.828L59.4063 96.9219C59.6071 96.7882 59.7717 96.607 59.8855 96.3944C59.9993 96.1818 60.0588 95.9443 60.0586 95.7031V92.2852L65.1036 85.5566L76.3848 87.168L74.7364 95.416C74.666 95.7664 74.7265 96.1305 74.9064 96.4393C75.0864 96.7482 75.3733 96.9803 75.7129 97.0918L80.5704 98.7129V105.469C80.5704 105.857 80.7247 106.23 80.9994 106.505C81.2741 106.779 81.6467 106.934 82.0352 106.934H89.8477C90.04 106.934 90.2305 106.896 90.4082 106.822C90.5858 106.748 90.7472 106.64 90.8829 106.504L96.3145 101.074H103.516C103.853 101.074 104.181 100.958 104.442 100.744C104.704 100.531 104.884 100.233 104.951 99.9023L106.904 90.1367C106.947 89.9238 106.943 89.7039 106.89 89.4929C106.838 89.282 106.74 89.0854 106.602 88.9171C106.465 88.7489 106.291 88.6134 106.095 88.5203C105.899 88.4272 105.684 88.3789 105.467 88.3789H96.3106L93.6817 85.7422L96.4844 81.543H109.375C109.602 81.543 109.827 81.49 110.03 81.3883C110.234 81.2866 110.41 81.139 110.547 80.957L116.094 73.5605L123.402 71.7324C123.719 71.6535 124.001 71.4709 124.202 71.2135C124.403 70.9562 124.512 70.639 124.512 70.3125V62.5C124.512 62.3077 124.474 62.1172 124.4 61.9395C124.327 61.7619 124.218 61.6005 124.082 61.4648ZM16.6602 47.9102C16.8915 47.6794 17.0389 47.3779 17.0789 47.0537C17.1189 46.7294 17.0492 46.4011 16.8809 46.1211L11.2305 36.7031V30.7617H19.5313C19.759 30.7617 19.9837 30.7089 20.1875 30.6074L27.1895 27.1055L34.2774 32.4219C34.4437 32.5469 34.6348 32.6348 34.8379 32.6797L52.4161 36.5859C52.7552 36.6618 53.1103 36.6144 53.4177 36.4523C53.7252 36.2902 53.9648 36.0239 54.0938 35.7012L57.793 26.4512L68.7051 20.9961H76.8555L78.629 33.4102C78.6784 33.7593 78.8522 34.0788 79.1185 34.3099C79.3848 34.541 79.7256 34.6682 80.0782 34.668H85.3301L88.379 37.7168V44.9219C88.379 45.3104 88.5333 45.683 88.808 45.9577C89.0827 46.2324 89.4553 46.3867 89.8438 46.3867H97.6563C97.9455 46.3866 98.2281 46.301 98.4688 46.1406L103.621 42.7051L110.672 46.2324C110.876 46.3339 111.1 46.3867 111.328 46.3867H119.951L121.469 52.4609L118.359 57.1289H7.44341L16.6602 47.9102ZM121.582 69.1699L114.879 70.8438C114.553 70.9256 114.264 71.1173 114.063 71.3867L108.643 78.6133H95.7032C95.462 78.6131 95.2245 78.6726 95.0119 78.7864C94.7992 78.9002 94.618 79.0648 94.4844 79.2656L90.5782 85.125C90.3899 85.4065 90.3052 85.7447 90.3387 86.0817C90.3722 86.4188 90.5217 86.7337 90.7618 86.9727L94.668 90.8789C94.8037 91.0152 94.965 91.1234 95.1427 91.1971C95.3203 91.2709 95.5108 91.3087 95.7032 91.3086H103.682L102.314 98.1445H95.7032C95.5108 98.1444 95.3203 98.1823 95.1427 98.256C94.965 98.3298 94.8037 98.4379 94.668 98.5742L89.2364 104.004H83.4961V97.6562C83.4959 97.3489 83.399 97.0495 83.2192 96.8003C83.0394 96.551 82.7858 96.3647 82.4942 96.2676L77.8614 94.7266L79.5625 86.2285C79.6014 86.0332 79.6001 85.8319 79.5586 85.6371C79.5171 85.4423 79.4362 85.258 79.3211 85.0955C79.2059 84.933 79.0588 84.7956 78.8887 84.6919C78.7187 84.5882 78.5293 84.5202 78.3321 84.4922L64.6602 82.5391C64.4003 82.5016 64.1352 82.5348 63.8926 82.6352C63.6499 82.7355 63.4388 82.8993 63.2813 83.1094L57.4219 90.9219C57.2321 91.1756 57.1294 91.4839 57.129 91.8008V94.9258L52.2911 98.1445H46.3868V92.5781L51.5938 89.1074C51.8404 88.9429 52.0312 88.7072 52.1407 88.4316L56.0469 78.666C56.1238 78.474 56.1592 78.2679 56.1508 78.0612C56.1424 77.8545 56.0903 77.6519 55.9981 77.4668L52.0918 69.6543C51.9502 69.37 51.7199 69.1397 51.4356 68.998L43.6231 65.0918C43.4195 64.992 43.1956 64.9405 42.9688 64.9414H35.1563C34.8298 64.9413 34.5126 65.0505 34.2553 65.2515C33.9979 65.4526 33.8153 65.7339 33.7364 66.0508L31.9688 73.1172L17.8145 78.4238L3.57036 67.7422L5.10747 60.0586H118.533L121.582 63.1074V69.1699Z" fill="#A9D944"/>
<path d="M124.082 61.4648L121.025 58.3984L124.266 53.5391C124.378 53.3681 124.453 53.1756 124.487 52.9738C124.521 52.772 124.512 52.5653 124.461 52.3672L122.508 44.5547C122.427 44.241 122.244 43.963 121.988 43.7643C121.732 43.5657 121.418 43.4576 121.094 43.457H111.674L104.172 39.7051C103.941 39.59 103.683 39.5379 103.425 39.5541C103.167 39.5702 102.918 39.6539 102.703 39.7969L97.2129 43.457H91.3086V37.1094C91.3088 36.917 91.2709 36.7265 91.1972 36.5489C91.1234 36.3712 91.0153 36.2099 90.8789 36.0742L86.9727 32.168C86.837 32.0316 86.6757 31.9235 86.498 31.8498C86.3204 31.776 86.1299 31.7381 85.9375 31.7383H81.3477L79.5743 19.3242C79.5248 18.9751 79.351 18.6556 79.0847 18.4245C78.8184 18.1934 78.4776 18.0662 78.125 18.0664H68.3594C68.1317 18.0664 67.9071 18.1192 67.7032 18.2207L55.9844 24.0801C55.6633 24.2399 55.4122 24.5125 55.2793 24.8457L51.836 33.4551L35.7832 29.8828L28.2227 24.2187C28.0052 24.0556 27.7466 23.9563 27.4758 23.9318C27.205 23.9073 26.9328 23.9586 26.6895 24.0801L19.1856 27.832H9.76567C9.37717 27.832 9.00458 27.9864 8.72987 28.2611C8.45516 28.5358 8.30083 28.9084 8.30083 29.2969V37.1094C8.30095 37.375 8.37318 37.6355 8.50981 37.8633L13.7832 46.6523L2.87114 57.5586C2.66633 57.7626 2.52694 58.0231 2.47075 58.3066L0.517624 68.0723C0.46312 68.3432 0.486477 68.624 0.58499 68.8822C0.683504 69.1404 0.853143 69.3655 1.07426 69.5312L16.6993 81.25C16.8966 81.3971 17.1278 81.4921 17.3715 81.5262C17.6153 81.5603 17.8637 81.5325 18.0938 81.4453L33.7188 75.5859C33.9407 75.5025 34.139 75.3665 34.2969 75.1896C34.4547 75.0127 34.5673 74.8002 34.625 74.5703L36.2989 67.8672H42.6231L49.6895 71.4004L53.084 78.1875L49.5899 86.9238L44.1094 90.5781C43.9086 90.7118 43.744 90.893 43.6302 91.1056C43.5164 91.3182 43.4569 91.5557 43.4571 91.7969V99.6094C43.4571 99.9979 43.6114 100.37 43.8861 100.645C44.1608 100.92 44.5334 101.074 44.9219 101.074H52.7344C53.0236 101.074 53.3063 100.988 53.5469 100.828L59.4063 96.9219C59.6071 96.7882 59.7717 96.607 59.8855 96.3944C59.9993 96.1818 60.0588 95.9443 60.0586 95.7031V92.2852L65.1036 85.5566L76.3848 87.168L74.7364 95.416C74.666 95.7664 74.7265 96.1305 74.9064 96.4393C75.0864 96.7482 75.3733 96.9803 75.7129 97.0918L80.5704 98.7129V105.469C80.5704 105.857 80.7247 106.23 80.9994 106.505C81.2741 106.779 81.6467 106.934 82.0352 106.934H89.8477C90.04 106.934 90.2305 106.896 90.4082 106.822C90.5858 106.748 90.7472 106.64 90.8829 106.504L96.3145 101.074H103.516C103.853 101.074 104.181 100.958 104.442 100.744C104.704 100.531 104.884 100.233 104.951 99.9023L106.904 90.1367C106.947 89.9238 106.943 89.7039 106.89 89.4929C106.838 89.282 106.74 89.0854 106.602 88.9171C106.465 88.7489 106.291 88.6134 106.095 88.5203C105.899 88.4272 105.684 88.3789 105.467 88.3789H96.3106L93.6817 85.7422L96.4844 81.543H109.375C109.602 81.543 109.827 81.49 110.03 81.3883C110.234 81.2866 110.41 81.139 110.547 80.957L116.094 73.5605L123.402 71.7324C123.719 71.6535 124.001 71.4709 124.202 71.2135C124.403 70.9562 124.512 70.639 124.512 70.3125V62.5C124.512 62.3077 124.474 62.1172 124.4 61.9395C124.327 61.7619 124.218 61.6005 124.082 61.4648ZM16.6602 47.9102C16.8915 47.6794 17.0389 47.3779 17.0789 47.0537C17.1189 46.7294 17.0492 46.4011 16.8809 46.1211L11.2305 36.7031V30.7617H19.5313C19.759 30.7617 19.9837 30.7089 20.1875 30.6074L27.1895 27.1055L34.2774 32.4219C34.4437 32.5469 34.6348 32.6348 34.8379 32.6797L52.4161 36.5859C52.7552 36.6618 53.1103 36.6144 53.4177 36.4523C53.7252 36.2902 53.9648 36.0239 54.0938 35.7012L57.793 26.4512L68.7051 20.9961H76.8555L78.629 33.4102C78.6784 33.7593 78.8522 34.0788 79.1185 34.3099C79.3848 34.541 79.7256 34.6682 80.0782 34.668H85.3301L88.379 37.7168V44.9219C88.379 45.3104 88.5333 45.683 88.808 45.9577C89.0827 46.2324 89.4553 46.3867 89.8438 46.3867H97.6563C97.9455 46.3866 98.2281 46.301 98.4688 46.1406L103.621 42.7051L110.672 46.2324C110.876 46.3339 111.1 46.3867 111.328 46.3867H119.951L121.469 52.4609L118.359 57.1289H7.44341L16.6602 47.9102ZM121.582 69.1699L114.879 70.8438C114.553 70.9256 114.264 71.1173 114.063 71.3867L108.643 78.6133H95.7032C95.462 78.6131 95.2245 78.6726 95.0119 78.7864C94.7992 78.9002 94.618 79.0648 94.4844 79.2656L90.5782 85.125C90.3899 85.4065 90.3052 85.7447 90.3387 86.0817C90.3722 86.4188 90.5217 86.7337 90.7618 86.9727L94.668 90.8789C94.8037 91.0152 94.965 91.1234 95.1427 91.1971C95.3203 91.2709 95.5108 91.3087 95.7032 91.3086H103.682L102.314 98.1445H95.7032C95.5108 98.1444 95.3203 98.1823 95.1427 98.256C94.965 98.3298 94.8037 98.4379 94.668 98.5742L89.2364 104.004H83.4961V97.6562C83.4959 97.3489 83.399 97.0495 83.2192 96.8003C83.0394 96.551 82.7858 96.3647 82.4942 96.2676L77.8614 94.7266L79.5625 86.2285C79.6014 86.0332 79.6001 85.8319 79.5586 85.6371C79.5171 85.4423 79.4362 85.258 79.3211 85.0955C79.2059 84.933 79.0588 84.7956 78.8887 84.6919C78.7187 84.5882 78.5293 84.5202 78.3321 84.4922L64.6602 82.5391C64.4003 82.5016 64.1352 82.5348 63.8926 82.6352C63.6499 82.7355 63.4388 82.8993 63.2813 83.1094L57.4219 90.9219C57.2321 91.1756 57.1294 91.4839 57.129 91.8008V94.9258L52.2911 98.1445H46.3868V92.5781L51.5938 89.1074C51.8404 88.9429 52.0312 88.7072 52.1407 88.4316L56.0469 78.666C56.1238 78.474 56.1592 78.2679 56.1508 78.0612C56.1424 77.8545 56.0903 77.6519 55.9981 77.4668L52.0918 69.6543C51.9502 69.37 51.7199 69.1397 51.4356 68.998L43.6231 65.0918C43.4195 64.992 43.1956 64.9405 42.9688 64.9414H35.1563C34.8298 64.9413 34.5126 65.0505 34.2553 65.2515C33.9979 65.4526 33.8153 65.7339 33.7364 66.0508L31.9688 73.1172L17.8145 78.4238L3.57036 67.7422L5.10747 60.0586H118.533L121.582 63.1074V69.1699Z" stroke="#A9D944" mask="url(#path-1-outside-1_2993_996)"/>
</g>
<defs>
<clipPath id="clip0_2993_996">
<rect width="125" height="125" fill="white"/>
</clipPath>
</defs>
</svg>
