<svg width="126" height="126" viewBox="0 0 126 126" fill="none" xmlns="http://www.w3.org/2000/svg">
<path fill-rule="evenodd" clip-rule="evenodd" d="M81.4355 96.3847L88.859 103.808C89.8834 104.833 91.5463 104.833 92.5707 103.808L107.418 88.9612C108.442 87.9368 108.442 86.2739 107.418 85.2495C106.393 84.2251 104.73 84.2251 103.706 85.2495L90.7148 98.2406L85.1472 92.673C84.1228 91.6486 82.4599 91.6486 81.4355 92.673C80.411 93.6974 80.411 95.3603 81.4355 96.3847Z" fill="#A9D944"/>
<path fill-rule="evenodd" clip-rule="evenodd" d="M34.125 50.4C34.125 48.8696 33.516 47.3996 32.4345 46.3155C31.3504 45.234 29.8804 44.625 28.35 44.625H24.15C22.6196 44.625 21.1496 45.234 20.0655 46.3155C18.984 47.3996 18.375 48.8696 18.375 50.4V54.6C18.375 56.1304 18.984 57.6004 20.0655 58.6845C21.1496 59.766 22.6196 60.375 24.15 60.375H28.35C29.8804 60.375 31.3504 59.766 32.4345 58.6845C33.516 57.6004 34.125 56.1304 34.125 54.6V50.4ZM28.875 50.4V54.6C28.875 54.7391 28.8199 54.873 28.7201 54.9701C28.623 55.0699 28.4891 55.125 28.35 55.125H24.15C24.0109 55.125 23.877 55.0699 23.7799 54.9701C23.6801 54.873 23.625 54.7391 23.625 54.6V50.4C23.625 50.2609 23.6801 50.127 23.7799 50.0299C23.877 49.9301 24.0109 49.875 24.15 49.875H28.35C28.4891 49.875 28.623 49.9301 28.7201 50.0299C28.8199 50.127 28.875 50.2609 28.875 50.4Z" fill="#A9D944"/>
<path fill-rule="evenodd" clip-rule="evenodd" d="M34.125 71.4C34.125 69.8696 33.516 68.3996 32.4345 67.3155C31.3504 66.234 29.8804 65.625 28.35 65.625H24.15C22.6196 65.625 21.1496 66.234 20.0655 67.3155C18.984 68.3996 18.375 69.8696 18.375 71.4V75.6C18.375 77.1304 18.984 78.6004 20.0655 79.6845C21.1496 80.766 22.6196 81.375 24.15 81.375H28.35C29.8804 81.375 31.3504 80.766 32.4345 79.6845C33.516 78.6004 34.125 77.1304 34.125 75.6V71.4ZM28.875 71.4V75.6C28.875 75.7391 28.8199 75.873 28.7201 75.9701C28.623 76.0699 28.4891 76.125 28.35 76.125H24.15C24.0109 76.125 23.877 76.0699 23.7799 75.9701C23.6801 75.873 23.625 75.7391 23.625 75.6V71.4C23.625 71.2609 23.6801 71.127 23.7799 71.0299C23.877 70.9301 24.0109 70.875 24.15 70.875H28.35C28.4891 70.875 28.623 70.9301 28.7201 71.0299C28.8199 71.127 28.875 71.2609 28.875 71.4Z" fill="#A9D944"/>
<path fill-rule="evenodd" clip-rule="evenodd" d="M34.125 92.4C34.125 90.8696 33.516 89.3996 32.4345 88.3155C31.3504 87.234 29.8804 86.625 28.35 86.625H24.15C22.6196 86.625 21.1496 87.234 20.0655 88.3155C18.984 89.3996 18.375 90.8696 18.375 92.4V96.6C18.375 98.1304 18.984 99.6004 20.0655 100.685C21.1496 101.766 22.6196 102.375 24.15 102.375H28.35C29.8804 102.375 31.3504 101.766 32.4345 100.685C33.516 99.6004 34.125 98.1304 34.125 96.6V92.4ZM28.875 92.4V96.6C28.875 96.7391 28.8199 96.873 28.7201 96.9701C28.623 97.0699 28.4891 97.125 28.35 97.125H24.15C24.0109 97.125 23.877 97.0699 23.7799 96.9701C23.6801 96.873 23.625 96.7391 23.625 96.6V92.4C23.625 92.2609 23.6801 92.127 23.7799 92.0299C23.877 91.9301 24.0109 91.875 24.15 91.875H28.35C28.4891 91.875 28.623 91.9301 28.7201 92.0299C28.8199 92.127 28.875 92.2609 28.875 92.4Z" fill="#A9D944"/>
<path fill-rule="evenodd" clip-rule="evenodd" d="M55.125 50.4C55.125 48.8696 54.516 47.3996 53.4345 46.3155C52.3504 45.234 50.8804 44.625 49.35 44.625H45.15C43.6196 44.625 42.1496 45.234 41.0655 46.3155C39.984 47.3996 39.375 48.8696 39.375 50.4V54.6C39.375 56.1304 39.984 57.6004 41.0655 58.6845C42.1496 59.766 43.6196 60.375 45.15 60.375H49.35C50.8804 60.375 52.3504 59.766 53.4345 58.6845C54.516 57.6004 55.125 56.1304 55.125 54.6V50.4ZM49.875 50.4V54.6C49.875 54.7391 49.8199 54.873 49.7201 54.9701C49.623 55.0699 49.4891 55.125 49.35 55.125H45.15C45.0109 55.125 44.877 55.0699 44.7799 54.9701C44.6801 54.873 44.625 54.7391 44.625 54.6V50.4C44.625 50.2609 44.6801 50.127 44.7799 50.0299C44.877 49.9301 45.0109 49.875 45.15 49.875H49.35C49.4891 49.875 49.623 49.9301 49.7201 50.0299C49.8199 50.127 49.875 50.2609 49.875 50.4Z" fill="#A9D944"/>
<path fill-rule="evenodd" clip-rule="evenodd" d="M55.125 71.4C55.125 69.8696 54.516 68.3996 53.4345 67.3155C52.3504 66.234 50.8804 65.625 49.35 65.625H45.15C43.6196 65.625 42.1496 66.234 41.0655 67.3155C39.984 68.3996 39.375 69.8696 39.375 71.4V75.6C39.375 77.1304 39.984 78.6004 41.0655 79.6845C42.1496 80.766 43.6196 81.375 45.15 81.375H49.35C50.8804 81.375 52.3504 80.766 53.4345 79.6845C54.516 78.6004 55.125 77.1304 55.125 75.6V71.4ZM49.875 71.4V75.6C49.875 75.7391 49.8199 75.873 49.7201 75.9701C49.623 76.0699 49.4891 76.125 49.35 76.125H45.15C45.0109 76.125 44.877 76.0699 44.7799 75.9701C44.6801 75.873 44.625 75.7391 44.625 75.6V71.4C44.625 71.2609 44.6801 71.127 44.7799 71.0299C44.877 70.9301 45.0109 70.875 45.15 70.875H49.35C49.4891 70.875 49.623 70.9301 49.7201 71.0299C49.8199 71.127 49.875 71.2609 49.875 71.4Z" fill="#A9D944"/>
<path fill-rule="evenodd" clip-rule="evenodd" d="M55.125 92.4C55.125 90.8696 54.516 89.3996 53.4345 88.3155C52.3504 87.234 50.8804 86.625 49.35 86.625H45.15C43.6196 86.625 42.1496 87.234 41.0655 88.3155C39.984 89.3996 39.375 90.8696 39.375 92.4V96.6C39.375 98.1304 39.984 99.6004 41.0655 100.685C42.1496 101.766 43.6196 102.375 45.15 102.375H49.35C50.8804 102.375 52.3504 101.766 53.4345 100.685C54.516 99.6004 55.125 98.1304 55.125 96.6V92.4ZM49.875 92.4V96.6C49.875 96.7391 49.8199 96.873 49.7201 96.9701C49.623 97.0699 49.4891 97.125 49.35 97.125H45.15C45.0109 97.125 44.877 97.0699 44.7799 96.9701C44.6801 96.873 44.625 96.7391 44.625 96.6V92.4C44.625 92.2609 44.6801 92.127 44.7799 92.0299C44.877 91.9301 45.0109 91.875 45.15 91.875H49.35C49.4891 91.875 49.623 91.9301 49.7201 92.0299C49.8199 92.127 49.875 92.2609 49.875 92.4Z" fill="#A9D944"/>
<path fill-rule="evenodd" clip-rule="evenodd" d="M76.125 50.4C76.125 48.8696 75.516 47.3996 74.4345 46.3155C73.3504 45.234 71.8804 44.625 70.35 44.625H66.15C64.6196 44.625 63.1496 45.234 62.0655 46.3155C60.984 47.3996 60.375 48.8696 60.375 50.4V54.6C60.375 56.1304 60.984 57.6004 62.0655 58.6845C63.1496 59.766 64.6196 60.375 66.15 60.375H70.35C71.8804 60.375 73.3504 59.766 74.4345 58.6845C75.516 57.6004 76.125 56.1304 76.125 54.6V50.4ZM70.875 50.4V54.6C70.875 54.7391 70.8199 54.873 70.7201 54.9701C70.623 55.0699 70.4891 55.125 70.35 55.125H66.15C66.0109 55.125 65.877 55.0699 65.7799 54.9701C65.6801 54.873 65.625 54.7391 65.625 54.6V50.4C65.625 50.2609 65.6801 50.127 65.7799 50.0299C65.877 49.9301 66.0109 49.875 66.15 49.875H70.35C70.4891 49.875 70.623 49.9301 70.7201 50.0299C70.8199 50.127 70.875 50.2609 70.875 50.4Z" fill="#A9D944"/>
<path fill-rule="evenodd" clip-rule="evenodd" d="M97.125 50.4C97.125 48.8696 96.516 47.3996 95.4345 46.3155C94.3504 45.234 92.8804 44.625 91.35 44.625H87.15C85.6196 44.625 84.1496 45.234 83.0655 46.3155C81.984 47.3996 81.375 48.8696 81.375 50.4V54.6C81.375 56.1304 81.984 57.6004 83.0655 58.6845C84.1496 59.766 85.6196 60.375 87.15 60.375H91.35C92.8804 60.375 94.3504 59.766 95.4345 58.6845C96.516 57.6004 97.125 56.1304 97.125 54.6V50.4ZM91.875 50.4V54.6C91.875 54.7391 91.8199 54.873 91.7201 54.9701C91.623 55.0699 91.4891 55.125 91.35 55.125H87.15C87.0109 55.125 86.877 55.0699 86.7799 54.9701C86.6801 54.873 86.625 54.7391 86.625 54.6V50.4C86.625 50.2609 86.6801 50.127 86.7799 50.0299C86.877 49.9301 87.0109 49.875 87.15 49.875H91.35C91.4891 49.875 91.623 49.9301 91.7201 50.0299C91.8199 50.127 91.875 50.2609 91.875 50.4Z" fill="#A9D944"/>
<path fill-rule="evenodd" clip-rule="evenodd" d="M72.2321 112.875H15.75C12.2693 112.875 8.93026 111.492 6.46801 109.032C4.00839 106.57 2.625 103.231 2.625 99.75V26.25C2.625 19.0024 8.50238 13.125 15.75 13.125H23.625V10.5C23.625 6.15038 27.1504 2.625 31.5 2.625C35.8496 2.625 39.375 6.15038 39.375 10.5V13.125H76.125V10.5C76.125 6.15038 79.6504 2.625 84 2.625C88.3496 2.625 91.875 6.15038 91.875 10.5V13.125H99.75C106.998 13.125 112.875 19.0024 112.875 26.25V72.2321C119.288 77.532 123.375 85.5409 123.375 94.5C123.375 110.436 110.436 123.375 94.5 123.375C85.5409 123.375 77.532 119.288 72.2321 112.875ZM94.5 70.875C107.538 70.875 118.125 81.4616 118.125 94.5C118.125 107.538 107.538 118.125 94.5 118.125C81.4616 118.125 70.875 107.538 70.875 94.5C70.875 81.4616 81.4616 70.875 94.5 70.875ZM107.625 68.7776V39.375H7.875V99.75C7.875 101.84 8.70449 103.842 10.1824 105.318C11.6576 106.796 13.6605 107.625 15.75 107.625H68.7776C66.7616 103.688 65.625 99.225 65.625 94.5C65.625 78.5636 78.5636 65.625 94.5 65.625C99.225 65.625 103.688 66.7616 107.625 68.7776ZM91.875 18.375V21C91.875 25.3496 88.3496 28.875 84 28.875C79.6504 28.875 76.125 25.3496 76.125 21V18.375H39.375V21C39.375 25.3496 35.8496 28.875 31.5 28.875C27.1504 28.875 23.625 25.3496 23.625 21V18.375H15.75C11.4004 18.375 7.875 21.9004 7.875 26.25V34.125H107.625V26.25C107.625 21.9004 104.1 18.375 99.75 18.375H91.875ZM86.625 10.5V21C86.625 22.449 85.449 23.625 84 23.625C82.551 23.625 81.375 22.449 81.375 21V10.5C81.375 9.051 82.551 7.875 84 7.875C85.449 7.875 86.625 9.051 86.625 10.5ZM34.125 10.5V21C34.125 22.449 32.949 23.625 31.5 23.625C30.051 23.625 28.875 22.449 28.875 21V10.5C28.875 9.051 30.051 7.875 31.5 7.875C32.949 7.875 34.125 9.051 34.125 10.5Z" fill="#A9D944"/>
</svg>
