<svg width="126" height="126" viewBox="0 0 126 126" fill="none" xmlns="http://www.w3.org/2000/svg">
<g clip-path="url(#clip0_2993_1022)">
<path d="M26.5712 71.6767C26.1132 71.2188 25.4805 70.9552 24.8306 70.9552C24.1831 70.9552 23.5477 71.2188 23.09 71.6767C22.632 72.1345 22.3687 72.7696 22.3687 73.4171C22.3687 74.0673 22.6322 74.7 23.09 75.1602C23.5479 75.6182 24.1831 75.8791 24.8306 75.8791C25.478 75.8791 26.1135 75.6182 26.5712 75.1602C27.0292 74.6998 27.2925 74.0673 27.2925 73.4171C27.2925 72.7696 27.0292 72.1345 26.5712 71.6767Z" fill="#A9D944"/>
<path d="M49.789 71.6767C49.3312 71.2188 48.6961 70.9552 48.0483 70.9552C47.4009 70.9552 46.7655 71.2188 46.3077 71.6767C45.8497 72.1345 45.5864 72.7696 45.5864 73.4171C45.5864 74.0673 45.8497 74.7 46.3077 75.1602C46.7657 75.6182 47.4009 75.8791 48.0483 75.8791C48.6958 75.8791 49.3312 75.6182 49.789 75.1602C50.2469 74.6998 50.5103 74.0646 50.5103 73.4171C50.5103 72.7696 50.2469 72.1345 49.789 71.6767Z" fill="#A9D944"/>
<path d="M45.273 85.1964C43.9593 84.8445 42.61 85.6261 42.2588 86.9395C41.5552 89.5732 39.1625 91.413 36.4397 91.413C33.7172 91.413 31.3244 89.5732 30.6206 86.9395C30.2696 85.6256 28.9203 84.844 27.6064 85.1964C26.2928 85.5476 25.5124 86.8967 25.8633 88.2106C27.1415 92.9954 31.4907 96.3373 36.4399 96.3373C41.3889 96.3373 45.7381 92.9954 47.0163 88.2106C47.367 86.8969 46.5864 85.5474 45.273 85.1964Z" fill="#A9D944"/>
<path d="M63.0298 9.84253C61.6699 9.84253 60.5676 10.9448 60.5676 12.3047V27.9351C60.5676 29.295 61.6699 30.3973 63.0298 30.3973C64.3897 30.3973 65.492 29.295 65.492 27.9351V12.3047C65.492 10.9448 64.3897 9.84253 63.0298 9.84253Z" fill="#A9D944"/>
<path d="M64.7714 34.8949C64.3132 34.4344 63.678 34.1736 63.0308 34.1736C62.3808 34.1736 61.7479 34.4347 61.2877 34.8949C60.8297 35.3529 60.5688 35.988 60.5688 36.6355C60.5688 37.283 60.83 37.9184 61.2877 38.3761C61.7481 38.8341 62.3808 39.0974 63.0308 39.0974C63.6782 39.0974 64.3137 38.8341 64.7714 38.3761C65.2291 37.9181 65.4927 37.283 65.4927 36.6355C65.4927 35.988 65.2291 35.3529 64.7714 34.8949Z" fill="#A9D944"/>
<path d="M48.0257 32.226L41.74 25.9457C40.7782 24.9847 39.219 24.9852 38.258 25.9471C37.297 26.9091 37.2975 28.4679 38.2595 29.4291L44.5452 35.7097C45.0258 36.1901 45.6556 36.43 46.2853 36.43C46.9158 36.43 47.5465 36.1891 48.0272 35.7082C48.9882 34.746 48.9877 33.1872 48.0257 32.226Z" fill="#A9D944"/>
<path d="M87.8065 25.9521C86.8446 24.9908 85.2856 24.9916 84.3246 25.9533L77.6419 32.6414C76.6806 33.6034 76.6814 35.1624 77.6431 36.1234C78.1237 36.604 78.7535 36.8439 79.3832 36.8439C80.0137 36.8439 80.6442 36.6033 81.1248 36.1221L87.8075 29.434C88.769 28.4721 88.7683 26.9131 87.8065 25.9521Z" fill="#A9D944"/>
<path d="M124.754 70.2696C119.554 50.8609 99.5331 39.3021 80.1249 44.5031C73.4637 46.288 67.5788 49.8369 62.9823 54.7512C56.1049 47.4264 46.587 43.278 36.4396 43.278C16.3468 43.278 0 59.6251 0 79.7179C0 99.8107 16.3468 116.157 36.4396 116.157C46.5966 116.157 56.1298 111.996 63.0096 104.654C69.822 111.877 79.4292 116.145 89.5646 116.145C92.6774 116.145 95.8412 115.742 98.9875 114.899C118.396 109.698 129.955 89.6775 124.754 70.2696ZM36.4396 111.233C19.0617 111.233 4.92409 97.0953 4.92409 79.7176C4.92409 62.34 19.0617 48.2021 36.4396 48.2021C45.4356 48.2021 53.8608 51.972 59.8402 58.6075C59.187 59.5313 58.5713 60.4889 57.9984 61.4809C53.1316 69.9103 51.8389 79.7304 54.3582 89.132C55.5141 93.4467 57.4026 97.3729 59.8539 100.814C53.8734 107.458 45.4388 111.233 36.4396 111.233ZM97.713 110.143C80.9277 114.639 63.6123 104.643 59.1147 87.8579C56.936 79.7267 58.054 71.2336 62.263 63.9435C63.0396 62.5984 63.9046 61.3246 64.8494 60.1268C64.8903 60.0798 64.9281 60.0311 64.9651 59.9817C69.1314 54.7637 74.829 51.0201 81.3992 49.2596C84.1212 48.5304 86.8558 48.1822 89.5488 48.1822C103.462 48.1822 116.229 57.4808 119.997 71.5441C124.495 88.3297 114.498 105.645 97.713 110.143Z" fill="#A9D944"/>
<path d="M82.3443 74.8738C81.5824 72.0294 78.6495 70.3348 75.8039 71.0975C72.9595 71.8599 71.2657 74.7936 72.0278 77.6379C72.3226 78.7379 73.3173 79.4637 74.4046 79.4637C74.6152 79.4637 74.8301 79.4364 75.0432 79.379C76.3568 79.0269 77.1362 77.6773 76.7841 76.3636C76.7247 76.1422 76.8567 75.9133 77.0781 75.854C77.2155 75.8176 77.3257 75.8564 77.3939 75.8956C77.4618 75.9349 77.5509 76.0107 77.5878 76.1481C77.9397 77.4615 79.2893 78.2413 80.6032 77.8889C81.9171 77.5373 82.6962 76.1874 82.3443 74.8738Z" fill="#A9D944"/>
<path d="M104.631 68.9018C104.262 67.5239 103.379 66.3725 102.143 65.659C100.908 64.9461 99.4687 64.7564 98.091 65.1257C96.7131 65.4949 95.5614 66.3784 94.8485 67.6138C94.1353 68.8491 93.9456 70.2881 94.3149 71.6662C94.6098 72.7662 95.6045 73.4917 96.6917 73.4917C96.9024 73.4915 97.1172 73.4644 97.3306 73.4071C98.644 73.0549 99.4234 71.7051 99.0714 70.3914C99.0348 70.2541 99.0737 70.1441 99.113 70.0759C99.1524 70.0078 99.228 69.9189 99.3655 69.8823C99.5029 69.8456 99.6133 69.8847 99.6813 69.9238C99.7492 69.963 99.838 70.0388 99.8749 70.1763C100.227 71.4897 101.576 72.2694 102.89 71.9172C104.204 71.5653 104.983 70.2155 104.631 68.9018Z" fill="#A9D944"/>
<path d="M102.474 84.3511C102.122 83.0377 100.772 82.2578 99.4587 82.61C98.1451 82.9621 97.366 84.3117 97.7179 85.6253C98.5556 88.752 96.6934 91.9775 93.5668 92.8152C92.0518 93.2213 90.4699 93.0126 89.1122 92.2288C87.754 91.4445 86.7827 90.1788 86.3771 88.6641C86.025 87.3507 84.6752 86.5703 83.3615 86.9232C82.0481 87.2754 81.2687 88.6252 81.6206 89.9386C82.367 92.7239 84.1532 95.0517 86.6503 96.4933C88.3134 97.4536 90.1596 97.9443 92.0301 97.9443C92.968 97.9443 93.9118 97.8213 94.8418 97.5717C100.591 96.0312 104.015 90.1001 102.474 84.3511Z" fill="#A9D944"/>
</g>
<defs>
<clipPath id="clip0_2993_1022">
<rect width="126" height="126" fill="white"/>
</clipPath>
</defs>
</svg>
