<svg width="125" height="125" viewBox="0 0 125 125" fill="none" xmlns="http://www.w3.org/2000/svg">
<g clip-path="url(#clip0_2993_916)">
<mask id="mask0_2993_916" style="mask-type:luminance" maskUnits="userSpaceOnUse" x="0" y="0" width="125" height="125">
<path d="M0 1.52588e-05H125V125H0V1.52588e-05Z" fill="white"/>
</mask>
<g mask="url(#mask0_2993_916)">
<path d="M54.0869 93.7015V75.6551M54.0869 122.07V102.377M71.5718 75.6551V122.07" stroke="#A9D944" stroke-width="3.98437" stroke-miterlimit="10" stroke-linecap="round" stroke-linejoin="round"/>
<path d="M12.8533 92.6437L74.4197 58.3326C76.1455 57.3673 76.7705 55.1734 75.8115 53.4486L72.0974 46.7892C71.1316 45.0641 68.937 44.4393 67.2112 45.4049L5.63768 79.7159C3.91893 80.6744 3.29393 82.868 4.25267 84.5931L7.96702 91.2594C8.92601 92.9774 11.1274 93.6022 12.8533 92.6437Z" stroke="#A9D944" stroke-width="3.98437" stroke-miterlimit="10" stroke-linecap="round" stroke-linejoin="round"/>
<path d="M46.2891 57.0619L53.4976 69.9899M33.7756 80.9794L26.5671 68.0516" stroke="#A9D944" stroke-width="3.98437" stroke-miterlimit="10" stroke-linecap="round" stroke-linejoin="round"/>
<path d="M22.6539 70.2383C-11.4494 74.2849 0.318412 31.98 29.3936 54.7546" stroke="#A9D944" stroke-width="3.98437" stroke-miterlimit="10" stroke-linecap="round" stroke-linejoin="round"/>
<path d="M43.2211 75.655H95.5052C96.9398 75.655 98.1188 76.8335 98.1188 78.2676V86.9998V117.399C98.1188 119.969 96.0167 122.07 93.4457 122.07H32.213C29.6422 122.07 27.5402 119.969 27.5402 117.399V84.4583" stroke="#A9D944" stroke-width="3.98437" stroke-miterlimit="10" stroke-linecap="round" stroke-linejoin="round"/>
<path d="M26.5671 68.0517L46.289 57.062L43.7963 52.5964C42.4257 50.133 39.2866 49.2455 36.8293 50.6159L26.0559 56.6218C23.5915 57.9919 22.7036 61.1227 24.0744 63.579L26.5671 68.0517Z" stroke="#A9D944" stroke-width="3.98437" stroke-miterlimit="10" stroke-linecap="round" stroke-linejoin="round"/>
<path d="M23.4493 60.6826C20.5021 59.6105 18.2364 59.0497 14.2806 58.6166" stroke="#A9D944" stroke-width="3.98437" stroke-miterlimit="10" stroke-linecap="round" stroke-linejoin="round"/>
<path d="M36.1333 35.5581C33.9885 39.2639 32.8593 44.7659 33.7043 52.355M50.4223 54.7617C64.3208 37.2903 51.3384 26.0024 41.687 30.3401" stroke="#A9D944" stroke-width="3.98437" stroke-miterlimit="10" stroke-linecap="round" stroke-linejoin="round"/>
<path d="M41.8717 50.6513C42.0775 48.0529 43.3417 44.1411 44.9327 41.5285" stroke="#A9D944" stroke-width="3.98437" stroke-miterlimit="10" stroke-linecap="round" stroke-linejoin="round"/>
<path d="M90.6121 32.6048C90.6121 32.6048 93.1404 55.9473 84.6465 65.1551" stroke="#A9D944" stroke-width="3.98437" stroke-miterlimit="10" stroke-linecap="round" stroke-linejoin="round"/>
<path d="M103.204 39.6402C103.204 39.6402 106.868 23.4964 123.167 19.606" stroke="#A9D944" stroke-width="3.98437" stroke-miterlimit="10" stroke-linecap="round" stroke-linejoin="round"/>
<path d="M75.5915 6.26635L72.7722 10.9731C72.4668 11.4844 72.4241 11.6548 71.792 11.8108L66.21 13.1953C65.1304 13.4651 65.0737 13.7134 65.8122 14.5513L69.4128 18.8818C69.7964 19.3433 69.8533 19.8828 69.8035 20.5359L69.3703 25.8889C69.2495 26.9963 69.4839 27.1311 70.5207 26.7124L75.4282 24.6677C75.9397 24.4548 76.7422 24.4548 77.2463 24.6677L82.1609 26.7124C83.1977 27.1311 83.425 26.9963 83.3042 25.8889L82.8782 20.5359C82.8286 19.8828 82.8782 19.3433 83.2688 18.8818L86.8623 14.5513C87.6008 13.7134 87.5513 13.4651 86.4646 13.1953L80.8826 11.8108C80.2505 11.6548 80.2148 11.4844 79.9026 10.9731L77.083 6.26635C76.5149 5.30785 76.1667 5.30785 75.5915 6.26635Z" stroke="#A9D944" stroke-width="3.98437" stroke-miterlimit="10" stroke-linecap="round" stroke-linejoin="round"/>
<path d="M111.407 48.3582L108.58 53.065C108.274 53.5762 108.232 53.7467 107.607 53.9027L102.025 55.2872C100.938 55.557 100.882 55.8053 101.627 56.6431L105.221 60.9737C105.611 61.4351 105.661 61.9747 105.611 62.6278L105.178 67.9737C105.064 69.0882 105.292 69.223 106.329 68.8043L111.236 66.7596C111.747 66.5467 112.55 66.5467 113.061 66.7596L117.969 68.8043C119.005 69.223 119.233 69.0882 119.119 67.9737L118.686 62.6278C118.636 61.9747 118.686 61.4351 119.077 60.9737L122.67 56.6431C123.416 55.8053 123.359 55.557 122.272 55.2872L116.69 53.9027C116.065 53.7467 116.023 53.5762 115.717 53.065L112.898 48.3582C112.323 47.3997 111.975 47.3997 111.407 48.3582Z" stroke="#A9D944" stroke-width="3.98437" stroke-miterlimit="10" stroke-linecap="round" stroke-linejoin="round"/>
<path d="M105.469 17.5756C109.51 17.5756 112.799 14.2885 112.799 10.2563C112.799 6.21674 109.51 2.92963 105.469 2.92963C101.435 2.92963 98.1402 6.21674 98.1402 10.2563C98.1402 14.2885 101.435 17.5756 105.469 17.5756Z" stroke="#A9D944" stroke-width="3.98437" stroke-miterlimit="10" stroke-linecap="round" stroke-linejoin="round"/>
</g>
</g>
<defs>
<clipPath id="clip0_2993_916">
<rect width="125" height="125" fill="white"/>
</clipPath>
</defs>
</svg>
