<svg width="20" height="20" viewBox="0 0 20 20" fill="none" xmlns="http://www.w3.org/2000/svg">
<g clip-path="url(#clip0_4612_8782)">
<path d="M19.5516 15.8067L16.4629 12.7177C15.8477 12.1049 14.8289 12.1235 14.1923 12.7604L12.6362 14.3162C12.5379 14.262 12.4361 14.2054 12.3291 14.1453C11.3465 13.6009 10.0015 12.8546 8.58628 11.4383C7.16683 10.019 6.41986 8.67201 5.87372 7.68872C5.81609 7.58455 5.76087 7.48411 5.70634 7.38873L6.75071 6.34591L7.26416 5.83183C7.90178 5.19404 7.91936 4.17553 7.30559 3.56101L4.2169 0.471638C3.60313 -0.14202 2.58387 -0.123403 1.94626 0.514387L1.07576 1.38988L1.09955 1.4135C0.807657 1.78594 0.563746 2.2155 0.382234 2.67874C0.214915 3.11967 0.110743 3.54044 0.0631095 3.96207C-0.344731 7.34316 1.20033 10.4332 5.39342 14.6264C11.1896 20.4221 15.8605 19.9843 16.062 19.9629C16.5009 19.9104 16.9214 19.8056 17.3489 19.6396C17.8081 19.4602 18.2374 19.2166 18.6096 18.9254L18.6286 18.9423L19.5105 18.0787C20.1468 17.441 20.1651 16.4222 19.5516 15.8067Z" fill="#200501"/>
</g>
<defs>
<clipPath id="clip0_4612_8782">
<rect width="20" height="20" fill="white"/>
</clipPath>
</defs>
</svg>
