<svg width="64" height="64" viewBox="0 0 64 64" fill="none" xmlns="http://www.w3.org/2000/svg">
<rect width="64" height="64" rx="32" fill="url(#paint0_radial_4612_8837)"/>
<path d="M32 18.8916C36.241 18.8916 36.8193 18.8916 38.5542 18.8916C40.0964 18.8916 40.8675 19.2771 41.4458 19.4699C42.2169 19.8554 42.7952 20.0482 43.3735 20.6265C43.9518 21.2048 44.3374 21.7831 44.5301 22.5542C44.7229 23.1325 44.9157 23.9036 45.1084 25.4458C45.1084 27.1807 45.1084 27.5663 45.1084 32C45.1084 36.4337 45.1084 36.8193 45.1084 38.5542C45.1084 40.0964 44.7229 40.8675 44.5301 41.4458C44.1446 42.2169 43.9518 42.7952 43.3735 43.3735C42.7952 43.9518 42.2169 44.3374 41.4458 44.5301C40.8675 44.7229 40.0964 44.9157 38.5542 45.1084C36.8193 45.1084 36.4337 45.1084 32 45.1084C27.5663 45.1084 27.1807 45.1084 25.4458 45.1084C23.9036 45.1084 23.1325 44.7229 22.5542 44.5301C21.7831 44.1446 21.2048 43.9518 20.6265 43.3735C20.0482 42.7952 19.6627 42.2169 19.4699 41.4458C19.2771 40.8675 19.0843 40.0964 18.8916 38.5542C18.8916 36.8193 18.8916 36.4337 18.8916 32C18.8916 27.5663 18.8916 27.1807 18.8916 25.4458C18.8916 23.9036 19.2771 23.1325 19.4699 22.5542C19.8554 21.7831 20.0482 21.2048 20.6265 20.6265C21.2048 20.0482 21.7831 19.6627 22.5542 19.4699C23.1325 19.2771 23.9036 19.0843 25.4458 18.8916C27.1807 18.8916 27.759 18.8916 32 18.8916ZM32 16C27.5663 16 27.1807 16 25.4458 16C23.7108 16 22.5542 16.3855 21.5904 16.7711C20.6265 17.1566 19.6627 17.7349 18.6988 18.6988C17.7349 19.6627 17.3494 20.4337 16.7711 21.5904C16.3855 22.5542 16.1928 23.7108 16 25.4458C16 27.1807 16 27.759 16 32C16 36.4337 16 36.8193 16 38.5542C16 40.2892 16.3855 41.4458 16.7711 42.4096C17.1566 43.3735 17.7349 44.3374 18.6988 45.3012C19.6627 46.2651 20.4337 46.6506 21.5904 47.2289C22.5542 47.6145 23.7108 47.8072 25.4458 48C27.1807 48 27.759 48 32 48C36.241 48 36.8193 48 38.5542 48C40.2892 48 41.4458 47.6145 42.4096 47.2289C43.3735 46.8434 44.3374 46.2651 45.3012 45.3012C46.2651 44.3374 46.6506 43.5663 47.2289 42.4096C47.6145 41.4458 47.8072 40.2892 48 38.5542C48 36.8193 48 36.241 48 32C48 27.759 48 27.1807 48 25.4458C48 23.7108 47.6145 22.5542 47.2289 21.5904C46.8434 20.6265 46.2651 19.6627 45.3012 18.6988C44.3374 17.7349 43.5663 17.3494 42.4096 16.7711C41.4458 16.3855 40.2892 16.1928 38.5542 16C36.8193 16 36.4337 16 32 16Z" fill="white"/>
<path d="M32 23.7108C27.3735 23.7108 23.7108 27.3735 23.7108 32C23.7108 36.6265 27.3735 40.2892 32 40.2892C36.6265 40.2892 40.2892 36.6265 40.2892 32C40.2892 27.3735 36.6265 23.7108 32 23.7108ZM32 37.3976C29.1084 37.3976 26.6024 35.0843 26.6024 32C26.6024 29.1084 28.9157 26.6024 32 26.6024C34.8916 26.6024 37.3976 28.9157 37.3976 32C37.3976 34.8916 34.8916 37.3976 32 37.3976Z" fill="white"/>
<path d="M40.4819 25.4458C41.5466 25.4458 42.4096 24.5827 42.4096 23.5181C42.4096 22.4534 41.5466 21.5904 40.4819 21.5904C39.4173 21.5904 38.5542 22.4534 38.5542 23.5181C38.5542 24.5827 39.4173 25.4458 40.4819 25.4458Z" fill="white"/>
<defs>
<radialGradient id="paint0_radial_4612_8837" cx="0" cy="0" r="1" gradientUnits="userSpaceOnUse" gradientTransform="translate(65.2875 1.3) scale(147.795)">
<stop stop-color="#F9ED32"/>
<stop offset="0.36" stop-color="#EE2A7B"/>
<stop offset="0.44" stop-color="#D22A8A"/>
<stop offset="0.6" stop-color="#8B2AB2"/>
<stop offset="0.83" stop-color="#1B2AF0"/>
<stop offset="0.88" stop-color="#002AFF"/>
</radialGradient>
</defs>
</svg>
