<svg width="20" height="20" viewBox="0 0 20 20" fill="none" xmlns="http://www.w3.org/2000/svg">
<path d="M10.0003 0C5.84027 0 2.45605 3.38421 2.45605 7.54368C2.45605 13.5326 9.19079 19.5489 9.47763 19.8026C9.62763 19.9342 9.81395 20 10.0003 20C10.1939 20 10.3876 19.9289 10.5387 19.7874C10.8245 19.52 17.5445 13.1726 17.5445 7.54421C17.5445 3.38474 14.1592 0 10.0003 0ZM10.0003 11.1411C8.01342 11.1411 6.40342 9.53 6.40342 7.54474C6.40342 5.55947 8.01342 3.94842 10.0003 3.94842C11.9861 3.94842 13.5961 5.55895 13.5961 7.54474C13.5961 9.53053 11.9861 11.1411 10.0003 11.1411Z" fill="black"/>
</svg>
