<svg width="64" height="64" viewBox="0 0 64 64" fill="none" xmlns="http://www.w3.org/2000/svg">
<rect width="64" height="64" rx="32" fill="#7C509A"/>
<path d="M42.0063 15.2735C35.9079 14.1088 29.5749 14.1088 23.4764 15.2735C20.7791 15.8558 17.378 19.1167 16.7916 21.6788C15.7361 26.6867 15.7361 31.811 16.7916 36.8188C17.4953 39.381 20.8963 42.6419 23.4764 43.2242C23.5937 43.2242 23.711 43.3407 23.711 43.4572V50.7942C23.711 51.1436 24.1801 51.3765 24.4147 51.0272L27.933 47.4169C27.933 47.4169 30.7476 44.5053 31.2168 44.0395C31.2168 44.0395 31.334 43.923 31.4513 43.923C34.9696 44.0395 38.6052 43.6901 42.1236 43.1078C44.8209 42.5255 48.222 39.2645 48.8084 36.7024C49.8639 31.6945 49.8639 26.5702 48.8084 21.5624C48.1047 19.1167 44.7037 15.8558 42.0063 15.2735ZM42.1236 37.1682C41.5372 38.3329 40.8335 39.2645 39.6607 39.8469C39.3089 39.9633 38.9571 40.0798 38.6052 40.1962C38.1361 40.0798 37.7843 39.9633 37.4325 39.8469C33.6796 38.3329 30.1613 36.2365 27.3466 33.2085C25.822 31.4616 24.5319 29.4818 23.4764 27.3855C23.0073 26.3373 22.5382 25.4056 22.1864 24.3575C21.8346 23.4258 22.4209 22.4941 23.0073 21.7953C23.5937 21.0965 24.2974 20.6307 25.1183 20.2813C25.7047 19.9319 26.2911 20.1648 26.7602 20.6307C27.6984 21.7953 28.6366 22.9599 29.3403 24.241C29.8094 25.0562 29.6921 25.9879 28.8712 26.5702C28.6366 26.6867 28.5194 26.8032 28.2848 27.0361C28.1675 27.1525 27.933 27.269 27.8157 27.5019C27.5811 27.8513 27.5811 28.2007 27.6984 28.5501C28.6366 31.2287 30.3958 33.325 33.0932 34.4896C33.5623 34.7225 33.9141 34.839 34.5005 34.839C35.3215 34.7225 35.6733 33.7908 36.2597 33.325C36.8461 32.8592 37.5497 32.8592 38.2534 33.2085C38.8398 33.5579 39.4262 34.0238 40.1298 34.4896C40.7162 34.9555 41.3026 35.3049 41.889 35.7707C42.2408 36.0036 42.3581 36.5859 42.1236 37.1682ZM37.1979 28.4336C36.9633 28.4336 37.0806 28.4336 37.1979 28.4336C36.7288 28.4336 36.6115 28.2007 36.4942 27.8513C36.4942 27.6184 36.4942 27.269 36.377 27.0361C36.2597 26.5702 36.0251 26.1044 35.556 25.755C35.3215 25.6385 35.0869 25.5221 34.8524 25.4056C34.5005 25.2892 34.266 25.2892 33.9141 25.2892C33.5623 25.1727 33.445 24.9398 33.445 24.5904C33.445 24.3575 33.7969 24.1245 34.0314 24.1245C35.9079 24.241 37.3152 25.2892 37.5497 27.5019C37.5497 27.6184 37.5497 27.8513 37.5497 27.9678C37.5497 28.2007 37.4325 28.4336 37.1979 28.4336ZM36.0251 23.3093C35.4387 23.0764 34.8524 22.8435 34.1487 22.727C33.9141 22.727 33.5623 22.6105 33.3277 22.6105C32.9759 22.6105 32.7414 22.3776 32.8586 22.0282C32.8586 21.6788 33.0932 21.4459 33.445 21.5624C34.6178 21.6788 35.6733 21.9118 36.7288 22.3776C38.8398 23.4258 40.0126 25.1727 40.3644 27.5019C40.3644 27.6184 40.3644 27.7348 40.3644 27.8513C40.3644 28.0842 40.3644 28.3172 40.3644 28.6665C40.3644 28.783 40.3644 28.8995 40.3644 29.0159C40.2471 29.4818 39.4262 29.5982 39.3089 29.0159C39.3089 28.8995 39.1916 28.6665 39.1916 28.5501C39.1916 27.5019 38.9571 26.4538 38.488 25.5221C37.7843 24.4739 36.9633 23.7752 36.0251 23.3093ZM42.3581 30.297C42.0063 30.297 41.7717 29.9476 41.7717 29.5982C41.7717 28.8995 41.6545 28.2007 41.5372 27.5019C41.0681 23.7752 38.0189 20.7471 34.3832 20.1648C33.7969 20.0484 33.2105 20.0484 32.7414 19.9319C32.3895 19.9319 31.9204 19.9319 31.8031 19.4661C31.6859 19.1167 32.0377 18.7673 32.3895 18.7673C32.5068 18.7673 32.6241 18.7673 32.6241 18.7673C32.8586 18.7673 37.4325 18.8838 32.6241 18.7673C37.5497 18.8838 41.6544 22.1447 42.4754 27.0361C42.5927 27.8513 42.7099 28.6665 42.7099 29.5982C42.9445 29.9476 42.7099 30.297 42.3581 30.297Z" fill="white"/>
</svg>
