<svg width="45" height="45" viewBox="0 0 45 45" fill="none" xmlns="http://www.w3.org/2000/svg">
<path d="M33.0469 4.21875C32.3012 4.21959 31.5863 4.51617 31.0591 5.04344C30.5318 5.5707 30.2352 6.28559 30.2344 7.03125V7.49944C27.2317 10.6777 23.1689 12.8539 20.2481 14.1322C16.6608 15.702 13.3598 16.5234 11.9531 16.5234H3.51562C2.67675 16.5244 1.8725 16.858 1.27932 17.4512C0.686147 18.0444 0.352493 18.8486 0.351562 19.6875V25.3125C0.352493 26.1514 0.686147 26.9556 1.27932 27.5488C1.8725 28.142 2.67675 28.4756 3.51562 28.4766H5.27344V35.8594C5.27344 36.1391 5.38456 36.4074 5.58235 36.6052C5.78014 36.8029 6.0484 36.9141 6.32812 36.9141H9.84375C10.079 36.9141 10.3074 36.8355 10.4928 36.6907C10.6782 36.546 10.8099 36.3434 10.867 36.1152L12.7611 28.5391C14.4164 28.757 17.2308 29.5478 20.2481 30.8682C23.1689 32.1464 27.2317 34.3227 30.2344 37.5009V37.9688C30.2344 38.7147 30.5307 39.43 31.0581 39.9575C31.5856 40.4849 32.301 40.7812 33.0469 40.7812C33.7928 40.7812 34.5082 40.4849 35.0356 39.9575C35.5631 39.43 35.8594 38.7147 35.8594 37.9688V7.03125C35.8585 6.28559 35.562 5.5707 35.0347 5.04344C34.5074 4.51617 33.7925 4.21959 33.0469 4.21875ZM10.8984 26.3672H7.38281V18.6328H10.8984V26.3672ZM2.46094 25.3125V19.6875C2.46124 19.4079 2.57246 19.1398 2.77018 18.9421C2.96791 18.7443 3.236 18.6331 3.51562 18.6328H5.27344V26.3672H3.51562C3.236 26.3669 2.96791 26.2557 2.77018 26.0579C2.57246 25.8602 2.46124 25.5921 2.46094 25.3125ZM9.0203 34.8047H7.38281V28.4766H10.6023L9.0203 34.8047ZM13.0078 26.4488V18.5513C16.715 18.0576 24.6916 15.3116 30.2344 10.425V34.575C24.6916 29.6884 16.715 26.9424 13.0078 26.4488ZM33.75 37.9688C33.75 38.1552 33.6759 38.3341 33.5441 38.4659C33.4122 38.5978 33.2334 38.6719 33.0469 38.6719C32.8604 38.6719 32.6816 38.5978 32.5497 38.4659C32.4178 38.3341 32.3438 38.1552 32.3438 37.9688V7.03125C32.3438 6.84477 32.4178 6.66593 32.5497 6.53407C32.6816 6.4022 32.8604 6.32812 33.0469 6.32812C33.2334 6.32812 33.4122 6.4022 33.5441 6.53407C33.6759 6.66593 33.75 6.84477 33.75 7.03125V37.9688Z" fill="#F7B219"/>
<path d="M43.5938 21.4453H40.0781C39.7984 21.4453 39.5301 21.5564 39.3323 21.7542C39.1346 21.952 39.0234 22.2203 39.0234 22.5C39.0234 22.7797 39.1346 23.048 39.3323 23.2458C39.5301 23.4436 39.7984 23.5547 40.0781 23.5547H43.5938C43.8735 23.5547 44.1417 23.4436 44.3395 23.2458C44.5373 23.048 44.6484 22.7797 44.6484 22.5C44.6484 22.2203 44.5373 21.952 44.3395 21.7542C44.1417 21.5564 43.8735 21.4453 43.5938 21.4453Z" fill="#F7B219"/>
<path d="M38.3426 15.9378C38.5006 15.9377 38.6566 15.902 38.7989 15.8333L41.9676 14.3099C42.2197 14.1887 42.4133 13.9723 42.5059 13.7084C42.5984 13.4444 42.5823 13.1545 42.4611 12.9024C42.3399 12.6503 42.1235 12.4566 41.8595 12.3641C41.5956 12.2715 41.3056 12.2876 41.0535 12.4089L37.8852 13.9323C37.6696 14.0359 37.4956 14.2096 37.3918 14.425C37.2879 14.6404 37.2603 14.8847 37.3136 15.1178C37.3668 15.3509 37.4977 15.5591 37.6847 15.708C37.8717 15.857 38.1039 15.938 38.343 15.9378H38.3426Z" fill="#F7B219"/>
<path d="M41.9676 30.6901L38.7992 29.1667C38.5474 29.0477 38.2588 29.0331 37.9963 29.1261C37.7338 29.2192 37.5188 29.4122 37.3981 29.6632C37.2774 29.9142 37.2609 30.2027 37.3522 30.4658C37.4434 30.7289 37.635 30.9453 37.8852 31.0676L41.0535 32.5911C41.3056 32.7123 41.5956 32.7285 41.8595 32.6359C42.1235 32.5433 42.3399 32.3497 42.4611 32.0976C42.5823 31.8455 42.5984 31.5556 42.5059 31.2916C42.4133 31.0277 42.2197 30.8113 41.9676 30.6901Z" fill="#F7B219"/>
</svg>
