<svg width="53" height="41" viewBox="0 0 53 41" fill="none" xmlns="http://www.w3.org/2000/svg">
<g clip-path="url(#clip0_4612_9863)">
<path d="M49.4668 3.46694C43.9363 -2.11027 35.1798 0.602968 35.1798 0.602968C30.2639 1.95959 25.9624 6.93385 25.9624 6.93385C24.2726 4.97429 22.89 3.76841 22.89 3.76841C10.6001 -4.22056 3.68706 2.864 3.68706 2.864C-1.84337 7.68753 1.99721 13.8677 1.99721 13.8677C1.99721 13.8677 -1.997 18.239 1.53634 22.6103C1.53634 22.6103 3.99431 26.0772 10.4465 25.0221C11.3682 24.8714 12.5972 24.1177 13.3653 23.6655C15.3624 22.4596 16.745 20.8015 17.974 18.9927C18.2813 18.5405 17.974 18.3897 17.5131 18.3897C17.2059 18.3897 17.0523 18.5405 16.745 18.8419C16.4378 19.2941 16.1305 19.5956 15.8233 20.0478C14.7479 21.2537 13.5189 22.3089 11.9827 23.0625C8.603 24.5699 5.22329 23.0625 2.76532 20.5C2.76532 20.5 1.38271 18.239 3.37981 15.8272C3.37981 15.8272 6.75953 20.1986 14.7479 18.3897C16.2842 18.0883 18.1276 16.2794 17.3595 14.6214C17.0523 13.8677 16.4378 13.2647 15.8233 12.8125C14.2871 11.7574 12.7508 11.7574 11.061 11.4559C11.061 11.4559 7.98851 10.853 3.53344 12.5111C1.38271 4.37135 7.98851 2.56253 7.98851 2.56253C13.6726 0.753703 19.9711 4.37135 19.9711 4.37135C23.3508 6.18017 26.4233 11.1544 27.4987 13.2647C27.4987 13.4155 30.2639 19.5956 27.345 25.625C27.1914 24.5699 26.116 21.103 22.7363 20.8015C24.7334 19.1434 26.4233 18.3897 26.4233 18.3897C27.4987 16.8824 25.5016 17.3346 25.5016 17.3346L22.5827 18.8419C17.974 21.2537 15.9769 26.3787 15.9769 26.3787C13.9798 31.6544 16.4378 36.3272 16.4378 36.3272C17.8204 37.0809 17.3595 34.9706 17.3595 34.9706L16.8987 32.8603C16.8987 32.7096 16.8987 32.5589 16.8987 32.4081C17.974 32.2574 19.8175 33.0111 19.8175 33.0111L18.4349 33.4633C18.4349 33.4633 16.8987 34.9706 18.8958 35.2721C18.8958 35.2721 23.6581 32.8603 25.3479 31.2022C25.3479 31.2022 29.6494 27.4339 30.7247 22.9118L31.032 19.2941C31.6465 19.5956 32.4146 19.8971 33.1827 19.8971C35.4871 19.8971 37.4842 17.9375 37.4842 15.6765C37.4842 13.4155 35.3334 11.4559 33.0291 11.4559C31.4929 11.4559 30.2639 12.2096 29.4958 13.2647C28.7276 11.1544 27.6523 9.34561 26.5769 7.83826L26.8842 8.29047C27.345 7.38606 33.0291 3.46694 33.0291 3.46694C39.6349 -0.150709 45.4726 3.16547 45.4726 3.16547C47.1624 3.91914 48.2378 5.27576 49.0059 6.78311C49.9276 8.59194 50.3885 10.4008 50.5421 12.3603C50.8494 14.7721 50.2349 17.1839 49.6204 19.4449C48.6987 22.3089 47.1624 25.0221 45.4726 27.4339C43.7827 29.8456 41.9392 31.9559 39.6349 33.7647C39.0204 34.2169 38.2523 34.8199 37.6378 35.2721C35.3334 36.7794 32.8755 37.8346 30.2639 38.739C29.6494 38.8897 29.0349 39.1912 28.4204 39.3419C27.9595 39.4927 27.0378 39.4927 26.7305 40.0956C26.4233 40.6986 26.8842 41 27.4987 41.1508C30.5711 41 33.6436 39.6434 36.2552 38.2868C38.5595 37.0809 41.0175 35.7243 43.1682 34.0662C47.9305 30.2978 50.8494 25.1728 52.3856 19.4449C55.1508 7.83826 49.4668 3.46694 49.4668 3.46694ZM15.9769 15.375C15.9769 15.375 10.6001 19.4449 5.06967 14.0184C5.06967 14.1691 11.5218 11.6066 15.9769 15.375ZM26.2697 27.2831C26.2697 27.2831 25.9624 27.5846 25.5016 28.0368C24.5798 26.0772 22.7363 23.364 20.1247 23.2133C20.2784 22.9118 20.5856 22.7611 20.7392 22.6103C22.1218 23.0625 25.3479 24.4191 26.2697 27.2831ZM23.8117 29.6949C23.5045 29.9964 23.1972 30.1471 23.0436 30.4486C22.1218 28.6397 20.5856 26.3787 18.2813 25.7758C18.4349 25.625 18.5885 25.3236 18.5885 25.1728C20.2784 25.7758 22.89 27.1324 23.8117 29.6949ZM16.8987 29.9964C17.0523 29.3934 17.2059 28.6397 17.3595 28.0368C18.7421 28.7905 20.5856 29.9964 21.3537 31.9559C21.2001 32.1066 21.0465 32.2574 20.8929 32.2574C19.5103 30.4486 17.5131 30.1471 16.8987 29.9964ZM33.0291 12.9633C34.5653 12.9633 35.7943 14.1691 35.7943 15.6765C35.7943 17.1839 34.5653 18.3897 33.0291 18.3897C31.4929 18.3897 30.2639 17.1839 30.2639 15.6765C30.2639 14.1691 31.4929 12.9633 33.0291 12.9633Z" fill="#F7B219"/>
</g>
<defs>
<clipPath id="clip0_4612_9863">
<rect width="53" height="41" fill="white"/>
</clipPath>
</defs>
</svg>
