<svg width="45" height="35" viewBox="0 0 45 35" fill="none" xmlns="http://www.w3.org/2000/svg">
<path d="M41.3899 13.5915L40.1182 11.0481C39.6686 10.1488 38.7649 9.59022 37.7598 9.59022H30.4089V3.43814C30.4089 1.98435 29.2262 0.801514 27.7723 0.801514H2.63663C1.18274 0.801514 0 1.98426 0 3.43814V26.2887C0 27.7425 1.18274 28.9254 2.63663 28.9254H5.27326C5.27326 30.2748 5.78347 31.5072 6.62027 32.4408H0.878906C0.393486 32.4408 0 32.8344 0 33.3197C0 33.8051 0.393486 34.1986 0.878906 34.1986H44.1193C44.6048 34.1986 44.9982 33.8051 44.9982 33.3197C44.9982 32.8344 44.6048 32.4408 44.1193 32.4408H41.8934C42.7303 31.5071 43.2404 30.2748 43.2404 28.9254C43.2404 28.8753 43.2381 28.8254 43.2367 28.7754C44.2615 28.4137 44.9982 27.4359 44.9982 26.2887V21.4303C44.9982 20.4047 45.2013 21.3622 41.3899 13.5915ZM40.0606 14.8634L42.6973 20.1367H33.9244V14.8634H40.0606ZM1.75772 21.8944H3.51545V23.6521H1.75772V21.8944ZM10.5464 32.4408C8.60801 32.4408 7.03099 30.8637 7.03099 28.9254C7.03099 28.686 7.05472 28.4503 7.10218 28.2212C7.43273 26.5922 8.88126 25.4098 10.5464 25.4098C12.2116 25.4098 13.6602 26.5921 13.9907 28.2212C13.991 28.2225 13.9912 28.2236 13.9915 28.2249C14.0382 28.4502 14.0619 28.686 14.0619 28.9254C14.0619 30.8638 12.4849 32.4408 10.5464 32.4408ZM10.5464 23.6521C8.29459 23.6521 6.30729 25.0947 5.57464 27.1676H2.63663C2.152 27.1676 1.75772 26.7733 1.75772 26.2887V25.4097H4.39436C4.87978 25.4097 5.27326 25.0162 5.27326 24.5308V21.0154C5.27326 20.5301 4.87978 20.1365 4.39436 20.1365H1.75772V3.43814C1.75772 2.95352 2.152 2.55924 2.63663 2.55924H27.7723C28.2569 2.55924 28.6512 2.95352 28.6512 3.43814C28.6512 4.09196 28.6512 25.0599 28.6512 27.1676H15.5178C14.7838 25.0936 12.7973 23.6521 10.5464 23.6521ZM14.4726 32.4408C15.3095 31.5071 15.8196 30.2748 15.8196 28.9254C16.4944 28.9254 32.4066 28.9254 32.6939 28.9254C32.6939 30.2748 33.2041 31.5072 34.0409 32.4408H14.4726ZM37.9672 32.4408C36.0287 32.4408 34.4517 30.8637 34.4517 28.9254C34.4517 28.686 34.4754 28.4503 34.5229 28.2212C34.8535 26.5922 36.302 25.4098 37.9672 25.4098C39.6323 25.4098 41.081 26.5921 41.4114 28.2212C41.4117 28.2225 41.412 28.2236 41.4122 28.2249C41.459 28.4502 41.4826 28.686 41.4826 28.9254C41.4827 30.8638 39.9056 32.4408 37.9672 32.4408ZM43.2404 26.2887C43.2404 26.5811 43.0964 26.8397 42.8762 26.9997C42.0965 25.0161 40.1568 23.6522 37.9672 23.6522C35.7153 23.6522 33.728 25.0947 32.9954 27.1676H30.4088V11.3479H37.7597C38.0948 11.3479 38.396 11.5343 38.5459 11.8341L39.1817 13.1057H33.0456C32.5601 13.1057 32.1666 13.4992 32.1666 13.9846V21.0156C32.1666 21.5009 32.5601 21.8945 33.0456 21.8945H43.2404V26.2887Z" fill="#F7B219"/>
</svg>
