<svg width="45" height="45" viewBox="0 0 45 45" fill="none" xmlns="http://www.w3.org/2000/svg">
<g clip-path="url(#clip0_4612_9546)">
<path d="M42.0075 23.0829C41.8264 22.7124 41.8264 22.2876 42.0075 21.9172L43.6858 18.4838C44.6203 16.5721 43.8799 14.2935 42.0003 13.2962L38.6244 11.505C38.2602 11.3119 38.0105 10.968 37.9392 10.5621L37.279 6.79782C36.9114 4.70199 34.9727 3.29364 32.8662 3.59167L29.0823 4.12692C28.6739 4.18458 28.27 4.05327 27.9737 3.76666L25.2271 1.10957C23.6977 -0.369975 21.3018 -0.370063 19.7725 1.10957L17.0258 3.76693C16.7294 4.05362 16.3256 4.18467 15.9172 4.12719L12.1333 3.59194C10.0261 3.29373 8.08814 4.70225 7.7205 6.79808L7.06027 10.5622C6.98899 10.9682 6.73929 11.3119 6.37516 11.5052L2.99931 13.2964C1.11969 14.2936 0.3793 16.5723 1.31375 18.484L2.99201 21.9174C3.17306 22.2878 3.17306 22.7127 2.99201 23.0831L1.31366 26.5164C0.379213 28.4281 1.1196 30.7066 2.99922 31.7039L6.37508 33.4951C6.73929 33.6883 6.98899 34.0322 7.06027 34.4381L7.7205 38.2024C8.05518 40.1103 9.69117 41.4483 11.5714 41.4481C11.7566 41.4481 11.9445 41.4351 12.1334 41.4084L15.9173 40.8732C16.3254 40.8152 16.7295 40.9468 17.0259 41.2334L19.7725 43.8905C20.5373 44.6304 21.5184 45.0002 22.4997 45.0001C23.4809 45 24.4625 44.6302 25.227 43.8905L27.9737 41.2334C28.2701 40.9468 28.674 40.8159 29.0823 40.8732L32.8662 41.4084C34.9736 41.7065 36.9114 40.2981 37.279 38.2023L37.9393 34.4382C38.0106 34.0322 38.2603 33.6884 38.6244 33.4951L42.0003 31.7039C43.8799 30.7067 44.6203 28.428 43.6858 26.5163L42.0075 23.0829ZM40.7838 29.4112L37.4079 31.2024C36.3316 31.7736 35.5934 32.7894 35.3829 33.9896L34.7227 37.7538C34.5983 38.4629 33.9428 38.9391 33.2297 38.8385L29.4458 38.3033C28.2391 38.1323 27.045 38.5207 26.1692 39.3679L23.4224 42.0249C22.9051 42.5253 22.0945 42.5253 21.577 42.0249L18.8303 39.3678C18.0901 38.6517 17.1225 38.2637 16.1122 38.2637C15.9271 38.2637 15.7406 38.2767 15.5537 38.3032L11.7698 38.8384C11.0573 38.9391 10.4012 38.4628 10.2768 37.7537L9.61646 33.9894C9.40588 32.7892 8.66778 31.7733 7.59139 31.2023L4.21553 29.4111C3.57956 29.0737 3.32907 28.3028 3.64521 27.656L5.32356 24.2226C5.85863 23.1278 5.85863 21.8722 5.32356 20.7774L3.64521 17.344C3.32907 16.6972 3.57956 15.9263 4.21553 15.5889L7.59139 13.7977C8.66769 13.2265 9.40588 12.2107 9.61637 11.0105L10.2766 7.24632C10.4011 6.53722 11.0565 6.06086 11.7696 6.16158L15.5535 6.69683C16.7598 6.8676 17.9543 6.47939 18.8302 5.63222L21.5769 2.97512C22.0942 2.47468 22.9048 2.47468 23.4223 2.97512L26.169 5.63222C27.0448 6.47948 28.2391 6.8676 29.4456 6.69683L33.2295 6.16158C33.9421 6.06077 34.5982 6.53722 34.7225 7.24632L35.3828 11.0106C35.5934 12.2108 36.3315 13.2267 37.4078 13.7977L40.7837 15.5889C41.4197 15.9263 41.6702 16.6972 41.354 17.344L39.6757 20.7774C39.1406 21.872 39.1406 23.1278 39.6757 24.2225L41.354 27.6558C41.6702 28.3028 41.4198 29.0737 40.7838 29.4112Z" fill="#F7B219"/>
<path d="M31.9818 13.0179C31.4751 12.5111 30.6534 12.5111 30.1466 13.0179L13.0178 30.1468C12.511 30.6536 12.511 31.4753 13.0178 31.982C13.2712 32.2354 13.6033 32.3622 13.9353 32.3622C14.2674 32.3622 14.5996 32.2355 14.8529 31.982L31.9817 14.8532C32.4887 14.3464 32.4887 13.5248 31.9818 13.0179Z" fill="#F7B219"/>
<path d="M17.3091 10.8207C14.6854 10.8207 12.5508 12.9553 12.5508 15.579C12.5508 18.2027 14.6854 20.3372 17.3091 20.3372C19.9328 20.3372 22.0673 18.2027 22.0673 15.579C22.0673 12.9553 19.9328 10.8207 17.3091 10.8207ZM17.3091 17.7418C16.1165 17.7418 15.1463 16.7715 15.1463 15.5789C15.1463 14.3863 16.1165 13.4161 17.3091 13.4161C18.5016 13.4161 19.472 14.3863 19.472 15.5789C19.4719 16.7715 18.5016 17.7418 17.3091 17.7418Z" fill="#F7B219"/>
<path d="M27.6909 24.6628C25.0672 24.6628 22.9326 26.7974 22.9326 29.4211C22.9326 32.0448 25.0672 34.1794 27.6909 34.1794C30.3146 34.1794 32.4492 32.0448 32.4492 29.4211C32.4492 26.7974 30.3146 24.6628 27.6909 24.6628ZM27.6909 31.5839C26.4983 31.5839 25.528 30.6137 25.528 29.4211C25.528 28.2285 26.4982 27.2583 27.6909 27.2583C28.8835 27.2583 29.8537 28.2285 29.8537 29.4211C29.8537 30.6137 28.8835 31.5839 27.6909 31.5839Z" fill="#F7B219"/>
</g>
<defs>
<clipPath id="clip0_4612_9546">
<rect width="45" height="45" fill="white"/>
</clipPath>
</defs>
</svg>
