<svg width="45" height="45" viewBox="0 0 45 45" fill="none" xmlns="http://www.w3.org/2000/svg">
<g clip-path="url(#clip0_4612_9901)">
<path d="M41.0449 10.5469H35.68C36.5095 9.44438 37.002 8.0746 37.002 6.5918C37.002 2.95708 34.0449 0 30.4102 0C28.2207 0 26.6063 0.784424 25.3293 2.46858C24.261 3.87765 23.4798 5.84499 22.5 8.33071C21.5202 5.8449 20.739 3.87765 19.6707 2.46858C18.3938 0.784424 16.7793 0 14.5898 0C10.9551 0 7.99805 2.95708 7.99805 6.5918C7.99805 8.0746 8.4905 9.44438 9.32001 10.5469H3.95508C1.77425 10.5469 0 12.3211 0 14.502V17.1387C0 18.8574 1.10224 20.3228 2.63672 20.867V41.0449C2.63672 43.2258 4.41097 45 6.5918 45H38.4082C40.589 45 42.3633 43.2258 42.3633 41.0449V20.867C43.8978 20.3228 45 18.8574 45 17.1387V14.502C45 12.3211 43.2258 10.5469 41.0449 10.5469ZM24.92 9.38144C26.9396 4.2576 27.7074 2.63672 30.4102 2.63672C32.591 2.63672 34.3652 4.41097 34.3652 6.5918C34.3652 8.77263 32.591 10.5469 30.4102 10.5469H24.4588C24.6204 10.1413 24.7744 9.75076 24.92 9.38144ZM14.5898 2.63672C17.2926 2.63672 18.0604 4.2576 20.08 9.38144C20.2256 9.75076 20.3796 10.1413 20.5412 10.5469H14.5898C12.409 10.5469 10.6348 8.77263 10.6348 6.5918C10.6348 4.41097 12.409 2.63672 14.5898 2.63672ZM17.2266 42.3633H6.5918C5.86485 42.3633 5.27344 41.7719 5.27344 41.0449V21.0938H17.2266V42.3633ZM17.2266 18.457H3.95508C3.22813 18.457 2.63672 17.8656 2.63672 17.1387V14.502C2.63672 13.775 3.22813 13.1836 3.95508 13.1836H17.2266V18.457ZM25.1367 42.3633H19.8633V13.1836C20.1395 13.1836 23.6215 13.1836 25.1367 13.1836V42.3633ZM39.7266 41.0449C39.7266 41.7719 39.1351 42.3633 38.4082 42.3633H27.7734V21.0938H39.7266V41.0449ZM42.3633 17.1387C42.3633 17.8656 41.7719 18.457 41.0449 18.457H27.7734V13.1836H41.0449C41.7719 13.1836 42.3633 13.775 42.3633 14.502V17.1387Z" fill="#F7B219"/>
</g>
<defs>
<clipPath id="clip0_4612_9901">
<rect width="45" height="45" fill="white"/>
</clipPath>
</defs>
</svg>
