<svg width="45" height="45" viewBox="0 0 45 45" fill="none" xmlns="http://www.w3.org/2000/svg">
<path d="M36.5625 39.375C36.2844 39.375 36.0125 39.4575 35.7812 39.612C35.55 39.7665 35.3697 39.9861 35.2633 40.2431C35.1569 40.5001 35.129 40.7828 35.1833 41.0556C35.2375 41.3284 35.3715 41.579 35.5681 41.7756C35.7648 41.9723 36.0154 42.1062 36.2882 42.1605C36.5609 42.2147 36.8437 42.1869 37.1006 42.0805C37.3576 41.974 37.5772 41.7938 37.7318 41.5625C37.8863 41.3313 37.9688 41.0594 37.9688 40.7812C37.9688 40.4083 37.8206 40.0506 37.5569 39.7869C37.2931 39.5232 36.9355 39.375 36.5625 39.375Z" fill="#F7B219"/>
<path d="M30.9375 39.375C30.6594 39.375 30.3875 39.4575 30.1562 39.612C29.925 39.7665 29.7447 39.9861 29.6383 40.2431C29.5319 40.5001 29.504 40.7828 29.5583 41.0556C29.6125 41.3284 29.7465 41.579 29.9431 41.7756C30.1398 41.9723 30.3904 42.1062 30.6632 42.1605C30.9359 42.2147 31.2187 42.1869 31.4756 42.0805C31.7326 41.974 31.9522 41.7938 32.1068 41.5625C32.2613 41.3313 32.3438 41.0594 32.3438 40.7812C32.3438 40.4083 32.1956 40.0506 31.9319 39.7869C31.6681 39.5232 31.3105 39.375 30.9375 39.375Z" fill="#F7B219"/>
<path d="M41.9484 28.7438C41.8194 28.5529 41.6455 28.3967 41.442 28.2888C41.2385 28.1809 41.0116 28.1247 40.7812 28.125H29.8969L29.5312 25.1438C29.4898 24.8008 29.3235 24.4851 29.0642 24.2568C28.8048 24.0286 28.4705 23.9038 28.125 23.9063H25.3125C24.9395 23.9063 24.5819 24.0544 24.3181 24.3182C24.0544 24.5819 23.9062 24.9396 23.9062 25.3125C23.9062 25.6855 24.0544 26.0432 24.3181 26.3069C24.5819 26.5706 24.9395 26.7188 25.3125 26.7188H26.8875L28.125 36.7313C28.1665 37.0743 28.3327 37.39 28.5921 37.6183C28.8515 37.8465 29.1858 37.9713 29.5312 37.9688H37.9688C38.2504 37.9691 38.5256 37.8848 38.7588 37.7268C38.992 37.5688 39.1724 37.3445 39.2766 37.0828L42.0891 30.0516C42.174 29.8387 42.2056 29.6082 42.1811 29.3802C42.1566 29.1523 42.0767 28.9338 41.9484 28.7438ZM37.0125 35.1563H30.7687L30.2484 30.9375H38.6859L37.0125 35.1563Z" fill="#F7B219"/>
<path d="M16.875 8.4375C15.2062 8.4375 13.5749 8.93235 12.1874 9.85948C10.7998 10.7866 9.71838 12.1044 9.07977 13.6461C8.44116 15.1879 8.27407 16.8844 8.59963 18.5211C8.92519 20.1578 9.72879 21.6612 10.9088 22.8412C12.0888 24.0212 13.5922 24.8248 15.2289 25.1504C16.8656 25.4759 18.5621 25.3088 20.1039 24.6702C21.6456 24.0316 22.9634 22.9502 23.8905 21.5626C24.8177 20.1751 25.3125 18.5438 25.3125 16.875C25.3125 14.6372 24.4236 12.4911 22.8412 10.9088C21.2589 9.32645 19.1128 8.4375 16.875 8.4375ZM16.875 22.5C15.7625 22.5 14.6749 22.1701 13.7499 21.552C12.8249 20.9339 12.1039 20.0554 11.6782 19.0276C11.2524 17.9998 11.141 16.8688 11.3581 15.7776C11.5751 14.6865 12.1109 13.6842 12.8975 12.8975C13.6842 12.1109 14.6865 11.5751 15.7776 11.3581C16.8688 11.141 17.9998 11.2524 19.0276 11.6782C20.0554 12.1039 20.9339 12.8249 21.552 13.7499C22.1701 14.6749 22.5 15.7625 22.5 16.875C22.5 18.3668 21.9074 19.7976 20.8525 20.8525C19.7976 21.9074 18.3668 22.5 16.875 22.5Z" fill="#F7B219"/>
<path d="M22.7531 32.3438C21.0499 34.7578 19.0779 36.9704 16.875 38.9391C14.0625 36.4641 5.625 27.9703 5.625 16.875C5.625 13.8913 6.81026 11.0298 8.92005 8.92005C11.0298 6.81026 13.8913 5.625 16.875 5.625C19.8587 5.625 22.7202 6.81026 24.83 8.92005C26.9397 11.0298 28.125 13.8913 28.125 16.875C28.1285 17.7497 28.0721 18.6236 27.9562 19.4906C27.9304 19.6753 27.9412 19.8633 27.988 20.0438C28.0347 20.2243 28.1166 20.3938 28.2289 20.5427C28.3412 20.6915 28.4817 20.8168 28.6425 20.9114C28.8032 21.0059 28.981 21.0679 29.1656 21.0938C29.5386 21.146 29.917 21.0479 30.2177 20.8211C30.3665 20.7088 30.4918 20.5683 30.5864 20.4075C30.6809 20.2468 30.7429 20.069 30.7687 19.8844C30.8916 18.8861 30.948 17.8808 30.9375 16.875C30.9375 13.1454 29.4559 9.56854 26.8187 6.93131C24.1815 4.29408 20.6046 2.8125 16.875 2.8125C13.1454 2.8125 9.56854 4.29408 6.93131 6.93131C4.29408 9.56854 2.8125 13.1454 2.8125 16.875C2.8125 31.4578 15.4688 41.4703 16.0172 41.8922C16.2631 42.0815 16.5647 42.1841 16.875 42.1841C17.1853 42.1841 17.4869 42.0815 17.7328 41.8922C20.5252 39.5841 22.99 36.9064 25.0594 33.9328C25.2311 33.627 25.2824 33.2682 25.2031 32.9265C25.1239 32.5849 24.9199 32.2852 24.6311 32.0863C24.3423 31.8873 23.9896 31.8034 23.6422 31.851C23.2948 31.8987 22.9777 32.0744 22.7531 32.3438Z" fill="#F7B219"/>
</svg>
