<svg width="45" height="45" viewBox="0 0 45 45" fill="none" xmlns="http://www.w3.org/2000/svg">
<path d="M29.0126 14.3109C24.6363 7.87249 18.7912 4.45051 15.7302 6.54721C15.3932 6.78458 15.1003 7.07913 14.8648 7.41754C14.8648 7.44227 7.77856 21.7829 7.77856 21.7829L3.82252 24.4631C3.21521 24.8754 2.69508 25.4033 2.29183 26.0166C1.88858 26.6299 1.61012 27.3167 1.47235 28.0377C1.33458 28.7586 1.34021 29.4997 1.48892 30.2185C1.63762 30.9373 1.92648 31.6197 2.339 32.2269L2.51703 32.489C3.35087 33.7036 4.62996 34.5406 6.07687 34.8183C7.52378 35.096 9.02185 34.7921 10.2461 33.9725L16.6005 43.3335C17.5352 44.4857 19.3302 45.6329 21.5456 44.2829C21.9381 44.0284 22.2729 43.6945 22.5284 43.3027C22.7839 42.9109 22.9545 42.47 23.0291 42.0082C23.1186 41.5489 23.1162 41.0764 23.022 40.6181C22.9278 40.1597 22.7436 39.7246 22.4802 39.3379L16.8824 31.0796C16.8824 31.0796 30.1154 30.0263 30.1648 30.0066C30.578 29.9201 30.9697 29.752 31.317 29.512C32.8896 28.4439 33.4533 26.2038 32.9093 23.2022C32.4198 20.4379 31.0302 17.3077 29.0126 14.3109ZM3.95604 31.5148L3.77802 31.2527C3.4934 30.8337 3.29421 30.3627 3.19186 29.8666C3.08951 29.3705 3.08601 28.8591 3.18154 28.3616C3.27708 27.8642 3.46979 27.3905 3.74864 26.9676C4.02748 26.5447 4.38699 26.181 4.80659 25.8972L8.22362 23.573L12.7335 30.2142L9.31648 32.5384C8.89737 32.8234 8.42621 33.023 7.92992 33.1258C7.43363 33.2286 6.92195 33.2326 6.42412 33.1375C5.92629 33.0424 5.45208 32.8502 5.0286 32.5718C4.60511 32.2933 4.24064 31.9342 3.95604 31.5148ZM21.056 40.312C21.3263 40.7142 21.426 41.2071 21.3333 41.6827C21.2406 42.1583 20.9631 42.5777 20.5615 42.8489C20.1586 43.1194 19.6649 43.2192 19.1885 43.1266C18.7121 43.0339 18.2919 42.7562 18.0198 42.3544L11.6852 33.023L14.2319 31.2923L14.9044 31.2379L21.056 40.312ZM14.3703 29.5417L9.45494 22.3022L14.1429 12.7434C14.5978 15.4285 15.928 18.6181 18.0544 21.7483C20.1808 24.8785 22.6533 27.2917 24.9775 28.706L14.3703 29.5417ZM28.9582 28.3895C26.5945 28.2362 22.7472 25.5708 19.4885 20.7692C16.2297 15.9675 15.1714 11.423 15.8983 9.16315C16.0296 8.73895 16.2916 8.36709 16.6468 8.10067C17.002 7.83424 17.4324 7.68688 17.8764 7.67963C20.2203 7.67963 24.211 10.3598 27.5637 15.3C29.4527 18.0791 30.8275 20.9868 31.2033 23.5285C31.9401 28.3895 28.9582 28.3895 28.9582 28.3895Z" fill="#F7B219"/>
<path d="M22.8314 14.4939C22.2257 14.375 21.6023 14.378 20.9977 14.5028C20.3932 14.6276 19.8196 14.8718 19.3105 15.2209C19.2167 15.2858 19.1365 15.3686 19.0747 15.4645C19.0129 15.5604 18.9705 15.6676 18.9501 15.7798C18.9296 15.8921 18.9315 16.0073 18.9556 16.1188C18.9797 16.2304 19.0255 16.3361 19.0905 16.4299C19.1554 16.5238 19.2382 16.6039 19.3341 16.6657C19.43 16.7276 19.5371 16.7699 19.6494 16.7904C19.7617 16.8108 19.8769 16.8089 19.9884 16.7848C20.1 16.7607 20.2057 16.7149 20.2995 16.65C20.6219 16.4311 20.9843 16.2779 21.3659 16.1991C21.7476 16.1203 22.141 16.1175 22.5237 16.1907C22.9065 16.264 23.271 16.4119 23.5966 16.626C23.9222 16.8401 24.2024 17.1163 24.4212 17.4387C24.6401 17.7612 24.7933 18.1235 24.8721 18.5052C24.9509 18.8868 24.9537 19.2802 24.8805 19.6629C24.8073 20.0457 24.6593 20.4102 24.4452 20.7358C24.2311 21.0614 23.9549 21.3416 23.6325 21.5604C23.4805 21.6654 23.366 21.8163 23.3059 21.991C23.2458 22.1657 23.2432 22.3551 23.2985 22.5314C23.3537 22.7077 23.464 22.8617 23.6131 22.9708C23.7621 23.0799 23.9422 23.1385 24.127 23.1379C24.3033 23.1412 24.4762 23.0893 24.6215 22.9896C25.3906 22.4685 25.9878 21.7309 26.3374 20.8702C26.687 20.0095 26.7733 19.0644 26.5853 18.1546C26.3973 17.2448 25.9435 16.4113 25.2814 15.7596C24.6193 15.1079 23.7787 14.6675 22.866 14.4939H22.8314Z" fill="#F7B219"/>
<path d="M30.0807 8.29284H30.1647C30.3788 8.29275 30.5852 8.21334 30.7441 8.06995C30.903 7.92656 31.0032 7.72937 31.0252 7.51646L31.6928 1.02855C31.708 0.913827 31.7 0.797222 31.6693 0.685633C31.6387 0.574045 31.5859 0.469741 31.5142 0.378892C31.4425 0.288042 31.3534 0.212494 31.252 0.156715C31.1506 0.100937 31.039 0.0660623 30.9239 0.0541542C30.8088 0.0422462 30.6925 0.053547 30.5818 0.0873878C30.4711 0.121229 30.3684 0.176922 30.2796 0.251173C30.1909 0.325424 30.1179 0.416725 30.065 0.519673C30.0122 0.62262 29.9805 0.735124 29.9719 0.850528L29.3092 7.34339C29.2857 7.57157 29.3538 7.79975 29.4984 7.97779C29.6431 8.15582 29.8525 8.26914 30.0807 8.29284Z" fill="#F7B219"/>
<path d="M41.2666 6.9577C41.1396 6.76616 40.9419 6.63267 40.7168 6.58634C40.4917 6.54002 40.2574 6.58463 40.065 6.71044L34.037 10.6665C33.8805 10.7698 33.7617 10.9213 33.6987 11.0979C33.6357 11.2746 33.6318 11.467 33.6876 11.646C33.7434 11.8251 33.8559 11.9812 34.0081 12.0908C34.1603 12.2005 34.344 12.2577 34.5315 12.2538C34.7064 12.2579 34.8786 12.2097 35.026 12.1154L41.054 8.15934C41.241 8.02777 41.3684 7.82753 41.4082 7.60238C41.448 7.37722 41.3971 7.14545 41.2666 6.9577Z" fill="#F7B219"/>
<path d="M43.1112 17.5203L36.0991 16.2593C35.8729 16.2187 35.6397 16.2696 35.451 16.4008C35.2623 16.532 35.1334 16.7328 35.0928 16.9591C35.0521 17.1853 35.103 17.4184 35.2342 17.6071C35.3654 17.7959 35.5663 17.9247 35.7925 17.9654L42.7996 19.2264H42.9529C43.1734 19.2328 43.3881 19.1548 43.553 19.0083C43.7179 18.8618 43.8206 18.6579 43.8402 18.4381C43.8598 18.2184 43.7947 17.9995 43.6583 17.8262C43.5219 17.6528 43.3244 17.5381 43.1062 17.5055L43.1112 17.5203Z" fill="#F7B219"/>
</svg>
