<svg width="45" height="45" viewBox="0 0 45 45" fill="none" xmlns="http://www.w3.org/2000/svg">
<g clip-path="url(#clip0_4612_9582)">
<path d="M7.47677 39.9842C7.31338 39.8206 7.08662 39.7267 6.85547 39.7267C6.62432 39.7267 6.39756 39.8206 6.23408 39.9842C6.07061 40.1478 5.97656 40.3744 5.97656 40.6056C5.97656 40.8367 6.07052 41.0635 6.23408 41.2269C6.39756 41.3904 6.62432 41.4845 6.85547 41.4845C7.08662 41.4845 7.31338 41.3905 7.47677 41.2269C7.64024 41.0635 7.73438 40.8367 7.73438 40.6056C7.73438 40.3744 7.64033 40.1477 7.47677 39.9842Z" fill="#F7B219"/>
<path d="M41.2669 16.0786C41.1034 15.915 40.8775 15.821 40.6455 15.821C40.4144 15.821 40.1876 15.915 40.0241 16.0786C39.8607 16.242 39.7666 16.4688 39.7666 16.7C39.7666 16.9311 39.8606 17.1579 40.0241 17.3212C40.1876 17.4847 40.4144 17.5789 40.6455 17.5789C40.8775 17.5789 41.1034 17.4848 41.2669 17.3212C41.4312 17.1579 41.5252 16.9311 41.5252 16.7C41.5252 16.4688 41.4312 16.242 41.2669 16.0786Z" fill="#F7B219"/>
<path d="M44.7424 0.257432C44.5775 0.0926367 44.3539 0 44.1208 0L22.5002 0.00114258C22.0149 0.00114258 21.6214 0.394717 21.6214 0.880049V3.39346L13.2903 5.62579C12.8214 5.75147 12.5431 6.23338 12.6688 6.70219L16.9866 22.8162L13.2514 26.5515C12.776 25.8573 11.9777 25.4008 11.0748 25.4008H2.63761C1.18372 25.4008 0.000976562 26.5837 0.000976562 28.0375V42.3633C0.000976562 43.8172 1.18372 45 2.63761 45H11.0749C12.3101 45 13.3491 44.1461 13.6339 42.9979L14.6789 43.9092C15.4856 44.6127 16.5192 45.0001 17.5896 45.0001H44.1209C44.6063 45.0001 44.9998 44.6065 44.9998 44.1212V0.878906C44.9997 0.64582 44.9072 0.422227 44.7424 0.257432ZM11.9537 42.3634C11.9537 42.8479 11.5594 43.2423 11.0748 43.2423H2.63752C2.15289 43.2423 1.75861 42.848 1.75861 42.3634V28.0375C1.75861 27.5529 2.15289 27.1586 2.63752 27.1586H5.97728V37.2832C5.97728 37.7685 6.37085 38.1621 6.85618 38.1621C7.34151 38.1621 7.73509 37.7685 7.73509 37.2832V27.1586H11.0748C11.5595 27.1586 11.9538 27.5529 11.9538 28.0375V42.3634H11.9537ZM14.5942 7.0962L21.6214 5.21323V8.47002L21.0323 8.62787C20.8071 8.68825 20.6152 8.83547 20.4987 9.03735C20.3821 9.23924 20.3505 9.47909 20.4109 9.70427C20.7486 10.9647 19.9979 12.2649 18.7375 12.6026C18.5121 12.6631 18.3198 12.8106 18.2034 13.0129C18.0869 13.2151 18.0556 13.4554 18.1165 13.6808L21.5424 26.3667H19.7784L18.8693 22.8103C18.8404 22.6971 18.7898 22.5928 18.722 22.5021L14.5942 7.0962ZM21.6214 12.5006V19.9169L20.0183 13.9812C20.688 13.6354 21.236 13.1181 21.6214 12.5006ZM34.2481 43.2422H17.5895C16.9439 43.2422 16.3205 43.0086 15.8339 42.5843L13.7115 40.7333V28.5774L17.5486 24.7402L18.2445 27.4631C18.344 27.8522 18.6944 28.1243 19.096 28.1243L36.3757 28.1254C37.0542 28.1254 37.6061 28.6773 37.6061 29.3558C37.6061 30.0343 37.0542 30.5863 36.3757 30.5863H27.5216C27.0362 30.5863 26.6427 30.9799 26.6427 31.4652C26.6427 31.9505 27.0362 32.3441 27.5216 32.3441H39.1266C39.8052 32.3441 40.3571 32.8961 40.3571 33.5746C40.3571 34.2531 39.8052 34.805 39.1266 34.805H27.5216C27.0362 34.805 26.6427 35.1986 26.6427 35.6839C26.6427 36.1693 27.0362 36.5629 27.5216 36.5629H37.246C37.9246 36.5629 38.4765 37.1148 38.4765 37.7933C38.4765 38.4718 37.9246 39.0238 37.246 39.0238H27.5216C27.0362 39.0238 26.6427 39.4174 26.6427 39.9027C26.6427 40.388 27.0362 40.7816 27.5216 40.7816H34.2481C34.9266 40.7816 35.4786 41.3336 35.4786 42.0121C35.4785 42.6902 34.9265 43.2422 34.2481 43.2422ZM43.242 43.2422H36.9701C37.1406 42.8666 37.2363 42.4503 37.2363 42.0117C37.2363 41.5731 37.1406 41.1568 36.9701 40.7812H37.246C38.8937 40.7812 40.2342 39.4407 40.2342 37.7931C40.2342 37.3125 40.1195 36.8583 39.917 36.4556C41.1823 36.1081 42.1147 34.9484 42.1147 33.5744C42.1147 32.9078 41.8952 32.2916 41.5249 31.7942V20.6549C41.5249 20.1696 41.1313 19.776 40.646 19.776C40.1607 19.776 39.7671 20.1696 39.7671 20.6549V30.6562C39.5606 30.6109 39.3464 30.5863 39.1265 30.5863H39.0976C39.2681 30.2107 39.3638 29.7944 39.3638 29.3558C39.3638 27.708 38.0233 26.3676 36.3756 26.3676H34.9627C36.4629 25.7243 37.5166 24.2331 37.5166 22.5C37.5166 20.1807 35.6297 18.2937 33.3104 18.2937C30.9911 18.2937 29.1042 20.1807 29.1042 22.5C29.1042 24.2331 30.1579 25.7243 31.658 26.3676H26.8537V9.65593C28.4238 9.31377 29.6627 8.07495 30.0047 6.50479H36.616C36.958 8.07495 38.1969 9.31377 39.767 9.65593V12.3884C39.767 12.8738 40.1606 13.2674 40.6459 13.2674C41.1312 13.2674 41.5248 12.8738 41.5248 12.3884V8.87124C41.5248 8.38591 41.1312 7.99233 40.6459 7.99233C39.341 7.99233 38.2795 6.9307 38.2795 5.62588C38.2795 5.14055 37.886 4.74697 37.4006 4.74697H29.2201C28.7348 4.74697 28.3412 5.14055 28.3412 5.62588C28.3412 6.93079 27.2797 7.99233 25.9749 7.99233C25.4895 7.99233 25.096 8.38591 25.096 8.87124V26.3675H23.3793V1.75878L43.242 1.75781V43.2422ZM33.3106 24.9485C31.9605 24.9485 30.8622 23.8501 30.8622 22.5001C30.8622 21.1501 31.9606 20.0516 33.3106 20.0516C34.6606 20.0516 35.7589 21.15 35.7589 22.5C35.7589 23.85 34.6606 24.9485 33.3106 24.9485Z" fill="#F7B219"/>
</g>
<defs>
<clipPath id="clip0_4612_9582">
<rect width="45" height="45" fill="white"/>
</clipPath>
</defs>
</svg>
