<svg width="45" height="45" viewBox="0 0 45 45" fill="none" xmlns="http://www.w3.org/2000/svg">
<g clip-path="url(#clip0_4612_9535)">
<path d="M44.9795 18.4893C44.9468 18.1031 44.665 17.784 44.2859 17.7037C44.0672 17.6574 43.8469 17.6243 43.6265 17.6038C43.7013 17.4851 43.7724 17.3638 43.8387 17.2391C44.6974 15.624 44.741 13.672 43.9552 12.0176C43.7889 11.6675 43.4125 11.4677 43.0299 11.5256C41.219 11.7994 39.6253 12.9272 38.7665 14.5425C38.7664 14.5425 38.7664 14.5425 38.7664 14.5425C38.6778 14.7092 38.6 14.8803 38.5287 15.0536C38.0217 14.4768 37.4013 13.9974 36.6957 13.6564C36.3469 13.4879 35.9286 13.5675 35.6663 13.8528C34.4977 15.1237 33.9553 16.8651 34.1842 18.5658C34.1224 18.5865 34.0622 18.6139 34.0049 18.6491C32.4434 19.6063 31.4144 21.2655 31.2523 23.0875C31.1229 24.5412 31.5553 25.9899 32.4298 27.1351C31.8719 27.4703 31.2867 27.7653 30.6781 28.0162V26.7186C30.6781 25.2648 29.4952 24.0819 28.0414 24.0819H25.84V18.3371C25.84 17.8517 25.4464 17.4582 24.9611 17.4582C24.4757 17.4582 24.0822 17.8517 24.0822 18.3371V24.9608C24.0822 25.4462 24.4757 25.8397 24.9611 25.8397H28.0414C28.526 25.8397 28.9203 26.234 28.9203 26.7186V29.0038H16.0798V26.7186C16.0798 26.234 16.4741 25.8397 16.9587 25.8397H20.039C20.5244 25.8397 20.9179 25.4462 20.9179 24.9608V8.57764C20.9179 8.22222 20.7038 7.90168 20.3754 7.76563C20.0469 7.62957 19.6689 7.70489 19.4176 7.95608L16.0774 11.2962L13.8401 9.05893L19.3838 3.51525H24.0821V11.0096C24.0821 11.495 24.4757 11.8885 24.961 11.8885C25.4463 11.8885 25.8399 11.495 25.8399 11.0096V2.63635C25.8399 2.15093 25.4463 1.75745 24.961 1.75745H19.0197C18.7866 1.75745 18.5631 1.85008 18.3982 2.01488L12.5971 7.81599C12.2651 8.14804 12.0823 8.58942 12.0823 9.05902C12.0823 9.52862 12.2651 9.97 12.5971 10.3021L14.8344 12.5393C15.5198 13.2248 16.6349 13.2248 17.3203 12.5393L19.16 10.6996V24.0819H16.9587C15.5048 24.0819 14.322 25.2648 14.322 26.7186V28.0162C13.7133 27.7653 13.1281 27.4702 12.5702 27.1351C13.4447 25.9901 13.8771 24.5413 13.7478 23.0875C13.5855 21.2656 12.5565 19.6063 10.9951 18.6491C10.9378 18.6139 10.8776 18.5865 10.8158 18.5658C11.0447 16.8652 10.5023 15.1239 9.33374 13.8529C9.07139 13.5676 8.65338 13.4879 8.30428 13.6565C7.5987 13.9975 6.97828 14.4769 6.47133 15.0537C6.40005 14.8804 6.32227 14.7093 6.23359 14.5426C5.37481 12.9274 3.7811 11.7996 1.97012 11.5257C1.58656 11.4679 1.21101 11.6676 1.04481 12.0177C0.259069 13.6721 0.302662 15.6241 1.16126 17.2391C1.22753 17.3638 1.29872 17.4852 1.37352 17.6039C1.153 17.6245 0.932923 17.6575 0.714164 17.7038C0.335094 17.7841 0.0532296 18.1033 0.0205344 18.4894C-0.134152 20.3143 0.592085 22.1267 1.96326 23.3374C2.45756 23.7739 3.01944 24.116 3.61929 24.3592C3.23512 24.5516 2.87029 24.7869 2.53341 25.0642C2.23431 25.3105 2.13175 25.7237 2.28107 26.0813C2.98666 27.7714 4.46796 29.0433 6.24334 29.484C6.70107 29.5976 7.16716 29.6531 7.63139 29.6531C8.9356 29.6531 10.223 29.2131 11.2598 28.3889C11.5988 28.6077 11.948 28.8125 12.3056 29.004H11.2499C9.79604 29.004 8.61321 30.1868 8.61321 31.6407V35.1564H8.43743C6.0143 35.1564 4.04283 37.1277 4.04283 39.551V42.3635C4.04283 42.8488 4.43641 43.2424 4.92174 43.2424H17.4022C17.8876 43.2424 18.2811 42.8488 18.2811 42.3635C18.2811 41.8781 17.8876 41.4846 17.4022 41.4846H5.80064V39.551C5.80064 38.0971 6.98347 36.9143 8.43735 36.9143H9.49203H35.5079H36.5626C38.0165 36.9143 39.1993 38.0971 39.1993 39.551V41.4846H25.4883C25.003 41.4846 24.6094 41.8781 24.6094 42.3635C24.6094 42.8488 25.003 43.2424 25.4883 43.2424H40.0783C40.5636 43.2424 40.9572 42.8488 40.9572 42.3635V39.551C40.9572 37.1278 38.9858 35.1564 36.5626 35.1564H36.3868V31.6407C36.3868 30.1868 35.204 29.004 33.7501 29.004H32.6944C33.052 28.8125 33.4011 28.6077 33.7403 28.3889C34.777 29.2133 36.0642 29.6531 37.3686 29.6531C37.8327 29.6531 38.2991 29.5976 38.7567 29.484C40.532 29.0434 42.0134 27.7715 42.7189 26.0813C42.8683 25.7237 42.7657 25.3105 42.4666 25.0642C42.1297 24.7868 41.7648 24.5515 41.3806 24.3592C41.9805 24.116 42.5425 23.7738 43.0368 23.3374C44.4079 22.1266 45.1342 20.3143 44.9795 18.4893ZM6.84996 18.1282C7.0485 17.0881 7.62559 16.1945 8.46802 15.5946C9.03034 16.4625 9.23785 17.506 9.03939 18.5461C8.84085 19.5861 8.26376 20.4797 7.42134 21.0796C6.85901 20.2117 6.6515 19.1682 6.84996 18.1282ZM2.38689 13.4256C3.36898 13.7496 4.18442 14.4328 4.68144 15.3677C5.08591 16.1286 5.23419 16.9711 5.12406 17.7949C5.1238 17.7961 5.12344 17.7973 5.12327 17.7986C5.1085 17.8762 5.09585 17.954 5.08433 18.0318C5.06315 18.1404 5.03837 18.2486 5.00804 18.356C4.02596 18.0319 3.21051 17.3487 2.71349 16.4139C2.21656 15.4791 2.10626 14.4209 2.38689 13.4256ZM3.12693 22.0196C2.33328 21.3188 1.8585 20.3669 1.77166 19.3364C2.80376 19.2945 3.80834 19.648 4.60208 20.3489C5.39573 21.0496 5.8706 22.0017 5.95735 23.0322C4.92437 23.0724 3.92058 22.7204 3.12693 22.0196ZM6.66688 27.7778C5.63936 27.5229 4.77847 26.8978 4.22564 26.0239C5.12283 25.5099 6.17611 25.3596 7.20372 25.6146C7.82958 25.7699 8.39305 26.0632 8.86326 26.4656C8.97137 26.5723 9.08088 26.6776 9.19215 26.781C9.35958 26.9613 9.51145 27.1575 9.64505 27.3686C8.7476 27.8828 7.69467 28.033 6.66688 27.7778ZM11.1345 26.1233C10.3561 25.4426 9.87075 24.4957 9.77688 23.4411C9.68301 22.3865 9.99336 21.369 10.6393 20.5614C11.4178 21.2422 11.903 22.1889 11.9969 23.2435C12.0909 24.298 11.7805 25.3156 11.1345 26.1233ZM33.7502 30.7616C34.2348 30.7616 34.6291 31.156 34.6291 31.6405V35.1562H10.371V31.6405C10.371 31.1559 10.7653 30.7616 11.2499 30.7616H15.2009H29.7992H33.7502ZM40.3187 15.3677C40.8157 14.4328 41.6312 13.7496 42.6132 13.4256C42.8939 14.4209 42.7835 15.4791 42.2865 16.4139C41.7896 17.3487 40.9741 18.0319 39.9921 18.3559C39.9618 18.2486 39.937 18.1404 39.9158 18.0317C39.9043 17.9539 39.8917 17.8761 39.8768 17.7985C39.8766 17.7972 39.8762 17.796 39.876 17.7948C39.7659 16.971 39.9142 16.1286 40.3187 15.3677ZM36.5322 15.5946C37.3746 16.1945 37.9517 17.0881 38.1502 18.1282C38.3487 19.1682 38.1412 20.2116 37.5789 21.0795C36.7364 20.4797 36.1593 19.586 35.9608 18.546C35.7623 17.506 35.9698 16.4625 36.5322 15.5946ZM35.2232 23.4409C35.1294 24.4956 34.644 25.4424 33.8656 26.1232C33.2196 25.3156 32.9093 24.298 33.0032 23.2434C33.0971 22.1888 33.5823 21.242 34.3608 20.5613C35.0068 21.3688 35.3171 22.3864 35.2232 23.4409ZM38.3334 27.7778C37.3056 28.0329 36.2525 27.8826 35.3553 27.3686C35.4889 27.1574 35.6409 26.9611 35.8084 26.7808C35.9196 26.6775 36.029 26.5724 36.1369 26.4657C36.6072 26.0632 37.1707 25.7699 37.7966 25.6146C38.8243 25.3599 39.8775 25.51 40.7746 26.0239C40.2217 26.8978 39.3609 27.5229 38.3334 27.7778ZM41.8733 22.0196C41.0795 22.7203 40.0749 23.0732 39.0428 23.0322C39.1295 22.0016 39.6044 21.0495 40.398 20.3489C41.1917 19.648 42.1949 19.295 43.2284 19.3364C43.1417 20.3669 42.6668 21.3188 41.8733 22.0196Z" fill="#F7B219"/>
<path d="M22.0013 41.7419C21.8378 41.5784 21.611 41.4844 21.3799 41.4844C21.1487 41.4844 20.922 41.5783 20.7585 41.7419C20.5951 41.9054 20.501 42.1321 20.501 42.3633C20.501 42.5944 20.595 42.8212 20.7585 42.9846C20.922 43.1481 21.1487 43.2422 21.3799 43.2422C21.611 43.2422 21.8378 43.1481 22.0013 42.9846C22.1647 42.8212 22.2588 42.5944 22.2588 42.3633C22.2588 42.1321 22.1647 41.9054 22.0013 41.7419Z" fill="#F7B219"/>
<path d="M25.5822 13.8259C25.4188 13.6624 25.1921 13.5692 24.9609 13.5692C24.7298 13.5692 24.503 13.6624 24.3396 13.8259C24.1761 13.9902 24.082 14.2161 24.082 14.4481C24.082 14.6793 24.176 14.906 24.3396 15.0695C24.503 15.233 24.7298 15.327 24.9609 15.327C25.1921 15.327 25.4188 15.233 25.5822 15.0695C25.7457 14.906 25.8398 14.6793 25.8398 14.4481C25.8398 14.2161 25.7458 13.9902 25.5822 13.8259Z" fill="#F7B219"/>
</g>
<defs>
<clipPath id="clip0_4612_9535">
<rect width="45" height="45" fill="white"/>
</clipPath>
</defs>
</svg>
