<svg width="45" height="45" viewBox="0 0 45 45" fill="none" xmlns="http://www.w3.org/2000/svg">
<g clip-path="url(#clip0_4612_9906)">
<path d="M33.1354 3.28972C32.8882 3.04047 32.5511 2.90039 32.1999 2.90039C31.8486 2.90039 31.5118 3.04081 31.2643 3.29006L27.3697 7.21493C27.1118 7.47449 26.7695 7.61765 26.4063 7.61765C26.1296 7.61765 19.51 7.61765 18.3499 7.61765C17.9863 7.61765 17.6443 7.47449 17.3841 7.21287L13.5578 3.37589C13.3106 3.12767 12.9744 2.98828 12.6243 2.98828C12.6239 2.98828 12.6232 2.98828 12.6229 2.98828C12.272 2.98862 11.9359 3.12904 11.6887 3.37795L0.29483 14.8559C-0.216378 15.3709 -0.215348 16.2021 0.297233 16.7161L3.56499 19.99C4.184 20.6138 4.52492 21.4436 4.52492 22.327C4.52492 23.4699 4.84558 24.5631 5.44159 25.5048C4.14452 27.082 4.22829 29.431 5.69428 30.9077C6.40393 31.6228 7.3333 32.0362 8.32997 32.0849C8.37563 33.049 8.7629 33.9993 9.49212 34.7337C10.2018 35.4488 11.1311 35.8622 12.1282 35.9109C12.1735 36.875 12.5611 37.8253 13.29 38.5597C14.4377 39.716 16.0846 40.0075 17.4754 39.5079C17.667 40.0614 17.9815 40.5805 18.4196 41.0216C19.9848 42.5989 22.523 42.5992 24.0885 41.0216L24.645 40.4613C24.9928 40.1108 25.2623 39.7108 25.4546 39.2841C27.0116 40.6598 29.4114 40.6292 30.9285 39.1007C31.6578 38.3664 32.045 37.4161 32.0904 36.452C33.087 36.4036 34.0167 35.9899 34.7264 35.2747C35.4556 34.5404 35.8429 33.5901 35.8885 32.626C36.8849 32.5776 37.8146 32.1639 38.5242 31.4491C39.982 29.9807 40.0736 27.6492 38.7992 26.072C39.7279 24.7636 40.2309 23.2018 40.2309 21.5617C40.2309 21.1776 40.385 20.802 40.6539 20.5311L44.5293 16.6254C45.0395 16.1115 45.0395 15.282 44.5293 14.768L33.1354 3.28972ZM7.56573 27.0817L9.46465 25.1687C9.99784 24.6314 10.8575 24.631 11.391 25.1687C11.9301 25.7115 11.9301 26.5945 11.391 27.137L9.49212 29.0503C8.9586 29.5876 8.09926 29.5876 7.56573 29.0503C7.02706 28.5075 7.02706 27.6245 7.56573 27.0817ZM11.3636 30.9077L15.1614 27.0817C15.6949 26.5444 16.5546 26.544 17.0882 27.0817C17.6268 27.6245 17.6268 28.5075 17.0882 29.0503C15.7344 30.414 15.6623 30.4864 13.29 32.8763C12.7564 33.4133 11.8971 33.4136 11.3636 32.876C10.8249 32.3335 10.8249 31.4505 11.3636 30.9077ZM15.1614 36.7019C14.6227 36.1595 14.6227 35.2765 15.1614 34.7337L17.0603 32.8207C17.5939 32.2834 18.4535 32.2834 18.9871 32.8207C19.4845 33.3219 19.5216 34.1126 19.1 34.6585C18.984 34.7656 19.1567 34.5933 17.0882 36.7019C16.5546 37.2396 15.6953 37.2399 15.1614 36.7019ZM22.7739 38.6036L22.2174 39.1639C21.6839 39.7016 20.8245 39.7016 20.291 39.1639C19.8001 38.6695 19.7578 37.8933 20.1616 37.3488C20.8853 36.6171 20.8499 36.6604 20.9759 36.5224C21.5143 36.0991 22.283 36.141 22.7739 36.6353C23.3126 37.1781 23.3123 38.0612 22.7739 38.6036ZM36.6531 29.5914C36.1196 30.1287 35.2599 30.1287 34.7264 29.5914L32.2713 27.1181C31.7584 26.6014 30.9234 26.5983 30.4067 27.1112C29.89 27.6241 29.8869 28.4588 30.3998 28.9755L32.8553 31.4488C33.3939 31.9916 33.3939 32.8746 32.8553 33.417C32.3218 33.9547 31.4621 33.9547 30.9285 33.417L28.4734 30.9437C27.9602 30.427 27.1255 30.4239 26.6088 30.9369C26.0921 31.4498 26.0891 32.2847 26.602 32.8015L29.0571 35.2747C29.5961 35.8175 29.5961 36.7006 29.0571 37.243C28.5239 37.7807 27.6642 37.7807 27.1304 37.243C24.5458 34.6605 24.6698 34.7172 24.4095 34.56C23.738 33.9818 22.9061 33.6467 22.0196 33.6014C21.9719 32.6411 21.5847 31.6949 20.8585 30.963C20.486 30.588 20.0527 30.2962 19.5814 30.0964C20.4754 28.5573 20.2684 26.5427 18.9593 25.2243C17.6176 23.8726 15.6105 23.7089 14.1139 24.5854C13.92 24.1222 13.6367 23.6879 13.2625 23.3113C11.6969 21.7341 9.1591 21.7341 7.5932 23.3113L7.38308 23.5231C7.2382 23.1469 7.16164 22.7428 7.16164 22.327C7.16164 20.7429 6.54881 19.2536 5.43369 18.1299L3.09051 15.7822L12.6263 6.1757L15.515 9.07231C16.1605 9.72257 16.9882 10.1225 17.8826 10.2262L11.9912 17.2956C11.5253 17.8552 11.6008 18.6864 12.1601 19.1523C13.5124 20.2794 15.2229 20.8126 16.9762 20.6533C18.7292 20.494 20.3157 19.6614 21.4442 18.307C21.9163 17.7405 22.7104 17.5699 23.3761 17.8913C24.7346 18.5477 26.2278 18.7873 27.6965 18.5999L36.6531 27.6228C37.1918 28.1656 37.1918 29.0486 36.6531 29.5914ZM38.7828 18.6734C38.0161 19.4455 37.5942 20.4713 37.5942 21.5617C37.5942 22.4818 37.3556 23.3642 36.9099 24.1387L30.4977 17.6794C31.8085 16.9502 32.8834 15.854 33.5965 14.4951C33.9347 13.8503 33.6861 13.0535 33.0414 12.7153C32.3966 12.3768 31.5997 12.6254 31.2616 13.2701C30.5461 14.6338 29.318 15.544 27.9423 15.8811C27.8819 15.8904 27.8218 15.9034 27.7631 15.9213C26.706 16.14 25.5727 16.0243 24.5232 15.5172C22.7657 14.6681 20.667 15.1213 19.4173 16.621C18.7409 17.4322 17.7892 17.9318 16.7376 18.0276C16.1399 18.0818 15.5507 18.0018 15.0042 17.7989L21.1074 10.4741C21.5857 10.3282 22.0814 10.243 22.5813 10.243H26.4063C27.4775 10.243 28.4841 9.83449 29.2411 9.07231L32.2002 6.09021L41.7364 15.6967L38.7828 18.6734Z" fill="#F7B219"/>
</g>
<defs>
<clipPath id="clip0_4612_9906">
<rect width="45" height="45" fill="white"/>
</clipPath>
</defs>
</svg>
