<svg width="45" height="45" viewBox="0 0 45 45" fill="none" xmlns="http://www.w3.org/2000/svg">
<g clip-path="url(#clip0_4612_9836)">
<mask id="mask0_4612_9836" style="mask-type:luminance" maskUnits="userSpaceOnUse" x="0" y="0" width="45" height="45">
<path d="M0 3.8147e-06H45V45H0V3.8147e-06Z" fill="white"/>
</mask>
<g mask="url(#mask0_4612_9836)">
<path d="M39.1512 38.3704H32.6986C31.232 38.3704 30.043 39.5593 30.043 41.026C30.043 42.4927 31.232 43.6816 32.6986 43.6816H39.1512C40.6179 43.6816 41.8069 42.4927 41.8069 41.026C41.8069 39.5593 40.6179 38.3704 39.1512 38.3704Z" stroke="#F7B219" stroke-width="4" stroke-miterlimit="10"/>
<path d="M39.1512 27.748H32.6986C31.232 27.748 30.043 28.9369 30.043 30.4036C30.043 31.8702 31.232 33.0592 32.6986 33.0592H39.1512C40.6179 33.0592 41.8069 31.8702 41.8069 30.4036C41.8069 28.9369 40.6179 27.748 39.1512 27.748Z" stroke="#F7B219" stroke-width="4" stroke-miterlimit="10"/>
<path d="M41.0257 33.0592H30.8236C29.3569 33.0592 28.168 34.2481 28.168 35.7148C28.168 37.1814 29.3569 38.3705 30.8236 38.3705H41.0257C42.4923 38.3705 43.6813 37.1814 43.6813 35.7148C43.6813 34.2481 42.4923 33.0592 41.0257 33.0592Z" stroke="#F7B219" stroke-width="4" stroke-miterlimit="10"/>
<path d="M35.9248 27.7479V6.59177" stroke="#F7B219" stroke-width="4" stroke-miterlimit="10"/>
<path d="M38.5615 3.95508C38.5615 5.41125 37.3811 6.5918 35.9248 6.5918C34.4686 6.5918 33.2881 5.41125 33.2881 3.95508C33.2881 2.49891 34.4686 1.31836 35.9248 1.31836C37.3811 1.31836 38.5615 2.49891 38.5615 3.95508Z" stroke="#F7B219" stroke-width="4" stroke-miterlimit="10"/>
<path d="M27.7161 10.5382H7.56543V4.35335H27.7161V10.5382Z" stroke="#F7B219" stroke-width="4" stroke-miterlimit="10"/>
<path d="M30.4383 14.2038C30.9091 14.838 30.4465 15.7356 29.6567 15.7206C29.6421 15.7204 29.6272 15.7202 29.6124 15.7202C28.1163 15.7202 28.1163 17.1219 26.6204 17.1219C25.1242 17.1219 25.1242 15.7202 23.6281 15.7202C22.1319 15.7202 22.1319 17.1219 20.6357 17.1219C19.14 17.1219 19.14 15.7202 17.6444 15.7202C16.1482 15.7202 16.1482 17.1219 14.6521 17.1219C13.1555 17.1219 13.1555 15.7202 11.6589 15.7202C10.1629 15.7202 10.1629 17.1219 8.6667 17.1219C7.16957 17.1219 7.16957 15.7202 5.67244 15.7202C5.6568 15.7202 5.64133 15.7204 5.62604 15.7206C4.83634 15.7363 4.37368 14.8381 4.8446 14.2039L7.56613 10.5381H27.7167L30.4383 14.2038Z" stroke="#F7B219" stroke-width="4" stroke-miterlimit="10"/>
<path d="M20.4862 33.0591H14.7956C12.2512 33.0591 10.1885 30.9964 10.1885 28.4519C10.1885 25.9074 12.2512 23.8447 14.7956 23.8447H20.4862C23.0306 23.8447 25.0933 25.9074 25.0933 28.4519C25.0933 30.9964 23.0306 33.0591 20.4862 33.0591Z" stroke="#F7B219" stroke-width="4" stroke-miterlimit="10"/>
<path d="M28.7329 37.749L25.0937 43.6815H10.1888L3.30953 32.4673C0.00431215 27.0792 0.884272 20.1184 5.42628 15.7223L5.42804 15.7205" stroke="#F7B219" stroke-width="4" stroke-miterlimit="10"/>
<path d="M29.8545 15.7207L29.8562 15.7225C33.1397 18.9004 34.5094 23.4186 33.7676 27.714" stroke="#F7B219" stroke-width="4" stroke-miterlimit="10"/>
</g>
</g>
<defs>
<clipPath id="clip0_4612_9836">
<rect width="45" height="45" fill="white"/>
</clipPath>
</defs>
</svg>
