<svg width="45" height="45" viewBox="0 0 45 45" fill="none" xmlns="http://www.w3.org/2000/svg">
<g clip-path="url(#clip0_4612_9568)">
<mask id="mask0_4612_9568" style="mask-type:luminance" maskUnits="userSpaceOnUse" x="0" y="0" width="45" height="45">
<path d="M0 3.8147e-06H45V45H0V3.8147e-06Z" fill="white"/>
</mask>
<g mask="url(#mask0_4612_9568)">
<path d="M35.6836 22.5C35.6836 29.7811 29.7811 35.6836 22.5 35.6836C15.2189 35.6836 9.31641 29.7811 9.31641 22.5C9.31641 15.2189 15.2189 9.31641 22.5 9.31641C29.7811 9.31641 35.6836 15.2189 35.6836 22.5Z" stroke="#F7B219" stroke-width="3" stroke-miterlimit="10" stroke-linecap="round" stroke-linejoin="round"/>
<path d="M29.0918 18.5449L21.1816 26.4551L15.9082 21.1816" stroke="#F7B219" stroke-width="3" stroke-miterlimit="10" stroke-linecap="round" stroke-linejoin="round"/>
<path d="M20.7902 1.94788C21.7756 1.10852 23.2244 1.10852 24.2098 1.94788L27.6361 4.97176L33.4341 4.52308C34.7247 4.42323 35.8969 5.2748 36.2007 6.53305L37.3631 11.3473L42.429 14.3797C43.5318 15.0576 43.9795 16.4355 43.4857 17.632L41.4844 22.4815L43.4857 27.331C43.9795 28.5276 43.5318 29.9055 42.429 30.5833L37.3631 33.6157L36.2007 38.43C35.8969 39.6882 34.7247 40.5399 33.4341 40.44L27.6928 39.9956L24.2098 43.0521C23.2244 43.8915 21.7756 43.8915 20.7902 43.0521L17.3072 39.9956L11.5659 40.44C10.2753 40.5399 9.10309 39.6882 8.79934 38.43L7.63225 33.5967L2.57484 30.5833C1.47199 29.9055 1.02428 28.5276 1.51813 27.331L3.5194 22.4815L1.51813 17.632C1.02428 16.4355 1.47199 15.0576 2.57484 14.3797L7.19877 11.6327L8.79934 6.53305C9.10309 5.2748 10.2753 4.42323 11.5659 4.52308L17.364 4.97176L20.7902 1.94788Z" stroke="#F7B219" stroke-width="3" stroke-miterlimit="10" stroke-linecap="round" stroke-linejoin="round"/>
</g>
</g>
<defs>
<clipPath id="clip0_4612_9568">
<rect width="45" height="45" fill="white"/>
</clipPath>
</defs>
</svg>
