<svg width="45" height="45" viewBox="0 0 45 45" fill="none" xmlns="http://www.w3.org/2000/svg">
<g clip-path="url(#clip0_4612_9877)">
<path d="M40.29 33.4583C39.511 32.8788 38.4099 33.0406 37.8305 33.8194C37.5118 34.2478 37.1707 34.668 36.8168 35.0683C36.1739 35.7956 36.2422 36.9066 36.9695 37.5496C37.304 37.8452 37.7193 37.9904 38.1331 37.9904C38.6193 37.9904 39.1034 37.7898 39.4507 37.3968C39.8699 36.9227 40.2737 36.4251 40.6511 35.9177C41.2306 35.1389 41.069 34.0376 40.29 33.4583Z" fill="#F7B219"/>
<path d="M43.229 25.2145C42.281 25.0081 41.344 25.6097 41.1375 26.5582C41.0239 27.08 40.8866 27.6028 40.7292 28.1122C40.4426 29.0398 40.9622 30.024 41.8897 30.3106C42.0626 30.364 42.2373 30.3894 42.4092 30.3894C43.1598 30.3894 43.8549 29.9047 44.0881 29.1499C44.275 28.5454 44.4379 27.925 44.5728 27.306C44.7792 26.3575 44.1776 25.4211 43.229 25.2145Z" fill="#F7B219"/>
<path d="M31.8283 39.0879C31.3616 39.3484 30.8784 39.5919 30.3922 39.8115C29.5074 40.2111 29.1141 41.2522 29.5136 42.137C29.8072 42.7871 30.4469 43.1718 31.1167 43.1718C31.3585 43.1718 31.6044 43.1216 31.8391 43.0156C32.416 42.7551 32.9888 42.4663 33.5422 42.1574C34.3899 41.6842 34.6934 40.6134 34.22 39.7657C33.7469 38.9182 32.676 38.6147 31.8283 39.0879Z" fill="#F7B219"/>
<path d="M20.7419 8.4375V21.7719L14.2961 28.2176C13.6096 28.9042 13.6096 30.0171 14.2961 30.7035C14.6394 31.0468 15.0891 31.2184 15.5391 31.2184C15.9889 31.2184 16.4388 31.0467 16.7821 30.7035L23.7427 23.7429C24.0723 23.4134 24.2575 22.9662 24.2575 22.5V8.4375C24.2575 7.46666 23.4705 6.67969 22.4997 6.67969C21.5289 6.67969 20.7419 7.46666 20.7419 8.4375Z" fill="#F7B219"/>
<path d="M43.2422 3.7793C42.2713 3.7793 41.4844 4.56627 41.4844 5.53711V10.4182C37.3929 4.00148 30.2476 0 22.5 0C16.49 0 10.8398 2.34044 6.59004 6.59004C2.34044 10.8398 0 16.49 0 22.5C0 28.51 2.34044 34.1602 6.59004 38.41C10.8398 42.6596 16.49 45 22.5 45C22.5149 45 22.5292 44.9982 22.5439 44.9978C22.5587 44.9982 22.573 45 22.5879 45C23.2214 45 23.8612 44.9733 24.4896 44.9207C25.457 44.8397 26.1756 43.9898 26.0946 43.0224C26.0135 42.055 25.1648 41.336 24.1962 41.4174C23.665 41.4618 23.1239 41.4844 22.5879 41.4844C22.573 41.4844 22.5587 41.4862 22.5439 41.4866C22.5292 41.4862 22.5149 41.4844 22.5 41.4844C12.032 41.4844 3.51562 32.968 3.51562 22.5C3.51562 12.032 12.032 3.51562 22.5 3.51562C29.2463 3.51562 35.4513 7.11149 38.842 12.832H34.0087C33.0378 12.832 32.2509 13.619 32.2509 14.5898C32.2509 15.5607 33.0378 16.3477 34.0087 16.3477H39.375C40.4455 16.3477 41.447 16.0468 42.2997 15.5256C42.3546 15.4943 42.4073 15.4607 42.4576 15.4244C43.9874 14.4179 45 12.6867 45 10.7227V5.53711C45 4.56627 44.213 3.7793 43.2422 3.7793Z" fill="#F7B219"/>
</g>
<defs>
<clipPath id="clip0_4612_9877">
<rect width="45" height="45" fill="white"/>
</clipPath>
</defs>
</svg>
