<svg width="45" height="35" viewBox="0 0 45 35" fill="none" xmlns="http://www.w3.org/2000/svg">
<mask id="path-1-outside-1_4612_9533" maskUnits="userSpaceOnUse" x="-0.824219" y="0.503906" width="47" height="34" fill="black">
<rect fill="white" x="-0.824219" y="0.503906" width="47" height="34"/>
<path d="M44.6693 17.1273L43.5689 16.0234L44.7354 14.2741C44.7759 14.2125 44.803 14.1432 44.8151 14.0706C44.8272 13.9979 44.824 13.9235 44.8057 13.8522L44.1026 11.0397C44.0735 10.9268 44.0077 10.8267 43.9156 10.7552C43.8234 10.6836 43.7102 10.6447 43.5935 10.6445H40.2024L37.5017 9.29383C37.4184 9.25241 37.3257 9.23366 37.2329 9.23946C37.14 9.24526 37.0504 9.27541 36.9729 9.32687L34.9964 10.6445H32.8709V8.35938C32.8709 8.29013 32.8573 8.22156 32.8308 8.1576C32.8042 8.09365 32.7653 8.03557 32.7162 7.98672L31.31 6.58047C31.2611 6.53139 31.203 6.49246 31.1391 6.46591C31.0751 6.43937 31.0065 6.42573 30.9373 6.42578H29.285L28.6465 1.95672C28.6287 1.83104 28.5661 1.71602 28.4703 1.63282C28.3744 1.54962 28.2517 1.50384 28.1248 1.50391H24.6092C24.5272 1.50391 24.4463 1.52292 24.3729 1.55945L20.1542 3.66883C20.0386 3.72637 19.9482 3.8245 19.9003 3.94445L18.6607 7.04383L12.8817 5.75781L10.16 3.71875C10.0816 3.66003 9.98854 3.62425 9.89106 3.61544C9.79358 3.60662 9.69557 3.62511 9.608 3.66883L6.90659 5.01953H3.51542C3.37556 5.01953 3.24143 5.07509 3.14253 5.17399C3.04364 5.27288 2.98808 5.40701 2.98808 5.54688V8.35938C2.98812 8.45499 3.01413 8.54879 3.06331 8.63078L4.96175 11.7948L1.03339 15.7211C0.959658 15.7945 0.909477 15.8883 0.88925 15.9904L0.186125 19.506C0.166503 19.6036 0.174912 19.7047 0.210377 19.7976C0.245842 19.8906 0.306912 19.9716 0.386516 20.0312L6.01152 24.25C6.08255 24.3029 6.16578 24.3371 6.25353 24.3494C6.34127 24.3617 6.4307 24.3517 6.51355 24.3203L12.1385 22.2109C12.2184 22.1809 12.2898 22.1319 12.3467 22.0683C12.4035 22.0046 12.444 21.9281 12.4648 21.8453L13.0674 19.4322H15.3441L17.888 20.7041L19.11 23.1475L17.8521 26.2926L15.8792 27.6081C15.8069 27.6562 15.7476 27.7215 15.7067 27.798C15.6657 27.8746 15.6443 27.9601 15.6443 28.0469V30.8594C15.6443 30.9992 15.6999 31.1334 15.7988 31.2323C15.8977 31.3312 16.0318 31.3867 16.1717 31.3867H18.9842C19.0883 31.3867 19.19 31.3558 19.2767 31.2981L21.386 29.8919C21.4583 29.8438 21.5176 29.7785 21.5586 29.702C21.5995 29.6254 21.6209 29.5399 21.6209 29.4531V28.2227L23.4371 25.8004L27.4983 26.3805L26.9049 29.3498C26.8795 29.4759 26.9013 29.607 26.9661 29.7182C27.0309 29.8293 27.1342 29.9129 27.2564 29.953L29.0051 30.5366V32.9688C29.0051 33.1086 29.0607 33.2427 29.1596 33.3416C29.2585 33.4405 29.3926 33.4961 29.5325 33.4961H32.345C32.4142 33.4961 32.4828 33.4825 32.5467 33.456C32.6107 33.4294 32.6688 33.3905 32.7176 33.3414L34.673 31.3867H37.2654C37.387 31.3867 37.5048 31.3448 37.599 31.2679C37.6932 31.191 37.7579 31.084 37.7822 30.9648L38.4853 27.4492C38.5009 27.3725 38.4992 27.2934 38.4803 27.2175C38.4615 27.1415 38.4261 27.0707 38.3766 27.0102C38.327 26.9496 38.2647 26.9008 38.194 26.8673C38.1233 26.8338 38.0461 26.8164 37.9678 26.8164H34.6716L33.7252 25.8672L34.7342 24.3555H39.3748C39.4567 24.3555 39.5374 24.3364 39.6106 24.2998C39.6839 24.2632 39.7476 24.21 39.7967 24.1445L41.7935 21.4818L44.4246 20.8237C44.5387 20.7953 44.64 20.7295 44.7124 20.6369C44.7847 20.5442 44.824 20.4301 44.824 20.3125V17.5C44.8241 17.4308 44.8104 17.3622 44.7839 17.2982C44.7573 17.2343 44.7184 17.1762 44.6693 17.1273ZM5.99745 12.2477C6.08071 12.1646 6.13377 12.056 6.14817 11.9393C6.16257 11.8226 6.13748 11.7044 6.07691 11.6036L4.04277 8.21312V6.07422H7.03105C7.11303 6.07422 7.1939 6.05521 7.2673 6.01867L9.788 4.75797L12.3396 6.67188C12.3995 6.71688 12.4683 6.74853 12.5414 6.76469L18.8696 8.17094C18.9917 8.19825 19.1195 8.18119 19.2302 8.12283C19.3408 8.06447 19.4271 7.96861 19.4735 7.85242L20.8053 4.52242L24.7336 2.55859H27.6678L28.3062 7.02766C28.324 7.15333 28.3866 7.26836 28.4824 7.35156C28.5783 7.43476 28.701 7.48054 28.8279 7.48047H30.7186L31.8162 8.57805V11.1719C31.8162 11.3117 31.8718 11.4459 31.9707 11.5448C32.0696 11.6437 32.2037 11.6992 32.3435 11.6992H35.156C35.2601 11.6992 35.3619 11.6683 35.4485 11.6106L37.3034 10.3738L39.8417 11.6437C39.9151 11.6802 39.9959 11.6992 40.0779 11.6992H43.1822L43.7285 13.8859L42.6092 15.5664H2.67941L5.99745 12.2477ZM43.7693 19.9012L41.3562 20.5037C41.2387 20.5332 41.1349 20.6022 41.0623 20.6992L39.1111 23.3008H34.4529C34.3661 23.3007 34.2806 23.3221 34.2041 23.3631C34.1275 23.4041 34.0623 23.4633 34.0142 23.5356L32.6079 25.645C32.5401 25.7463 32.5097 25.8681 32.5217 25.9894C32.5338 26.1108 32.5876 26.2241 32.674 26.3102L34.0803 27.7164C34.1291 27.7655 34.1872 27.8044 34.2511 27.831C34.3151 27.8575 34.3837 27.8711 34.4529 27.8711H37.3252L36.833 30.332H34.4529C34.3837 30.332 34.3151 30.3456 34.2511 30.3722C34.1872 30.3987 34.1291 30.4376 34.0803 30.4867L32.1249 32.4414H30.0584V30.1562C30.0583 30.0456 30.0234 29.9378 29.9587 29.8481C29.894 29.7584 29.8027 29.6913 29.6977 29.6563L28.0299 29.1016L28.6423 26.0423C28.6563 25.9719 28.6558 25.8995 28.6409 25.8294C28.6259 25.7592 28.5968 25.6929 28.5554 25.6344C28.5139 25.5759 28.4609 25.5264 28.3997 25.4891C28.3385 25.4517 28.2703 25.4273 28.1993 25.4172L23.2775 24.7141C23.1839 24.7006 23.0884 24.7125 23.0011 24.7487C22.9138 24.7848 22.8378 24.8438 22.781 24.9194L20.6717 27.7319C20.6033 27.8232 20.5664 27.9342 20.5662 28.0483V29.1733L18.8246 30.332H16.699V28.3281L18.5735 27.0787C18.6623 27.0194 18.731 26.9346 18.7704 26.8354L20.1767 23.3198C20.2043 23.2506 20.2171 23.1764 20.2141 23.102C20.211 23.0276 20.1923 22.9547 20.1591 22.888L18.7528 20.0755C18.7019 19.9732 18.6189 19.8903 18.5166 19.8393L15.7041 18.433C15.6308 18.3971 15.5502 18.3786 15.4685 18.3789H12.656C12.5385 18.3789 12.4243 18.4182 12.3317 18.4906C12.239 18.5629 12.1733 18.6642 12.1449 18.7783L11.5085 21.3222L6.413 23.2326L1.28511 19.3872L1.83847 16.6211H42.6717L43.7693 17.7187V19.9012Z"/>
</mask>
<path d="M44.6693 17.1273L43.5689 16.0234L44.7354 14.2741C44.7759 14.2125 44.803 14.1432 44.8151 14.0706C44.8272 13.9979 44.824 13.9235 44.8057 13.8522L44.1026 11.0397C44.0735 10.9268 44.0077 10.8267 43.9156 10.7552C43.8234 10.6836 43.7102 10.6447 43.5935 10.6445H40.2024L37.5017 9.29383C37.4184 9.25241 37.3257 9.23366 37.2329 9.23946C37.14 9.24526 37.0504 9.27541 36.9729 9.32687L34.9964 10.6445H32.8709V8.35938C32.8709 8.29013 32.8573 8.22156 32.8308 8.1576C32.8042 8.09365 32.7653 8.03557 32.7162 7.98672L31.31 6.58047C31.2611 6.53139 31.203 6.49246 31.1391 6.46591C31.0751 6.43937 31.0065 6.42573 30.9373 6.42578H29.285L28.6465 1.95672C28.6287 1.83104 28.5661 1.71602 28.4703 1.63282C28.3744 1.54962 28.2517 1.50384 28.1248 1.50391H24.6092C24.5272 1.50391 24.4463 1.52292 24.3729 1.55945L20.1542 3.66883C20.0386 3.72637 19.9482 3.8245 19.9003 3.94445L18.6607 7.04383L12.8817 5.75781L10.16 3.71875C10.0816 3.66003 9.98854 3.62425 9.89106 3.61544C9.79358 3.60662 9.69557 3.62511 9.608 3.66883L6.90659 5.01953H3.51542C3.37556 5.01953 3.24143 5.07509 3.14253 5.17399C3.04364 5.27288 2.98808 5.40701 2.98808 5.54688V8.35938C2.98812 8.45499 3.01413 8.54879 3.06331 8.63078L4.96175 11.7948L1.03339 15.7211C0.959658 15.7945 0.909477 15.8883 0.88925 15.9904L0.186125 19.506C0.166503 19.6036 0.174912 19.7047 0.210377 19.7976C0.245842 19.8906 0.306912 19.9716 0.386516 20.0312L6.01152 24.25C6.08255 24.3029 6.16578 24.3371 6.25353 24.3494C6.34127 24.3617 6.4307 24.3517 6.51355 24.3203L12.1385 22.2109C12.2184 22.1809 12.2898 22.1319 12.3467 22.0683C12.4035 22.0046 12.444 21.9281 12.4648 21.8453L13.0674 19.4322H15.3441L17.888 20.7041L19.11 23.1475L17.8521 26.2926L15.8792 27.6081C15.8069 27.6562 15.7476 27.7215 15.7067 27.798C15.6657 27.8746 15.6443 27.9601 15.6443 28.0469V30.8594C15.6443 30.9992 15.6999 31.1334 15.7988 31.2323C15.8977 31.3312 16.0318 31.3867 16.1717 31.3867H18.9842C19.0883 31.3867 19.19 31.3558 19.2767 31.2981L21.386 29.8919C21.4583 29.8438 21.5176 29.7785 21.5586 29.702C21.5995 29.6254 21.6209 29.5399 21.6209 29.4531V28.2227L23.4371 25.8004L27.4983 26.3805L26.9049 29.3498C26.8795 29.4759 26.9013 29.607 26.9661 29.7182C27.0309 29.8293 27.1342 29.9129 27.2564 29.953L29.0051 30.5366V32.9688C29.0051 33.1086 29.0607 33.2427 29.1596 33.3416C29.2585 33.4405 29.3926 33.4961 29.5325 33.4961H32.345C32.4142 33.4961 32.4828 33.4825 32.5467 33.456C32.6107 33.4294 32.6688 33.3905 32.7176 33.3414L34.673 31.3867H37.2654C37.387 31.3867 37.5048 31.3448 37.599 31.2679C37.6932 31.191 37.7579 31.084 37.7822 30.9648L38.4853 27.4492C38.5009 27.3725 38.4992 27.2934 38.4803 27.2175C38.4615 27.1415 38.4261 27.0707 38.3766 27.0102C38.327 26.9496 38.2647 26.9008 38.194 26.8673C38.1233 26.8338 38.0461 26.8164 37.9678 26.8164H34.6716L33.7252 25.8672L34.7342 24.3555H39.3748C39.4567 24.3555 39.5374 24.3364 39.6106 24.2998C39.6839 24.2632 39.7476 24.21 39.7967 24.1445L41.7935 21.4818L44.4246 20.8237C44.5387 20.7953 44.64 20.7295 44.7124 20.6369C44.7847 20.5442 44.824 20.4301 44.824 20.3125V17.5C44.8241 17.4308 44.8104 17.3622 44.7839 17.2982C44.7573 17.2343 44.7184 17.1762 44.6693 17.1273ZM5.99745 12.2477C6.08071 12.1646 6.13377 12.056 6.14817 11.9393C6.16257 11.8226 6.13748 11.7044 6.07691 11.6036L4.04277 8.21312V6.07422H7.03105C7.11303 6.07422 7.1939 6.05521 7.2673 6.01867L9.788 4.75797L12.3396 6.67188C12.3995 6.71688 12.4683 6.74853 12.5414 6.76469L18.8696 8.17094C18.9917 8.19825 19.1195 8.18119 19.2302 8.12283C19.3408 8.06447 19.4271 7.96861 19.4735 7.85242L20.8053 4.52242L24.7336 2.55859H27.6678L28.3062 7.02766C28.324 7.15333 28.3866 7.26836 28.4824 7.35156C28.5783 7.43476 28.701 7.48054 28.8279 7.48047H30.7186L31.8162 8.57805V11.1719C31.8162 11.3117 31.8718 11.4459 31.9707 11.5448C32.0696 11.6437 32.2037 11.6992 32.3435 11.6992H35.156C35.2601 11.6992 35.3619 11.6683 35.4485 11.6106L37.3034 10.3738L39.8417 11.6437C39.9151 11.6802 39.9959 11.6992 40.0779 11.6992H43.1822L43.7285 13.8859L42.6092 15.5664H2.67941L5.99745 12.2477ZM43.7693 19.9012L41.3562 20.5037C41.2387 20.5332 41.1349 20.6022 41.0623 20.6992L39.1111 23.3008H34.4529C34.3661 23.3007 34.2806 23.3221 34.2041 23.3631C34.1275 23.4041 34.0623 23.4633 34.0142 23.5356L32.6079 25.645C32.5401 25.7463 32.5097 25.8681 32.5217 25.9894C32.5338 26.1108 32.5876 26.2241 32.674 26.3102L34.0803 27.7164C34.1291 27.7655 34.1872 27.8044 34.2511 27.831C34.3151 27.8575 34.3837 27.8711 34.4529 27.8711H37.3252L36.833 30.332H34.4529C34.3837 30.332 34.3151 30.3456 34.2511 30.3722C34.1872 30.3987 34.1291 30.4376 34.0803 30.4867L32.1249 32.4414H30.0584V30.1562C30.0583 30.0456 30.0234 29.9378 29.9587 29.8481C29.894 29.7584 29.8027 29.6913 29.6977 29.6563L28.0299 29.1016L28.6423 26.0423C28.6563 25.9719 28.6558 25.8995 28.6409 25.8294C28.6259 25.7592 28.5968 25.6929 28.5554 25.6344C28.5139 25.5759 28.4609 25.5264 28.3997 25.4891C28.3385 25.4517 28.2703 25.4273 28.1993 25.4172L23.2775 24.7141C23.1839 24.7006 23.0884 24.7125 23.0011 24.7487C22.9138 24.7848 22.8378 24.8438 22.781 24.9194L20.6717 27.7319C20.6033 27.8232 20.5664 27.9342 20.5662 28.0483V29.1733L18.8246 30.332H16.699V28.3281L18.5735 27.0787C18.6623 27.0194 18.731 26.9346 18.7704 26.8354L20.1767 23.3198C20.2043 23.2506 20.2171 23.1764 20.2141 23.102C20.211 23.0276 20.1923 22.9547 20.1591 22.888L18.7528 20.0755C18.7019 19.9732 18.6189 19.8903 18.5166 19.8393L15.7041 18.433C15.6308 18.3971 15.5502 18.3786 15.4685 18.3789H12.656C12.5385 18.3789 12.4243 18.4182 12.3317 18.4906C12.239 18.5629 12.1733 18.6642 12.1449 18.7783L11.5085 21.3222L6.413 23.2326L1.28511 19.3872L1.83847 16.6211H42.6717L43.7693 17.7187V19.9012Z" fill="#F7B219"/>
<path d="M44.6693 17.1273L43.5689 16.0234L44.7354 14.2741C44.7759 14.2125 44.803 14.1432 44.8151 14.0706C44.8272 13.9979 44.824 13.9235 44.8057 13.8522L44.1026 11.0397C44.0735 10.9268 44.0077 10.8267 43.9156 10.7552C43.8234 10.6836 43.7102 10.6447 43.5935 10.6445H40.2024L37.5017 9.29383C37.4184 9.25241 37.3257 9.23366 37.2329 9.23946C37.14 9.24526 37.0504 9.27541 36.9729 9.32687L34.9964 10.6445H32.8709V8.35938C32.8709 8.29013 32.8573 8.22156 32.8308 8.1576C32.8042 8.09365 32.7653 8.03557 32.7162 7.98672L31.31 6.58047C31.2611 6.53139 31.203 6.49246 31.1391 6.46591C31.0751 6.43937 31.0065 6.42573 30.9373 6.42578H29.285L28.6465 1.95672C28.6287 1.83104 28.5661 1.71602 28.4703 1.63282C28.3744 1.54962 28.2517 1.50384 28.1248 1.50391H24.6092C24.5272 1.50391 24.4463 1.52292 24.3729 1.55945L20.1542 3.66883C20.0386 3.72637 19.9482 3.8245 19.9003 3.94445L18.6607 7.04383L12.8817 5.75781L10.16 3.71875C10.0816 3.66003 9.98854 3.62425 9.89106 3.61544C9.79358 3.60662 9.69557 3.62511 9.608 3.66883L6.90659 5.01953H3.51542C3.37556 5.01953 3.24143 5.07509 3.14253 5.17399C3.04364 5.27288 2.98808 5.40701 2.98808 5.54688V8.35938C2.98812 8.45499 3.01413 8.54879 3.06331 8.63078L4.96175 11.7948L1.03339 15.7211C0.959658 15.7945 0.909477 15.8883 0.88925 15.9904L0.186125 19.506C0.166503 19.6036 0.174912 19.7047 0.210377 19.7976C0.245842 19.8906 0.306912 19.9716 0.386516 20.0312L6.01152 24.25C6.08255 24.3029 6.16578 24.3371 6.25353 24.3494C6.34127 24.3617 6.4307 24.3517 6.51355 24.3203L12.1385 22.2109C12.2184 22.1809 12.2898 22.1319 12.3467 22.0683C12.4035 22.0046 12.444 21.9281 12.4648 21.8453L13.0674 19.4322H15.3441L17.888 20.7041L19.11 23.1475L17.8521 26.2926L15.8792 27.6081C15.8069 27.6562 15.7476 27.7215 15.7067 27.798C15.6657 27.8746 15.6443 27.9601 15.6443 28.0469V30.8594C15.6443 30.9992 15.6999 31.1334 15.7988 31.2323C15.8977 31.3312 16.0318 31.3867 16.1717 31.3867H18.9842C19.0883 31.3867 19.19 31.3558 19.2767 31.2981L21.386 29.8919C21.4583 29.8438 21.5176 29.7785 21.5586 29.702C21.5995 29.6254 21.6209 29.5399 21.6209 29.4531V28.2227L23.4371 25.8004L27.4983 26.3805L26.9049 29.3498C26.8795 29.4759 26.9013 29.607 26.9661 29.7182C27.0309 29.8293 27.1342 29.9129 27.2564 29.953L29.0051 30.5366V32.9688C29.0051 33.1086 29.0607 33.2427 29.1596 33.3416C29.2585 33.4405 29.3926 33.4961 29.5325 33.4961H32.345C32.4142 33.4961 32.4828 33.4825 32.5467 33.456C32.6107 33.4294 32.6688 33.3905 32.7176 33.3414L34.673 31.3867H37.2654C37.387 31.3867 37.5048 31.3448 37.599 31.2679C37.6932 31.191 37.7579 31.084 37.7822 30.9648L38.4853 27.4492C38.5009 27.3725 38.4992 27.2934 38.4803 27.2175C38.4615 27.1415 38.4261 27.0707 38.3766 27.0102C38.327 26.9496 38.2647 26.9008 38.194 26.8673C38.1233 26.8338 38.0461 26.8164 37.9678 26.8164H34.6716L33.7252 25.8672L34.7342 24.3555H39.3748C39.4567 24.3555 39.5374 24.3364 39.6106 24.2998C39.6839 24.2632 39.7476 24.21 39.7967 24.1445L41.7935 21.4818L44.4246 20.8237C44.5387 20.7953 44.64 20.7295 44.7124 20.6369C44.7847 20.5442 44.824 20.4301 44.824 20.3125V17.5C44.8241 17.4308 44.8104 17.3622 44.7839 17.2982C44.7573 17.2343 44.7184 17.1762 44.6693 17.1273ZM5.99745 12.2477C6.08071 12.1646 6.13377 12.056 6.14817 11.9393C6.16257 11.8226 6.13748 11.7044 6.07691 11.6036L4.04277 8.21312V6.07422H7.03105C7.11303 6.07422 7.1939 6.05521 7.2673 6.01867L9.788 4.75797L12.3396 6.67188C12.3995 6.71688 12.4683 6.74853 12.5414 6.76469L18.8696 8.17094C18.9917 8.19825 19.1195 8.18119 19.2302 8.12283C19.3408 8.06447 19.4271 7.96861 19.4735 7.85242L20.8053 4.52242L24.7336 2.55859H27.6678L28.3062 7.02766C28.324 7.15333 28.3866 7.26836 28.4824 7.35156C28.5783 7.43476 28.701 7.48054 28.8279 7.48047H30.7186L31.8162 8.57805V11.1719C31.8162 11.3117 31.8718 11.4459 31.9707 11.5448C32.0696 11.6437 32.2037 11.6992 32.3435 11.6992H35.156C35.2601 11.6992 35.3619 11.6683 35.4485 11.6106L37.3034 10.3738L39.8417 11.6437C39.9151 11.6802 39.9959 11.6992 40.0779 11.6992H43.1822L43.7285 13.8859L42.6092 15.5664H2.67941L5.99745 12.2477ZM43.7693 19.9012L41.3562 20.5037C41.2387 20.5332 41.1349 20.6022 41.0623 20.6992L39.1111 23.3008H34.4529C34.3661 23.3007 34.2806 23.3221 34.2041 23.3631C34.1275 23.4041 34.0623 23.4633 34.0142 23.5356L32.6079 25.645C32.5401 25.7463 32.5097 25.8681 32.5217 25.9894C32.5338 26.1108 32.5876 26.2241 32.674 26.3102L34.0803 27.7164C34.1291 27.7655 34.1872 27.8044 34.2511 27.831C34.3151 27.8575 34.3837 27.8711 34.4529 27.8711H37.3252L36.833 30.332H34.4529C34.3837 30.332 34.3151 30.3456 34.2511 30.3722C34.1872 30.3987 34.1291 30.4376 34.0803 30.4867L32.1249 32.4414H30.0584V30.1562C30.0583 30.0456 30.0234 29.9378 29.9587 29.8481C29.894 29.7584 29.8027 29.6913 29.6977 29.6563L28.0299 29.1016L28.6423 26.0423C28.6563 25.9719 28.6558 25.8995 28.6409 25.8294C28.6259 25.7592 28.5968 25.6929 28.5554 25.6344C28.5139 25.5759 28.4609 25.5264 28.3997 25.4891C28.3385 25.4517 28.2703 25.4273 28.1993 25.4172L23.2775 24.7141C23.1839 24.7006 23.0884 24.7125 23.0011 24.7487C22.9138 24.7848 22.8378 24.8438 22.781 24.9194L20.6717 27.7319C20.6033 27.8232 20.5664 27.9342 20.5662 28.0483V29.1733L18.8246 30.332H16.699V28.3281L18.5735 27.0787C18.6623 27.0194 18.731 26.9346 18.7704 26.8354L20.1767 23.3198C20.2043 23.2506 20.2171 23.1764 20.2141 23.102C20.211 23.0276 20.1923 22.9547 20.1591 22.888L18.7528 20.0755C18.7019 19.9732 18.6189 19.8903 18.5166 19.8393L15.7041 18.433C15.6308 18.3971 15.5502 18.3786 15.4685 18.3789H12.656C12.5385 18.3789 12.4243 18.4182 12.3317 18.4906C12.239 18.5629 12.1733 18.6642 12.1449 18.7783L11.5085 21.3222L6.413 23.2326L1.28511 19.3872L1.83847 16.6211H42.6717L43.7693 17.7187V19.9012Z" stroke="#F7B219" stroke-width="2" mask="url(#path-1-outside-1_4612_9533)"/>
</svg>
